%FSTAX23Y23*%
%MOIN*%
%SFA1B1*%

%IPPOS*%
%ADD110C,0.060000*%
%ADD120C,0.040000*%
%ADD121C,0.048000*%
%ADD122C,0.145000*%
%ADD123C,0.075000*%
%ADD124C,0.059370*%
%ADD125C,0.098740*%
%ADD126C,0.055430*%
%ADD127C,0.027000*%
%ADD128C,0.034000*%
%LNusb_control-1*%
%LPD*%
G36*
X02204Y0056D02*
X02249D01*
Y0046*
Y00459*
X02248Y00457*
X02246Y00455*
X02245Y00455*
X02199*
Y00457*
X02154*
Y00562*
X02204*
Y0056*
G37*
G54D110*
X03534Y01705D03*
X03334D03*
X03434D03*
X03059Y0134D03*
X02959D03*
Y0161D03*
Y0151D03*
Y0181D03*
Y0171D03*
X03059Y0161D03*
Y0151D03*
Y0181D03*
Y0171D03*
X02959Y01D03*
X03059D03*
X02959Y011D03*
X03059D03*
X02959Y012D03*
X03059D03*
X01892Y01999D03*
G54D120*
X0Y0225D02*
Y0D01*
Y0225D02*
X03609D01*
Y0D02*
Y0225D01*
X0Y0D02*
X03609D01*
G54D121*
X03414Y012D03*
X03574Y0136D03*
X03414Y00975D03*
X03574Y01135D03*
X03414Y01405D03*
X03574Y01565D03*
G54D122*
X01494Y0145D03*
G54D123*
X01259Y02085D03*
X02179D03*
X00674Y02075D03*
G54D124*
X00802Y00102D03*
Y00357D03*
G54D125*
X03259Y00063D03*
G54D126*
X01254Y00845D03*
X01154D03*
X01054Y00545D03*
X01154D03*
X00954Y00845D03*
Y00545D03*
G54D127*
X00479Y01404D03*
X01548Y01217D03*
X01545Y01167D03*
X01935Y01433D03*
X01978D03*
X01999Y01195D03*
X02084Y01035D03*
X01928Y0123D03*
X01928Y01205D03*
X02033Y01125D03*
X01949Y00985D03*
X02134Y00935D03*
X0205Y0118D03*
X01974Y01135D03*
X02099Y00934D03*
Y009D03*
X02254Y01465D03*
X02068Y00902D03*
X02068Y0084D03*
X02068Y00807D03*
Y00776D03*
Y00744D03*
X02194Y00965D03*
X02194Y00935D03*
X02569Y0118D03*
X02904Y01405D03*
X02919Y01385D03*
X02899Y01425D03*
X02374Y00765D03*
X02319Y00775D03*
X02257Y00776D03*
X02226D03*
X02159Y0179D03*
X02414Y0147D03*
X02313Y0146D03*
X02124Y0148D03*
Y016D03*
X0232Y00681D03*
X02005Y00744D03*
X02037Y00713D03*
X02131Y00681D03*
X02289Y00713D03*
X021Y00744D03*
X02257Y00933D03*
Y00902D03*
X021Y0087D03*
X02164Y00776D03*
X02131Y0087D03*
X02541Y00397D03*
X02614Y00475D03*
X01759Y00685D03*
X01994Y00325D03*
X00904Y0124D03*
X01279Y01295D03*
X01994Y00825D03*
X02037Y00902D03*
X02289Y00776D03*
X02209Y01035D03*
X02149D03*
X02257Y00713D03*
X02226Y00713D03*
X02364Y0094D03*
X02364Y00875D03*
X02534Y0066D03*
X02369Y00729D03*
X02289Y00839D03*
X02129Y00745D03*
X02194Y00744D03*
X02165Y00809D03*
X02194Y0081D03*
X01689Y00745D03*
X02579Y00625D03*
X02544Y0064D03*
X02164Y00997D03*
X02134Y00996D03*
X02254Y01065D03*
X02195Y0087D03*
X02314Y01085D03*
X01751Y00785D03*
X02229Y00745D03*
X02164Y00903D03*
X02374Y0112D03*
X02249Y0123D03*
X02104D03*
X02099Y0081D03*
X01964Y0087D03*
X01599Y00825D03*
X02334Y01105D03*
X02194Y009D03*
X01974Y00925D03*
X02034Y01195D03*
X02449Y0167D03*
X02397Y01676D03*
X02644Y0176D03*
X02699Y0179D03*
G54D128*
X01609Y0155D03*
X01899Y0119D03*
X01955Y01894D03*
X02609Y01375D03*
X01999Y01885D03*
X01689Y02065D03*
X02094Y0181D03*
X03429Y0115D03*
X01859Y0046D03*
X03269Y00975D03*
X02344Y00175D03*
X01639Y00325D03*
X02699Y0119D03*
X02564Y0137D03*
X02839Y002D03*
X02594Y00135D03*
X03059Y0205D03*
X03019D03*
X02039Y0185D03*
X02429Y021D03*
X02449Y01785D03*
X03154Y0185D03*
X03029Y00855D03*
X03379Y00495D03*
Y00575D03*
Y00535D03*
X02484Y01715D03*
X02343Y01797D03*
X03049Y0189D03*
Y0193D03*
X02844Y02015D03*
X02749Y019D03*
X02934Y01965D03*
X01896Y01612D03*
X00781Y00802D03*
X00971Y01047D03*
X01064Y01345D03*
X01114D03*
Y01285D03*
X01379Y0177D03*
Y01715D03*
Y0166D03*
X03034Y0055D03*
Y0062D03*
X01719Y0015D03*
X00839Y01275D03*
Y01205D03*
X00799Y0161D03*
X01151Y00972D03*
X01574Y0014D03*
X00754Y0102D03*
Y0096D03*
X00749Y01635D03*
X00754Y0157D03*
X00919Y0032D03*
X02849Y00655D03*
X01374Y0038D03*
X02424Y0106D03*
X03139Y005D03*
X01429Y01045D03*
X02469Y01285D03*
Y0115D03*
X01544Y00175D03*
X02384Y00795D03*
X01864Y01425D03*
X00804Y0101D03*
X02654Y01225D03*
X02379Y0055D03*
X02384Y00835D03*
X00853Y0164D03*
X01779Y0017D03*
X01724Y002D03*
X01424Y00675D03*
X01359Y00595D03*
X02519Y01365D03*
X01866Y01485D03*
X02584D03*
X02684D03*
M02*