%FSTAX23Y23*%
%MOIN*%
%SFA1B1*%

%IPPOS*%
%ADD10C,0.009840*%
%ADD11C,0.023620*%
%ADD12C,0.010000*%
%ADD13C,0.007870*%
%ADD14C,0.003940*%
%ADD15C,0.015750*%
%ADD16C,0.020000*%
%ADD17C,0.005000*%
%ADD18C,0.016000*%
%ADD19C,0.008000*%
%LNusb_control-1*%
%LPD*%
G36*
X02336Y00658D02*
X02375Y00697D01*
Y00658*
X02336*
G37*
G54D10*
X00719Y0165D02*
D01*
X00719Y0165*
X00719Y0165*
X00719Y01651*
X00719Y01651*
X00719Y01651*
X00719Y01652*
X00718Y01652*
X00718Y01652*
X00718Y01653*
X00718Y01653*
X00718Y01653*
X00717Y01653*
X00717Y01654*
X00717Y01654*
X00717Y01654*
X00716Y01654*
X00716Y01654*
X00716Y01654*
X00715Y01654*
X00715Y01655*
X00715Y01655*
X00714Y01655*
X00714*
X00714Y01655*
X00713Y01655*
X00713Y01654*
X00713Y01654*
X00712Y01654*
X00712Y01654*
X00712Y01654*
X00711Y01654*
X00711Y01654*
X00711Y01653*
X00711Y01653*
X0071Y01653*
X0071Y01653*
X0071Y01652*
X0071Y01652*
X0071Y01652*
X00709Y01651*
X00709Y01651*
X00709Y01651*
X00709Y0165*
X00709Y0165*
X00709Y0165*
X00709Y01649*
X00709Y01649*
X00709Y01649*
X00709Y01648*
X00709Y01648*
X0071Y01648*
X0071Y01647*
X0071Y01647*
X0071Y01647*
X0071Y01647*
X00711Y01646*
X00711Y01646*
X00711Y01646*
X00711Y01646*
X00712Y01645*
X00712Y01645*
X00712Y01645*
X00713Y01645*
X00713Y01645*
X00713Y01645*
X00714Y01645*
X00714Y01645*
X00714*
X00715Y01645*
X00715Y01645*
X00715Y01645*
X00716Y01645*
X00716Y01645*
X00716Y01645*
X00717Y01645*
X00717Y01646*
X00717Y01646*
X00717Y01646*
X00718Y01646*
X00718Y01647*
X00718Y01647*
X00718Y01647*
X00718Y01647*
X00719Y01648*
X00719Y01648*
X00719Y01648*
X00719Y01649*
X00719Y01649*
X00719Y01649*
X00719Y0165*
X0039Y01449D02*
D01*
X0039Y01449*
X0039Y01449*
X0039Y0145*
X0039Y0145*
X00389Y0145*
X00389Y01451*
X00389Y01451*
X00389Y01451*
X00389Y01451*
X00389Y01452*
X00388Y01452*
X00388Y01452*
X00388Y01452*
X00388Y01453*
X00387Y01453*
X00387Y01453*
X00387Y01453*
X00386Y01453*
X00386Y01453*
X00386Y01453*
X00385Y01453*
X00385Y01453*
X00385*
X00384Y01453*
X00384Y01453*
X00384Y01453*
X00383Y01453*
X00383Y01453*
X00383Y01453*
X00382Y01453*
X00382Y01453*
X00382Y01452*
X00381Y01452*
X00381Y01452*
X00381Y01452*
X00381Y01451*
X00381Y01451*
X0038Y01451*
X0038Y01451*
X0038Y0145*
X0038Y0145*
X0038Y0145*
X0038Y01449*
X0038Y01449*
X0038Y01449*
X0038Y01448*
X0038Y01448*
X0038Y01448*
X0038Y01447*
X0038Y01447*
X0038Y01447*
X0038Y01446*
X00381Y01446*
X00381Y01446*
X00381Y01445*
X00381Y01445*
X00381Y01445*
X00382Y01445*
X00382Y01444*
X00382Y01444*
X00383Y01444*
X00383Y01444*
X00383Y01444*
X00384Y01444*
X00384Y01444*
X00384Y01444*
X00385Y01444*
X00385*
X00385Y01444*
X00386Y01444*
X00386Y01444*
X00386Y01444*
X00387Y01444*
X00387Y01444*
X00387Y01444*
X00388Y01444*
X00388Y01445*
X00388Y01445*
X00388Y01445*
X00389Y01445*
X00389Y01446*
X00389Y01446*
X00389Y01446*
X00389Y01447*
X00389Y01447*
X0039Y01447*
X0039Y01448*
X0039Y01448*
X0039Y01448*
X0039Y01449*
X00374Y00747D02*
D01*
X00374Y00747*
X00374Y00747*
X00374Y00748*
X00374Y00748*
X00373Y00748*
X00373Y00749*
X00373Y00749*
X00373Y00749*
X00373Y00749*
X00373Y0075*
X00372Y0075*
X00372Y0075*
X00372Y0075*
X00372Y00751*
X00371Y00751*
X00371Y00751*
X00371Y00751*
X0037Y00751*
X0037Y00751*
X0037Y00751*
X00369Y00751*
X00369Y00751*
X00369*
X00368Y00751*
X00368Y00751*
X00368Y00751*
X00367Y00751*
X00367Y00751*
X00367Y00751*
X00366Y00751*
X00366Y00751*
X00366Y0075*
X00366Y0075*
X00365Y0075*
X00365Y0075*
X00365Y00749*
X00365Y00749*
X00365Y00749*
X00364Y00749*
X00364Y00748*
X00364Y00748*
X00364Y00748*
X00364Y00747*
X00364Y00747*
X00364Y00747*
X00364Y00746*
X00364Y00746*
X00364Y00746*
X00364Y00745*
X00364Y00745*
X00364Y00745*
X00365Y00744*
X00365Y00744*
X00365Y00744*
X00365Y00743*
X00365Y00743*
X00366Y00743*
X00366Y00743*
X00366Y00742*
X00366Y00742*
X00367Y00742*
X00367Y00742*
X00367Y00742*
X00368Y00742*
X00368Y00742*
X00368Y00742*
X00369Y00742*
X00369*
X00369Y00742*
X0037Y00742*
X0037Y00742*
X0037Y00742*
X00371Y00742*
X00371Y00742*
X00371Y00742*
X00372Y00742*
X00372Y00743*
X00372Y00743*
X00372Y00743*
X00373Y00743*
X00373Y00744*
X00373Y00744*
X00373Y00744*
X00373Y00745*
X00373Y00745*
X00374Y00745*
X00374Y00746*
X00374Y00746*
X00374Y00746*
X00374Y00747*
X03304Y01349D02*
D01*
X03304Y0135*
X03304Y0135*
X03304Y0135*
X03304Y01351*
X03304Y01351*
X03304Y01351*
X03303Y01352*
X03303Y01352*
X03303Y01352*
X03303Y01352*
X03303Y01353*
X03302Y01353*
X03302Y01353*
X03302Y01353*
X03302Y01354*
X03301Y01354*
X03301Y01354*
X03301Y01354*
X033Y01354*
X033Y01354*
X033Y01354*
X03299Y01354*
X03299*
X03299Y01354*
X03298Y01354*
X03298Y01354*
X03298Y01354*
X03297Y01354*
X03297Y01354*
X03297Y01354*
X03296Y01353*
X03296Y01353*
X03296Y01353*
X03296Y01353*
X03295Y01352*
X03295Y01352*
X03295Y01352*
X03295Y01352*
X03295Y01351*
X03295Y01351*
X03294Y01351*
X03294Y0135*
X03294Y0135*
X03294Y0135*
X03294Y01349*
X03294Y01349*
X03294Y01349*
X03294Y01348*
X03294Y01348*
X03295Y01348*
X03295Y01347*
X03295Y01347*
X03295Y01347*
X03295Y01346*
X03295Y01346*
X03296Y01346*
X03296Y01346*
X03296Y01345*
X03296Y01345*
X03297Y01345*
X03297Y01345*
X03297Y01345*
X03298Y01345*
X03298Y01345*
X03298Y01344*
X03299Y01344*
X03299Y01344*
X03299*
X033Y01344*
X033Y01344*
X033Y01345*
X03301Y01345*
X03301Y01345*
X03301Y01345*
X03302Y01345*
X03302Y01345*
X03302Y01345*
X03302Y01346*
X03303Y01346*
X03303Y01346*
X03303Y01346*
X03303Y01347*
X03303Y01347*
X03304Y01347*
X03304Y01348*
X03304Y01348*
X03304Y01348*
X03304Y01349*
X03304Y01349*
X03304Y01349*
X00724Y0104D02*
D01*
X00724Y0104*
X00724Y0104*
X00724Y01041*
X00724Y01041*
X00724Y01041*
X00724Y01042*
X00723Y01042*
X00723Y01042*
X00723Y01043*
X00723Y01043*
X00723Y01043*
X00722Y01043*
X00722Y01044*
X00722Y01044*
X00722Y01044*
X00721Y01044*
X00721Y01044*
X00721Y01044*
X0072Y01044*
X0072Y01045*
X0072Y01045*
X00719Y01045*
X00719*
X00719Y01045*
X00718Y01045*
X00718Y01044*
X00718Y01044*
X00717Y01044*
X00717Y01044*
X00717Y01044*
X00716Y01044*
X00716Y01044*
X00716Y01043*
X00716Y01043*
X00715Y01043*
X00715Y01043*
X00715Y01042*
X00715Y01042*
X00715Y01042*
X00714Y01041*
X00714Y01041*
X00714Y01041*
X00714Y0104*
X00714Y0104*
X00714Y0104*
X00714Y01039*
X00714Y01039*
X00714Y01039*
X00714Y01038*
X00714Y01038*
X00715Y01038*
X00715Y01037*
X00715Y01037*
X00715Y01037*
X00715Y01037*
X00716Y01036*
X00716Y01036*
X00716Y01036*
X00716Y01036*
X00717Y01035*
X00717Y01035*
X00717Y01035*
X00718Y01035*
X00718Y01035*
X00718Y01035*
X00719Y01035*
X00719Y01035*
X00719*
X0072Y01035*
X0072Y01035*
X0072Y01035*
X00721Y01035*
X00721Y01035*
X00721Y01035*
X00722Y01035*
X00722Y01036*
X00722Y01036*
X00722Y01036*
X00723Y01036*
X00723Y01037*
X00723Y01037*
X00723Y01037*
X00723Y01037*
X00724Y01038*
X00724Y01038*
X00724Y01038*
X00724Y01039*
X00724Y01039*
X00724Y01039*
X00724Y0104*
X03304Y01559D02*
D01*
X03304Y0156*
X03304Y0156*
X03304Y0156*
X03304Y01561*
X03304Y01561*
X03304Y01561*
X03303Y01562*
X03303Y01562*
X03303Y01562*
X03303Y01562*
X03303Y01563*
X03302Y01563*
X03302Y01563*
X03302Y01563*
X03302Y01564*
X03301Y01564*
X03301Y01564*
X03301Y01564*
X033Y01564*
X033Y01564*
X033Y01564*
X03299Y01564*
X03299*
X03299Y01564*
X03298Y01564*
X03298Y01564*
X03298Y01564*
X03297Y01564*
X03297Y01564*
X03297Y01564*
X03296Y01563*
X03296Y01563*
X03296Y01563*
X03296Y01563*
X03295Y01562*
X03295Y01562*
X03295Y01562*
X03295Y01562*
X03295Y01561*
X03295Y01561*
X03294Y01561*
X03294Y0156*
X03294Y0156*
X03294Y0156*
X03294Y01559*
X03294Y01559*
X03294Y01559*
X03294Y01558*
X03294Y01558*
X03295Y01558*
X03295Y01557*
X03295Y01557*
X03295Y01557*
X03295Y01556*
X03295Y01556*
X03296Y01556*
X03296Y01556*
X03296Y01555*
X03296Y01555*
X03297Y01555*
X03297Y01555*
X03297Y01555*
X03298Y01555*
X03298Y01555*
X03298Y01554*
X03299Y01554*
X03299Y01554*
X03299*
X033Y01554*
X033Y01554*
X033Y01555*
X03301Y01555*
X03301Y01555*
X03301Y01555*
X03302Y01555*
X03302Y01555*
X03302Y01555*
X03302Y01556*
X03303Y01556*
X03303Y01556*
X03303Y01556*
X03303Y01557*
X03303Y01557*
X03304Y01557*
X03304Y01558*
X03304Y01558*
X03304Y01558*
X03304Y01559*
X03304Y01559*
X03304Y01559*
Y01124D02*
D01*
X03304Y01125*
X03304Y01125*
X03304Y01125*
X03304Y01126*
X03304Y01126*
X03304Y01126*
X03303Y01127*
X03303Y01127*
X03303Y01127*
X03303Y01127*
X03303Y01128*
X03302Y01128*
X03302Y01128*
X03302Y01128*
X03302Y01129*
X03301Y01129*
X03301Y01129*
X03301Y01129*
X033Y01129*
X033Y01129*
X033Y01129*
X03299Y01129*
X03299*
X03299Y01129*
X03298Y01129*
X03298Y01129*
X03298Y01129*
X03297Y01129*
X03297Y01129*
X03297Y01129*
X03296Y01128*
X03296Y01128*
X03296Y01128*
X03296Y01128*
X03295Y01127*
X03295Y01127*
X03295Y01127*
X03295Y01127*
X03295Y01126*
X03295Y01126*
X03294Y01126*
X03294Y01125*
X03294Y01125*
X03294Y01125*
X03294Y01124*
X03294Y01124*
X03294Y01124*
X03294Y01123*
X03294Y01123*
X03295Y01123*
X03295Y01122*
X03295Y01122*
X03295Y01122*
X03295Y01121*
X03295Y01121*
X03296Y01121*
X03296Y01121*
X03296Y0112*
X03296Y0112*
X03297Y0112*
X03297Y0112*
X03297Y0112*
X03298Y0112*
X03298Y0112*
X03298Y01119*
X03299Y01119*
X03299Y01119*
X03299*
X033Y01119*
X033Y01119*
X033Y0112*
X03301Y0112*
X03301Y0112*
X03301Y0112*
X03302Y0112*
X03302Y0112*
X03302Y0112*
X03302Y01121*
X03303Y01121*
X03303Y01121*
X03303Y01121*
X03303Y01122*
X03303Y01122*
X03304Y01122*
X03304Y01123*
X03304Y01123*
X03304Y01123*
X03304Y01124*
X03304Y01124*
X03304Y01124*
X01632Y00402D02*
D01*
X01632Y00403*
X01632Y00403*
X01632Y00403*
X01632Y00404*
X01632Y00404*
X01632Y00404*
X01632Y00405*
X01631Y00405*
X01631Y00405*
X01631Y00405*
X01631Y00406*
X01631Y00406*
X0163Y00406*
X0163Y00406*
X0163Y00407*
X01629Y00407*
X01629Y00407*
X01629Y00407*
X01629Y00407*
X01628Y00407*
X01628Y00407*
X01627Y00407*
X01627*
X01627Y00407*
X01626Y00407*
X01626Y00407*
X01626Y00407*
X01625Y00407*
X01625Y00407*
X01625Y00407*
X01625Y00406*
X01624Y00406*
X01624Y00406*
X01624Y00406*
X01624Y00405*
X01623Y00405*
X01623Y00405*
X01623Y00405*
X01623Y00404*
X01623Y00404*
X01623Y00404*
X01623Y00403*
X01622Y00403*
X01622Y00403*
X01622Y00402*
X01622Y00402*
X01622Y00402*
X01623Y00401*
X01623Y00401*
X01623Y00401*
X01623Y004*
X01623Y004*
X01623Y004*
X01623Y00399*
X01624Y00399*
X01624Y00399*
X01624Y00399*
X01624Y00398*
X01625Y00398*
X01625Y00398*
X01625Y00398*
X01625Y00398*
X01626Y00398*
X01626Y00397*
X01626Y00397*
X01627Y00397*
X01627Y00397*
X01627*
X01628Y00397*
X01628Y00397*
X01629Y00397*
X01629Y00398*
X01629Y00398*
X01629Y00398*
X0163Y00398*
X0163Y00398*
X0163Y00398*
X01631Y00399*
X01631Y00399*
X01631Y00399*
X01631Y00399*
X01631Y004*
X01632Y004*
X01632Y004*
X01632Y00401*
X01632Y00401*
X01632Y00401*
X01632Y00402*
X01632Y00402*
X01632Y00402*
X00914Y01798D02*
D01*
X00914Y01798*
X00914Y01799*
X00914Y01799*
X00914Y01799*
X00914Y018*
X00914Y018*
X00913Y018*
X00913Y01801*
X00913Y01801*
X00913Y01801*
X00913Y01801*
X00912Y01802*
X00912Y01802*
X00912Y01802*
X00911Y01802*
X00911Y01802*
X00911Y01803*
X00911Y01803*
X0091Y01803*
X0091Y01803*
X0091Y01803*
X00909Y01803*
X00909*
X00908Y01803*
X00908Y01803*
X00908Y01803*
X00907Y01803*
X00907Y01803*
X00907Y01802*
X00907Y01802*
X00906Y01802*
X00906Y01802*
X00906Y01802*
X00905Y01801*
X00905Y01801*
X00905Y01801*
X00905Y01801*
X00905Y018*
X00905Y018*
X00904Y018*
X00904Y01799*
X00904Y01799*
X00904Y01799*
X00904Y01798*
X00904Y01798*
X00904Y01798*
X00904Y01797*
X00904Y01797*
X00904Y01797*
X00904Y01796*
X00905Y01796*
X00905Y01796*
X00905Y01795*
X00905Y01795*
X00905Y01795*
X00905Y01795*
X00906Y01794*
X00906Y01794*
X00906Y01794*
X00907Y01794*
X00907Y01794*
X00907Y01793*
X00907Y01793*
X00908Y01793*
X00908Y01793*
X00908Y01793*
X00909Y01793*
X00909*
X0091Y01793*
X0091Y01793*
X0091Y01793*
X00911Y01793*
X00911Y01793*
X00911Y01794*
X00911Y01794*
X00912Y01794*
X00912Y01794*
X00912Y01794*
X00913Y01795*
X00913Y01795*
X00913Y01795*
X00913Y01795*
X00913Y01796*
X00914Y01796*
X00914Y01796*
X00914Y01797*
X00914Y01797*
X00914Y01797*
X00914Y01798*
X00914Y01798*
X00907Y00545D02*
D01*
X00907Y00545*
X00907Y00545*
X00907Y00546*
X00907Y00546*
X00907Y00546*
X00907Y00547*
X00907Y00547*
X00906Y00547*
X00906Y00547*
X00906Y00548*
X00906Y00548*
X00906Y00548*
X00905Y00548*
X00905Y00549*
X00905Y00549*
X00904Y00549*
X00904Y00549*
X00904Y00549*
X00904Y00549*
X00903Y00549*
X00903Y00549*
X00902Y00549*
X00902*
X00902Y00549*
X00901Y00549*
X00901Y00549*
X00901Y00549*
X009Y00549*
X009Y00549*
X009Y00549*
X009Y00549*
X00899Y00548*
X00899Y00548*
X00899Y00548*
X00899Y00548*
X00898Y00547*
X00898Y00547*
X00898Y00547*
X00898Y00547*
X00898Y00546*
X00898Y00546*
X00898Y00546*
X00897Y00545*
X00897Y00545*
X00897Y00545*
X00897Y00544*
X00897Y00544*
X00898Y00543*
X00898Y00543*
X00898Y00543*
X00898Y00542*
X00898Y00542*
X00898Y00542*
X00898Y00542*
X00899Y00541*
X00899Y00541*
X00899Y00541*
X00899Y00541*
X009Y0054*
X009Y0054*
X009Y0054*
X009Y0054*
X00901Y0054*
X00901Y0054*
X00901Y0054*
X00902Y0054*
X00902Y0054*
X00902*
X00903Y0054*
X00903Y0054*
X00904Y0054*
X00904Y0054*
X00904Y0054*
X00904Y0054*
X00905Y0054*
X00905Y0054*
X00905Y00541*
X00906Y00541*
X00906Y00541*
X00906Y00541*
X00906Y00542*
X00906Y00542*
X00907Y00542*
X00907Y00542*
X00907Y00543*
X00907Y00543*
X00907Y00543*
X00907Y00544*
X00907Y00544*
X00907Y00545*
X02117Y01769D02*
D01*
X02117Y0177*
X02117Y0177*
X02117Y0177*
X02117Y01771*
X02117Y01771*
X02117Y01771*
X02117Y01772*
X02116Y01772*
X02116Y01772*
X02116Y01772*
X02116Y01773*
X02116Y01773*
X02115Y01773*
X02115Y01773*
X02115Y01774*
X02114Y01774*
X02114Y01774*
X02114Y01774*
X02113Y01774*
X02113Y01774*
X02113Y01774*
X02112Y01774*
X02112*
X02112Y01774*
X02111Y01774*
X02111Y01774*
X02111Y01774*
X0211Y01774*
X0211Y01774*
X0211Y01774*
X02109Y01773*
X02109Y01773*
X02109Y01773*
X02109Y01773*
X02108Y01772*
X02108Y01772*
X02108Y01772*
X02108Y01772*
X02108Y01771*
X02108Y01771*
X02108Y01771*
X02107Y0177*
X02107Y0177*
X02107Y0177*
X02107Y01769*
X02107Y01769*
X02107Y01769*
X02107Y01768*
X02108Y01768*
X02108Y01768*
X02108Y01767*
X02108Y01767*
X02108Y01767*
X02108Y01766*
X02108Y01766*
X02109Y01766*
X02109Y01766*
X02109Y01765*
X02109Y01765*
X0211Y01765*
X0211Y01765*
X0211Y01765*
X02111Y01765*
X02111Y01764*
X02111Y01764*
X02112Y01764*
X02112Y01764*
X02112*
X02113Y01764*
X02113Y01764*
X02113Y01764*
X02114Y01765*
X02114Y01765*
X02114Y01765*
X02115Y01765*
X02115Y01765*
X02115Y01765*
X02116Y01766*
X02116Y01766*
X02116Y01766*
X02116Y01766*
X02116Y01767*
X02117Y01767*
X02117Y01767*
X02117Y01768*
X02117Y01768*
X02117Y01768*
X02117Y01769*
X02117Y01769*
X02117Y01769*
X01436Y00132D02*
D01*
X01436Y00132*
X01436Y00132*
X01436Y00133*
X01435Y00133*
X01435Y00133*
X01435Y00134*
X01435Y00134*
X01435Y00134*
X01435Y00135*
X01435Y00135*
X01434Y00135*
X01434Y00135*
X01434Y00136*
X01434Y00136*
X01433Y00136*
X01433Y00136*
X01433Y00136*
X01432Y00136*
X01432Y00136*
X01432Y00137*
X01431Y00137*
X01431Y00137*
X01431*
X0143Y00137*
X0143Y00137*
X0143Y00136*
X01429Y00136*
X01429Y00136*
X01429Y00136*
X01428Y00136*
X01428Y00136*
X01428Y00136*
X01427Y00135*
X01427Y00135*
X01427Y00135*
X01427Y00135*
X01427Y00134*
X01426Y00134*
X01426Y00134*
X01426Y00133*
X01426Y00133*
X01426Y00133*
X01426Y00132*
X01426Y00132*
X01426Y00132*
X01426Y00131*
X01426Y00131*
X01426Y00131*
X01426Y0013*
X01426Y0013*
X01426Y0013*
X01426Y00129*
X01427Y00129*
X01427Y00129*
X01427Y00128*
X01427Y00128*
X01427Y00128*
X01428Y00128*
X01428Y00128*
X01428Y00127*
X01429Y00127*
X01429Y00127*
X01429Y00127*
X0143Y00127*
X0143Y00127*
X0143Y00127*
X01431Y00127*
X01431*
X01431Y00127*
X01432Y00127*
X01432Y00127*
X01432Y00127*
X01433Y00127*
X01433Y00127*
X01433Y00127*
X01434Y00128*
X01434Y00128*
X01434Y00128*
X01434Y00128*
X01435Y00128*
X01435Y00129*
X01435Y00129*
X01435Y00129*
X01435Y0013*
X01435Y0013*
X01435Y0013*
X01436Y00131*
X01436Y00131*
X01436Y00131*
X01436Y00132*
X02406Y00664D02*
D01*
X02406Y00664*
X02406Y00664*
X02406Y00665*
X02406Y00665*
X02406Y00665*
X02405Y00666*
X02405Y00666*
X02405Y00666*
X02405Y00666*
X02405Y00667*
X02404Y00667*
X02404Y00667*
X02404Y00667*
X02404Y00668*
X02403Y00668*
X02403Y00668*
X02403Y00668*
X02402Y00668*
X02402Y00668*
X02402Y00668*
X02401Y00668*
X02401Y00668*
X02401*
X024Y00668*
X024Y00668*
X024Y00668*
X02399Y00668*
X02399Y00668*
X02399Y00668*
X02398Y00668*
X02398Y00668*
X02398Y00667*
X02398Y00667*
X02397Y00667*
X02397Y00667*
X02397Y00666*
X02397Y00666*
X02397Y00666*
X02396Y00666*
X02396Y00665*
X02396Y00665*
X02396Y00665*
X02396Y00664*
X02396Y00664*
X02396Y00664*
X02396Y00663*
X02396Y00663*
X02396Y00663*
X02396Y00662*
X02396Y00662*
X02396Y00662*
X02397Y00661*
X02397Y00661*
X02397Y00661*
X02397Y0066*
X02397Y0066*
X02398Y0066*
X02398Y0066*
X02398Y00659*
X02398Y00659*
X02399Y00659*
X02399Y00659*
X02399Y00659*
X024Y00659*
X024Y00659*
X024Y00659*
X02401Y00659*
X02401*
X02401Y00659*
X02402Y00659*
X02402Y00659*
X02402Y00659*
X02403Y00659*
X02403Y00659*
X02403Y00659*
X02404Y00659*
X02404Y0066*
X02404Y0066*
X02404Y0066*
X02405Y0066*
X02405Y00661*
X02405Y00661*
X02405Y00661*
X02405Y00662*
X02406Y00662*
X02406Y00662*
X02406Y00663*
X02406Y00663*
X02406Y00663*
X02406Y00664*
G54D11*
X00313Y01498D02*
D01*
X00313Y01499*
X00313Y015*
X00313Y015*
X00312Y01501*
X00312Y01502*
X00312Y01503*
X00312Y01503*
X00311Y01504*
X00311Y01505*
X0031Y01506*
X0031Y01506*
X00309Y01507*
X00308Y01507*
X00308Y01508*
X00307Y01508*
X00306Y01509*
X00306Y01509*
X00305Y01509*
X00304Y01509*
X00303Y0151*
X00302Y0151*
X00302Y0151*
X00301*
X003Y0151*
X00299Y0151*
X00298Y01509*
X00297Y01509*
X00297Y01509*
X00296Y01509*
X00295Y01508*
X00295Y01508*
X00294Y01507*
X00293Y01507*
X00293Y01506*
X00292Y01506*
X00292Y01505*
X00291Y01504*
X00291Y01503*
X0029Y01503*
X0029Y01502*
X0029Y01501*
X0029Y015*
X00289Y015*
X00289Y01499*
X00289Y01498*
X00289Y01497*
X00289Y01496*
X0029Y01495*
X0029Y01495*
X0029Y01494*
X0029Y01493*
X00291Y01492*
X00291Y01492*
X00292Y01491*
X00292Y0149*
X00293Y0149*
X00293Y01489*
X00294Y01489*
X00295Y01488*
X00295Y01488*
X00296Y01487*
X00297Y01487*
X00297Y01487*
X00298Y01486*
X00299Y01486*
X003Y01486*
X00301Y01486*
X00302*
X00302Y01486*
X00303Y01486*
X00304Y01486*
X00305Y01487*
X00306Y01487*
X00306Y01487*
X00307Y01488*
X00308Y01488*
X00308Y01489*
X00309Y01489*
X0031Y0149*
X0031Y0149*
X00311Y01491*
X00311Y01492*
X00312Y01492*
X00312Y01493*
X00312Y01494*
X00312Y01495*
X00313Y01495*
X00313Y01496*
X00313Y01497*
X00313Y01498*
X00962Y0063D02*
D01*
X00962Y0063*
X00962Y00631*
X00962Y00632*
X00961Y00633*
X00961Y00634*
X00961Y00634*
X0096Y00635*
X0096Y00636*
X0096Y00636*
X00959Y00637*
X00958Y00638*
X00958Y00638*
X00957Y00639*
X00957Y00639*
X00956Y0064*
X00955Y0064*
X00954Y0064*
X00954Y00641*
X00953Y00641*
X00952Y00641*
X00951Y00641*
X0095Y00641*
X0095*
X00949Y00641*
X00948Y00641*
X00947Y00641*
X00946Y00641*
X00946Y0064*
X00945Y0064*
X00944Y0064*
X00943Y00639*
X00943Y00639*
X00942Y00638*
X00941Y00638*
X00941Y00637*
X0094Y00636*
X0094Y00636*
X0094Y00635*
X00939Y00634*
X00939Y00634*
X00939Y00633*
X00938Y00632*
X00938Y00631*
X00938Y0063*
X00938Y0063*
X00938Y00629*
X00938Y00628*
X00938Y00627*
X00939Y00626*
X00939Y00626*
X00939Y00625*
X0094Y00624*
X0094Y00623*
X0094Y00623*
X00941Y00622*
X00941Y00621*
X00942Y00621*
X00943Y0062*
X00943Y0062*
X00944Y00619*
X00945Y00619*
X00946Y00619*
X00946Y00618*
X00947Y00618*
X00948Y00618*
X00949Y00618*
X0095Y00618*
X0095*
X00951Y00618*
X00952Y00618*
X00953Y00618*
X00954Y00618*
X00954Y00619*
X00955Y00619*
X00956Y00619*
X00957Y0062*
X00957Y0062*
X00958Y00621*
X00958Y00621*
X00959Y00622*
X0096Y00623*
X0096Y00623*
X0096Y00624*
X00961Y00625*
X00961Y00626*
X00961Y00626*
X00962Y00627*
X00962Y00628*
X00962Y00629*
X00962Y0063*
G54D12*
X03476Y00995D02*
D01*
X03476Y00995*
X03476Y00995*
X03475Y00996*
X03475Y00996*
X03475Y00997*
X03475Y00997*
X03475Y00998*
X03474Y00998*
X03474Y00999*
X03474Y00999*
X03474Y00999*
X03473Y01*
X03473Y01*
X03472Y01*
X03472Y01001*
X03472Y01001*
X03471Y01001*
X03471Y01001*
X0347Y01001*
X0347Y01001*
X03469Y01002*
X03469Y01002*
X03468*
X03468Y01002*
X03467Y01001*
X03467Y01001*
X03466Y01001*
X03466Y01001*
X03465Y01001*
X03465Y01001*
X03465Y01*
X03464Y01*
X03464Y01*
X03463Y00999*
X03463Y00999*
X03463Y00999*
X03463Y00998*
X03462Y00998*
X03462Y00997*
X03462Y00997*
X03462Y00996*
X03462Y00996*
X03461Y00995*
X03461Y00995*
X03461Y00995*
X03461Y00994*
X03461Y00994*
X03462Y00993*
X03462Y00993*
X03462Y00992*
X03462Y00992*
X03462Y00991*
X03463Y00991*
X03463Y0099*
X03463Y0099*
X03463Y0099*
X03464Y00989*
X03464Y00989*
X03465Y00989*
X03465Y00988*
X03465Y00988*
X03466Y00988*
X03466Y00988*
X03467Y00988*
X03467Y00988*
X03468Y00987*
X03468Y00987*
X03469*
X03469Y00987*
X0347Y00988*
X0347Y00988*
X03471Y00988*
X03471Y00988*
X03472Y00988*
X03472Y00988*
X03472Y00989*
X03473Y00989*
X03473Y00989*
X03474Y0099*
X03474Y0099*
X03474Y0099*
X03474Y00991*
X03475Y00991*
X03475Y00992*
X03475Y00992*
X03475Y00993*
X03475Y00993*
X03476Y00994*
X03476Y00994*
X03476Y00995*
X03348Y00865D02*
D01*
X03348Y00865*
X03348Y00866*
X03347Y00867*
X03347Y00868*
X03347Y00869*
X03346Y0087*
X03346Y00871*
X03345Y00872*
X03345Y00873*
X03344Y00874*
X03344Y00874*
X03343Y00875*
X03342Y00876*
X03341Y00876*
X03341Y00877*
X0334Y00877*
X03339Y00878*
X03338Y00878*
X03337Y00878*
X03336Y00878*
X03335Y00879*
X03334Y00879*
X03333*
X03332Y00879*
X03331Y00878*
X0333Y00878*
X03329Y00878*
X03328Y00878*
X03327Y00877*
X03326Y00877*
X03326Y00876*
X03325Y00876*
X03324Y00875*
X03323Y00874*
X03323Y00874*
X03322Y00873*
X03322Y00872*
X03321Y00871*
X03321Y0087*
X0332Y00869*
X0332Y00868*
X0332Y00867*
X03319Y00866*
X03319Y00865*
X03319Y00865*
X03319Y00864*
X03319Y00863*
X0332Y00862*
X0332Y00861*
X0332Y0086*
X03321Y00859*
X03321Y00858*
X03322Y00857*
X03322Y00856*
X03323Y00855*
X03323Y00855*
X03324Y00854*
X03325Y00853*
X03326Y00853*
X03326Y00852*
X03327Y00852*
X03328Y00851*
X03329Y00851*
X0333Y00851*
X03331Y00851*
X03332Y0085*
X03333Y0085*
X03334*
X03335Y0085*
X03336Y00851*
X03337Y00851*
X03338Y00851*
X03339Y00851*
X0334Y00852*
X03341Y00852*
X03341Y00853*
X03342Y00853*
X03343Y00854*
X03344Y00855*
X03344Y00855*
X03345Y00856*
X03345Y00857*
X03346Y00858*
X03346Y00859*
X03347Y0086*
X03347Y00861*
X03347Y00862*
X03348Y00863*
X03348Y00864*
X03348Y00865*
X01033Y0016D02*
D01*
X01033Y0016*
X01033Y00161*
X01032Y00162*
X01032Y00163*
X01032Y00164*
X01031Y00165*
X01031Y00166*
X0103Y00167*
X0103Y00168*
X01029Y00169*
X01029Y00169*
X01028Y0017*
X01027Y00171*
X01026Y00171*
X01026Y00172*
X01025Y00172*
X01024Y00173*
X01023Y00173*
X01022Y00173*
X01021Y00173*
X0102Y00174*
X01019Y00174*
X01018*
X01017Y00174*
X01016Y00173*
X01015Y00173*
X01014Y00173*
X01013Y00173*
X01012Y00172*
X01011Y00172*
X01011Y00171*
X0101Y00171*
X01009Y0017*
X01008Y00169*
X01008Y00169*
X01007Y00168*
X01007Y00167*
X01006Y00166*
X01006Y00165*
X01005Y00164*
X01005Y00163*
X01005Y00162*
X01004Y00161*
X01004Y0016*
X01004Y0016*
X01004Y00159*
X01004Y00158*
X01005Y00157*
X01005Y00156*
X01005Y00155*
X01006Y00154*
X01006Y00153*
X01007Y00152*
X01007Y00151*
X01008Y0015*
X01008Y0015*
X01009Y00149*
X0101Y00148*
X01011Y00148*
X01011Y00147*
X01012Y00147*
X01013Y00146*
X01014Y00146*
X01015Y00146*
X01016Y00146*
X01017Y00145*
X01018Y00145*
X01019*
X0102Y00145*
X01021Y00146*
X01022Y00146*
X01023Y00146*
X01024Y00146*
X01025Y00147*
X01026Y00147*
X01026Y00148*
X01027Y00148*
X01028Y00149*
X01029Y0015*
X01029Y0015*
X0103Y00151*
X0103Y00152*
X01031Y00153*
X01031Y00154*
X01032Y00155*
X01032Y00156*
X01032Y00157*
X01033Y00158*
X01033Y00159*
X01033Y0016*
X02194Y0028D02*
D01*
X02193Y0028*
X02193Y0028*
X02193Y00281*
X02193Y00281*
X02193Y00281*
X02193Y00282*
X02193Y00282*
X02193Y00282*
X02193Y00282*
X02192Y00283*
X02192Y00283*
X02192Y00283*
X02192Y00283*
X02191Y00284*
X02191Y00284*
X02191Y00284*
X0219Y00284*
X0219Y00284*
X0219Y00284*
X02189Y00284*
X02189Y00284*
X02189Y00284*
X02188*
X02188Y00284*
X02188Y00284*
X02187Y00284*
X02187Y00284*
X02187Y00284*
X02186Y00284*
X02186Y00284*
X02186Y00284*
X02185Y00283*
X02185Y00283*
X02185Y00283*
X02185Y00283*
X02184Y00282*
X02184Y00282*
X02184Y00282*
X02184Y00282*
X02184Y00281*
X02184Y00281*
X02184Y00281*
X02184Y0028*
X02184Y0028*
X02184Y0028*
X02184Y00279*
X02184Y00279*
X02184Y00278*
X02184Y00278*
X02184Y00278*
X02184Y00277*
X02184Y00277*
X02184Y00277*
X02184Y00277*
X02185Y00276*
X02185Y00276*
X02185Y00276*
X02185Y00276*
X02186Y00275*
X02186Y00275*
X02186Y00275*
X02187Y00275*
X02187Y00275*
X02187Y00275*
X02188Y00275*
X02188Y00275*
X02188Y00275*
X02189*
X02189Y00275*
X02189Y00275*
X0219Y00275*
X0219Y00275*
X0219Y00275*
X02191Y00275*
X02191Y00275*
X02191Y00275*
X02192Y00276*
X02192Y00276*
X02192Y00276*
X02192Y00276*
X02193Y00277*
X02193Y00277*
X02193Y00277*
X02193Y00277*
X02193Y00278*
X02193Y00278*
X02193Y00278*
X02193Y00279*
X02193Y00279*
X02194Y0028*
X03476Y0122D02*
D01*
X03476Y0122*
X03476Y0122*
X03475Y01221*
X03475Y01221*
X03475Y01222*
X03475Y01222*
X03475Y01223*
X03474Y01223*
X03474Y01224*
X03474Y01224*
X03474Y01224*
X03473Y01225*
X03473Y01225*
X03472Y01225*
X03472Y01226*
X03472Y01226*
X03471Y01226*
X03471Y01226*
X0347Y01226*
X0347Y01226*
X03469Y01227*
X03469Y01227*
X03468*
X03468Y01227*
X03467Y01226*
X03467Y01226*
X03466Y01226*
X03466Y01226*
X03465Y01226*
X03465Y01226*
X03465Y01225*
X03464Y01225*
X03464Y01225*
X03463Y01224*
X03463Y01224*
X03463Y01224*
X03463Y01223*
X03462Y01223*
X03462Y01222*
X03462Y01222*
X03462Y01221*
X03462Y01221*
X03461Y0122*
X03461Y0122*
X03461Y0122*
X03461Y01219*
X03461Y01219*
X03462Y01218*
X03462Y01218*
X03462Y01217*
X03462Y01217*
X03462Y01216*
X03463Y01216*
X03463Y01215*
X03463Y01215*
X03463Y01215*
X03464Y01214*
X03464Y01214*
X03465Y01214*
X03465Y01213*
X03465Y01213*
X03466Y01213*
X03466Y01213*
X03467Y01213*
X03467Y01213*
X03468Y01212*
X03468Y01212*
X03469*
X03469Y01212*
X0347Y01213*
X0347Y01213*
X03471Y01213*
X03471Y01213*
X03472Y01213*
X03472Y01213*
X03472Y01214*
X03473Y01214*
X03473Y01214*
X03474Y01215*
X03474Y01215*
X03474Y01215*
X03474Y01216*
X03475Y01216*
X03475Y01217*
X03475Y01217*
X03475Y01218*
X03475Y01218*
X03476Y01219*
X03476Y01219*
X03476Y0122*
X03471Y01425D02*
D01*
X03471Y01425*
X03471Y01425*
X0347Y01426*
X0347Y01426*
X0347Y01427*
X0347Y01427*
X0347Y01428*
X03469Y01428*
X03469Y01429*
X03469Y01429*
X03469Y01429*
X03468Y0143*
X03468Y0143*
X03467Y0143*
X03467Y01431*
X03467Y01431*
X03466Y01431*
X03466Y01431*
X03465Y01431*
X03465Y01431*
X03464Y01432*
X03464Y01432*
X03463*
X03463Y01432*
X03462Y01431*
X03462Y01431*
X03461Y01431*
X03461Y01431*
X0346Y01431*
X0346Y01431*
X0346Y0143*
X03459Y0143*
X03459Y0143*
X03458Y01429*
X03458Y01429*
X03458Y01429*
X03458Y01428*
X03457Y01428*
X03457Y01427*
X03457Y01427*
X03457Y01426*
X03457Y01426*
X03456Y01425*
X03456Y01425*
X03456Y01425*
X03456Y01424*
X03456Y01424*
X03457Y01423*
X03457Y01423*
X03457Y01422*
X03457Y01422*
X03457Y01421*
X03458Y01421*
X03458Y0142*
X03458Y0142*
X03458Y0142*
X03459Y01419*
X03459Y01419*
X0346Y01419*
X0346Y01418*
X0346Y01418*
X03461Y01418*
X03461Y01418*
X03462Y01418*
X03462Y01418*
X03463Y01417*
X03463Y01417*
X03464*
X03464Y01417*
X03465Y01418*
X03465Y01418*
X03466Y01418*
X03466Y01418*
X03467Y01418*
X03467Y01418*
X03467Y01419*
X03468Y01419*
X03468Y01419*
X03469Y0142*
X03469Y0142*
X03469Y0142*
X03469Y01421*
X0347Y01421*
X0347Y01422*
X0347Y01422*
X0347Y01423*
X0347Y01423*
X03471Y01424*
X03471Y01424*
X03471Y01425*
X01808Y01665D02*
D01*
X01808Y01665*
X01808Y01666*
X01807Y01667*
X01807Y01668*
X01807Y01669*
X01806Y0167*
X01806Y01671*
X01805Y01672*
X01805Y01673*
X01804Y01674*
X01804Y01674*
X01803Y01675*
X01802Y01676*
X01801Y01676*
X01801Y01677*
X018Y01677*
X01799Y01678*
X01798Y01678*
X01797Y01678*
X01796Y01678*
X01795Y01679*
X01794Y01679*
X01793*
X01792Y01679*
X01791Y01678*
X0179Y01678*
X01789Y01678*
X01788Y01678*
X01787Y01677*
X01786Y01677*
X01786Y01676*
X01785Y01676*
X01784Y01675*
X01783Y01674*
X01783Y01674*
X01782Y01673*
X01782Y01672*
X01781Y01671*
X01781Y0167*
X0178Y01669*
X0178Y01668*
X0178Y01667*
X01779Y01666*
X01779Y01665*
X01779Y01665*
X01779Y01664*
X01779Y01663*
X0178Y01662*
X0178Y01661*
X0178Y0166*
X01781Y01659*
X01781Y01658*
X01782Y01657*
X01782Y01656*
X01783Y01655*
X01783Y01655*
X01784Y01654*
X01785Y01653*
X01786Y01653*
X01786Y01652*
X01787Y01652*
X01788Y01651*
X01789Y01651*
X0179Y01651*
X01791Y01651*
X01792Y0165*
X01793Y0165*
X01794*
X01795Y0165*
X01796Y01651*
X01797Y01651*
X01798Y01651*
X01799Y01651*
X018Y01652*
X01801Y01652*
X01801Y01653*
X01802Y01653*
X01803Y01654*
X01804Y01655*
X01804Y01655*
X01805Y01656*
X01805Y01657*
X01806Y01658*
X01806Y01659*
X01807Y0166*
X01807Y01661*
X01807Y01662*
X01808Y01663*
X01808Y01664*
X01808Y01665*
X03429Y01439D02*
X03457D01*
X03443Y01453D02*
X03444Y01425D01*
X03429Y01236D02*
X03457D01*
X03443Y01251D02*
X03444Y01222D01*
X03429Y01009D02*
X03457D01*
X03443Y01023D02*
X03444Y00995D01*
X01732Y00122D02*
X01732Y00093D01*
X01718Y00108D02*
X01745D01*
X00817Y011D02*
X00844D01*
X00831Y01115D02*
X00831Y01086D01*
X00531Y01046D02*
X00564D01*
X00547Y01063D02*
X00548Y01031D01*
X00531Y01662D02*
X00564D01*
X00547Y01679D02*
X00548Y01647D01*
X00479Y01455D02*
X0048Y01423D01*
X00463Y01438D02*
X00496D01*
X0138Y01282D02*
X0175D01*
X01785Y01247*
X01512Y02106D02*
Y02214D01*
Y02106D02*
X01818D01*
Y02214*
X01512D02*
X01818D01*
X03434Y01615D02*
Y01655D01*
X03519Y0222D02*
X03589Y0215D01*
X03304Y0184D02*
X03384Y0176D01*
X03304Y0184D02*
Y0221D01*
X03384Y0176D02*
X03414D01*
X00804Y01435D02*
X01309D01*
X01294Y01095D02*
X01469D01*
X01309Y01435D02*
X01364Y0138D01*
Y01165D02*
Y0138D01*
X01294Y01095D02*
X01364Y01165D01*
X00869Y01095D02*
X01329D01*
X00804Y0116D02*
X00869Y01095D01*
X00804Y0116D02*
Y01435D01*
X01239Y0149D02*
X01399D01*
X00729Y01625D02*
Y0186D01*
Y01625D02*
X00864Y0149D01*
X01239*
X01324Y01575*
Y01805*
X01269Y0186D02*
X01324Y01805D01*
X00729Y0186D02*
X01269D01*
X03209Y01874D02*
X03211Y01872D01*
X03209Y01874D02*
Y02125D01*
X03474Y0176D02*
Y02215D01*
X02744Y01695D02*
Y017D01*
X02764Y0172*
X02859*
X02909Y0177*
X03109Y0186D02*
X03244D01*
X03249Y01855*
Y0162D02*
Y01855D01*
X03209Y0158D02*
X03249Y0162D01*
X03159Y0158D02*
X03209D01*
X03109Y0153D02*
X03159Y0158D01*
X02759Y0146D02*
X02909D01*
X02744Y01475D02*
X02759Y0146D01*
X02744Y01475D02*
Y01695D01*
X02749*
X03294Y0187D02*
X03299Y01875D01*
X03169Y0187D02*
X03294D01*
X03109Y0193D02*
X03169Y0187D01*
X03109Y0193D02*
Y02115D01*
X03119Y02125*
X03304*
X02039Y01575D02*
X02052Y01589D01*
X02009Y01575D02*
X02039D01*
X01984Y0177D02*
X02009Y01745D01*
Y01705D02*
Y01745D01*
X02219Y0118D02*
X02354D01*
X01084Y0191D02*
X01434D01*
Y02585*
X01084D02*
X01434D01*
X01084Y0191D02*
Y02585D01*
X02004Y0191D02*
X02354D01*
Y02585*
X02004D02*
X02354D01*
X02004Y0191D02*
Y02585D01*
X00499Y019D02*
X00849D01*
Y02575*
X00499D02*
X00849D01*
X00499Y019D02*
Y02575D01*
X03474Y0102D02*
Y0111D01*
X03524*
Y01D02*
Y0111D01*
X03474Y01D02*
Y0102D01*
Y01D02*
X03524D01*
X01813Y00157D02*
X01893D01*
X01813Y00102D02*
Y00157D01*
X02303D02*
X02328D01*
Y00102D02*
Y00157D01*
X02038D02*
X02158D01*
X01813Y00002D02*
X02323D01*
X00684Y0023D02*
X00724Y0027D01*
X00624Y0023D02*
X00684D01*
X00744D02*
X00804D01*
Y0015D02*
Y0031D01*
X00624Y0015D02*
Y0031D01*
X00539Y00405D02*
X00889D01*
X00539Y00055D02*
X00889D01*
Y00405*
X00539Y00055D02*
Y00405D01*
X0218Y00378D02*
X0229D01*
X0218Y00293D02*
Y00378D01*
X0229Y00293D02*
Y00378D01*
X0218Y00293D02*
X0229D01*
X03474Y01225D02*
X03524D01*
X03474D02*
Y01245D01*
X03524Y01225D02*
Y01335D01*
X03474D02*
X03524D01*
X03474Y01245D02*
Y01335D01*
X03469Y0143D02*
X03519D01*
X03469D02*
Y0145D01*
X03519Y0143D02*
Y0154D01*
X03469D02*
X03519D01*
X03469Y0145D02*
Y0154D01*
X03589Y0176D02*
Y0215D01*
X03414Y0176D02*
X03589D01*
X03304Y0221D02*
X03314Y0222D01*
X03519*
X02909Y0177D02*
Y01785D01*
X01004Y00415D02*
X01084D01*
X01104Y00035D02*
X01184D01*
X01449Y01895D02*
X01509D01*
X01529Y01875*
Y01655D02*
Y01875D01*
Y01655D02*
X01549Y01635D01*
X00141Y01756D02*
Y01706D01*
X00151Y01696*
X0017*
X0018Y01706*
Y01756*
X002Y01696D02*
X0022D01*
X0021*
Y01756*
X002Y01746*
X0025D02*
X0026Y01756D01*
X0028*
X0029Y01746*
Y01736*
X0028Y01726*
X0027*
X0028*
X0029Y01716*
Y01706*
X0028Y01696*
X0026*
X0025Y01706*
X-00014Y01372D02*
X-00034D01*
X-00024*
Y01323*
X-00034Y01313*
X-00044*
X-00054Y01323*
X00045Y01372D02*
X00025Y01362D01*
X00005Y01342*
Y01323*
X00015Y01313*
X00035*
X00045Y01323*
Y01332*
X00035Y01342*
X00005*
X01733Y01079D02*
X01728Y01084D01*
X01719*
X01714Y01079*
Y0106*
X01719Y01055*
X01728*
X01733Y0106*
X01743Y01079D02*
X01748Y01084D01*
X01758*
X01763Y01079*
Y01074*
X01758Y0107*
X01753*
X01758*
X01763Y01065*
Y0106*
X01758Y01055*
X01748*
X01743Y0106*
X01773D02*
X01778Y01055D01*
X01788*
X01793Y0106*
Y01079*
X01788Y01084*
X01778*
X01773Y01079*
Y01074*
X01778Y0107*
X01793*
G54D13*
X03386Y0089D02*
D01*
X03386Y00889*
X03386Y00888*
X03386Y00887*
X03386Y00886*
X03387Y00885*
X03387Y00884*
X03387Y00884*
X03388Y00883*
X03388Y00882*
X03389Y00881*
X0339Y00881*
X0339Y0088*
X03391Y0088*
X03392Y00879*
X03392Y00879*
X03393Y00878*
X03394Y00878*
X03395Y00878*
X03395Y00877*
X03396Y00877*
X03397Y00877*
X03398Y00877*
X03399*
X034Y00877*
X03401Y00877*
X03402Y00877*
X03402Y00878*
X03403Y00878*
X03404Y00878*
X03405Y00879*
X03405Y00879*
X03406Y0088*
X03407Y0088*
X03407Y00881*
X03408Y00881*
X03409Y00882*
X03409Y00883*
X0341Y00884*
X0341Y00884*
X0341Y00885*
X03411Y00886*
X03411Y00887*
X03411Y00888*
X03411Y00889*
X03411Y0089*
X00994Y00212D02*
D01*
X00994Y00212*
X00995Y00212*
X00996Y00212*
X00997Y00212*
X00998Y00213*
X00999Y00213*
X00999Y00213*
X01Y00214*
X01001Y00214*
X01002Y00215*
X01002Y00216*
X01003Y00216*
X01003Y00217*
X01004Y00218*
X01004Y00218*
X01005Y00219*
X01005Y0022*
X01005Y00221*
X01006Y00221*
X01006Y00222*
X01006Y00223*
X01006Y00224*
Y00225*
X01006Y00226*
X01006Y00227*
X01006Y00228*
X01005Y00228*
X01005Y00229*
X01005Y0023*
X01004Y00231*
X01004Y00231*
X01003Y00232*
X01003Y00233*
X01002Y00233*
X01002Y00234*
X01001Y00235*
X01Y00235*
X00999Y00236*
X00999Y00236*
X00998Y00236*
X00997Y00237*
X00996Y00237*
X00995Y00237*
X00994Y00237*
X00994Y00237*
X01741Y0164D02*
D01*
X01741Y0164*
X01741Y01641*
X01741Y01642*
X01741Y01643*
X0174Y01644*
X0174Y01645*
X0174Y01645*
X01739Y01646*
X01739Y01647*
X01738Y01648*
X01737Y01648*
X01737Y01649*
X01736Y01649*
X01735Y0165*
X01735Y0165*
X01734Y01651*
X01733Y01651*
X01732Y01651*
X01732Y01652*
X01731Y01652*
X0173Y01652*
X01729Y01652*
X01728*
X01727Y01652*
X01726Y01652*
X01725Y01652*
X01725Y01651*
X01724Y01651*
X01723Y01651*
X01722Y0165*
X01722Y0165*
X01721Y01649*
X0172Y01649*
X0172Y01648*
X01719Y01648*
X01718Y01647*
X01718Y01646*
X01717Y01645*
X01717Y01645*
X01717Y01644*
X01716Y01643*
X01716Y01642*
X01716Y01641*
X01716Y0164*
X01716Y0164*
X00911Y0067D02*
D01*
X00912Y0067*
X00914Y0067*
X00916Y0067*
X00917Y0067*
X00919Y00671*
X00921Y00672*
X00922Y00672*
X00924Y00673*
X00925Y00674*
X00927Y00675*
X00928Y00677*
X00929Y00678*
X0093Y00679*
X00931Y00681*
X00932Y00682*
X00933Y00684*
X00934Y00685*
X00934Y00687*
X00935Y00688*
X00935Y0069*
X00935Y00692*
X00936Y00694*
Y00695*
X00935Y00697*
X00935Y00699*
X00935Y00701*
X00934Y00702*
X00934Y00704*
X00933Y00705*
X00932Y00707*
X00931Y00708*
X0093Y0071*
X00929Y00711*
X00928Y00712*
X00927Y00714*
X00925Y00715*
X00924Y00716*
X00922Y00717*
X00921Y00717*
X00919Y00718*
X00917Y00719*
X00916Y00719*
X00914Y00719*
X00912Y00719*
X00911Y0072*
X00712Y01325D02*
X00714D01*
X00533D02*
X00535D01*
X00533D02*
Y01624D01*
X00714Y01325D02*
Y01624D01*
X00533D02*
X00535D01*
X00712D02*
X00714D01*
X00533Y01534D02*
X00714D01*
X0034Y01459D02*
Y01655D01*
X00215Y01459D02*
Y01655D01*
Y01459D02*
X0034D01*
X00215Y01655D02*
X0034D01*
X-00058Y00638D02*
X0003D01*
X0013D02*
X00224D01*
X00315Y00681D02*
Y00725D01*
Y01123D02*
Y01186D01*
X0013Y01229D02*
X00224D01*
X-00058D02*
X0003D01*
X-00058Y00638D02*
Y01229D01*
X03327Y01334D02*
X03366D01*
Y01306D02*
Y01334D01*
X03327Y01215D02*
X03366D01*
Y01243*
X00724Y01143D02*
X00775D01*
X00642D02*
Y01145D01*
X00724Y01076D02*
X00775D01*
X00642Y01074D02*
Y01076D01*
Y01145D02*
X00775D01*
X00642Y01074D02*
X00775D01*
X01639Y00103D02*
X0169D01*
X01557D02*
Y00105D01*
X01639Y00036D02*
X0169D01*
X01557Y00034D02*
Y00036D01*
Y00105D02*
X0169D01*
X01557Y00034D02*
X0169D01*
X00538Y00924D02*
X00719D01*
X00717Y01014D02*
X00719D01*
X00538D02*
X0054D01*
X00719Y00715D02*
Y01014D01*
X00538Y00715D02*
Y01014D01*
Y00715D02*
X0054D01*
X00717D02*
X00719D01*
X03306Y0069D02*
Y0089D01*
Y0069D02*
X03491D01*
Y0089*
X03411D02*
X03491D01*
X03306D02*
X03386D01*
X00994Y00132D02*
X01194D01*
Y00317*
X00994D02*
X01194D01*
X00994Y00237D02*
Y00317D01*
Y00132D02*
Y00212D01*
X03366Y01425D02*
Y01453D01*
X03327Y01425D02*
X03366D01*
Y01516D02*
Y01544D01*
X03327D02*
X03366D01*
Y0099D02*
Y01018D01*
X03327Y0099D02*
X03366D01*
Y01081D02*
Y01109D01*
X03327D02*
X03366D01*
X01402Y00714D02*
Y00845D01*
X01605Y00714D02*
Y00845D01*
X01741Y0164D02*
X01821D01*
X01636D02*
X01716D01*
X01636D02*
Y0184D01*
X01821*
Y0164D02*
Y0184D01*
X02803Y02065D02*
X02834D01*
X02803Y02164D02*
X02834D01*
X01778Y00448D02*
Y00451D01*
X01629Y00448D02*
Y00451D01*
X00968Y01788D02*
X01039D01*
Y01591D02*
Y01788D01*
X00968Y01591D02*
Y01788D01*
Y01591D02*
X01039D01*
X01044Y01301D02*
X0106D01*
Y013D02*
Y01301D01*
X01044Y01179D02*
X0106D01*
Y01179*
X00938Y01301D02*
X00954D01*
X00938Y013D02*
Y01301D01*
Y01179D02*
X00954D01*
X00938D02*
Y01179D01*
X01296Y0059D02*
Y00799D01*
X00911D02*
X01296D01*
X00911Y0059D02*
X01296D01*
X00911Y0072D02*
Y00799D01*
Y0059D02*
Y0067D01*
X02429Y01758D02*
Y01775D01*
X02412D02*
X02429D01*
X02412Y01484D02*
X02429D01*
Y01501*
X02138Y01775D02*
X02155D01*
X02138Y01758D02*
Y01775D01*
Y01484D02*
X02155D01*
X02138D02*
Y01501D01*
X0137Y00264D02*
X01397D01*
Y00145D02*
Y00264D01*
X0137Y00145D02*
Y00264D01*
Y00145D02*
X01397D01*
X02375Y00658D02*
Y01051D01*
X02336Y00658D02*
X02375Y00697D01*
X01982Y01051D02*
X02375D01*
X01982Y00658D02*
X02375D01*
X01982D02*
Y01051D01*
G54D14*
X01388Y00714D02*
D01*
X01388Y00714*
X01388Y00714*
X01388Y00714*
X01388Y00714*
X01388Y00714*
X01388Y00714*
X01388Y00714*
X01388Y00715*
X01388Y00715*
X01388Y00715*
X01388Y00715*
X01388Y00715*
X01388Y00715*
X01387Y00715*
X01387Y00715*
X01387Y00715*
X01387Y00715*
X01387Y00715*
X01387Y00715*
X01387Y00715*
X01387Y00716*
X01386Y00716*
X01386*
X01386Y00716*
X01386Y00715*
X01386Y00715*
X01386Y00715*
X01386Y00715*
X01386Y00715*
X01385Y00715*
X01385Y00715*
X01385Y00715*
X01385Y00715*
X01385Y00715*
X01385Y00715*
X01385Y00715*
X01385Y00715*
X01385Y00714*
X01385Y00714*
X01385Y00714*
X01384Y00714*
X01384Y00714*
X01384Y00714*
X01384Y00714*
X01384Y00714*
X01384Y00713*
X01384Y00713*
X01384Y00713*
X01384Y00713*
X01385Y00713*
X01385Y00713*
X01385Y00713*
X01385Y00713*
X01385Y00712*
X01385Y00712*
X01385Y00712*
X01385Y00712*
X01385Y00712*
X01385Y00712*
X01385Y00712*
X01386Y00712*
X01386Y00712*
X01386Y00712*
X01386Y00712*
X01386Y00712*
X01386Y00712*
X01386Y00712*
X01386*
X01387Y00712*
X01387Y00712*
X01387Y00712*
X01387Y00712*
X01387Y00712*
X01387Y00712*
X01387Y00712*
X01387Y00712*
X01388Y00712*
X01388Y00712*
X01388Y00712*
X01388Y00712*
X01388Y00712*
X01388Y00713*
X01388Y00713*
X01388Y00713*
X01388Y00713*
X01388Y00713*
X01388Y00713*
X01388Y00713*
X01388Y00713*
X01388Y00714*
X02918Y01985D02*
D01*
X02918Y01985*
X02918Y01985*
X02918Y01985*
X02918Y01986*
X02918Y01986*
X02918Y01986*
X02918Y01986*
X02918Y01986*
X02917Y01986*
X02917Y01986*
X02917Y01986*
X02917Y01986*
X02917Y01987*
X02917Y01987*
X02917Y01987*
X02917Y01987*
X02917Y01987*
X02917Y01987*
X02916Y01987*
X02916Y01987*
X02916Y01987*
X02916Y01987*
X02916*
X02916Y01987*
X02916Y01987*
X02915Y01987*
X02915Y01987*
X02915Y01987*
X02915Y01987*
X02915Y01987*
X02915Y01987*
X02915Y01987*
X02915Y01986*
X02914Y01986*
X02914Y01986*
X02914Y01986*
X02914Y01986*
X02914Y01986*
X02914Y01986*
X02914Y01986*
X02914Y01986*
X02914Y01985*
X02914Y01985*
X02914Y01985*
X02914Y01985*
X02914Y01985*
X02914Y01985*
X02914Y01985*
X02914Y01984*
X02914Y01984*
X02914Y01984*
X02914Y01984*
X02914Y01984*
X02914Y01984*
X02914Y01984*
X02914Y01984*
X02915Y01984*
X02915Y01983*
X02915Y01983*
X02915Y01983*
X02915Y01983*
X02915Y01983*
X02915Y01983*
X02915Y01983*
X02916Y01983*
X02916Y01983*
X02916Y01983*
X02916*
X02916Y01983*
X02916Y01983*
X02916Y01983*
X02917Y01983*
X02917Y01983*
X02917Y01983*
X02917Y01983*
X02917Y01983*
X02917Y01983*
X02917Y01984*
X02917Y01984*
X02917Y01984*
X02917Y01984*
X02918Y01984*
X02918Y01984*
X02918Y01984*
X02918Y01984*
X02918Y01984*
X02918Y01985*
X02918Y01985*
X02918Y01985*
X02918Y01985*
X02585Y00323D02*
D01*
X02585Y00323*
X02585Y00324*
X02585Y00324*
X02585Y00324*
X02585Y00324*
X02585Y00324*
X02585Y00324*
X02584Y00324*
X02584Y00324*
X02584Y00325*
X02584Y00325*
X02584Y00325*
X02584Y00325*
X02584Y00325*
X02584Y00325*
X02584Y00325*
X02584Y00325*
X02583Y00325*
X02583Y00325*
X02583Y00325*
X02583Y00325*
X02583Y00325*
X02583*
X02583Y00325*
X02582Y00325*
X02582Y00325*
X02582Y00325*
X02582Y00325*
X02582Y00325*
X02582Y00325*
X02582Y00325*
X02582Y00325*
X02581Y00325*
X02581Y00325*
X02581Y00325*
X02581Y00324*
X02581Y00324*
X02581Y00324*
X02581Y00324*
X02581Y00324*
X02581Y00324*
X02581Y00324*
X02581Y00324*
X02581Y00323*
X02581Y00323*
X02581Y00323*
X02581Y00323*
X02581Y00323*
X02581Y00323*
X02581Y00323*
X02581Y00323*
X02581Y00322*
X02581Y00322*
X02581Y00322*
X02581Y00322*
X02581Y00322*
X02581Y00322*
X02582Y00322*
X02582Y00322*
X02582Y00322*
X02582Y00322*
X02582Y00321*
X02582Y00321*
X02582Y00321*
X02582Y00321*
X02583Y00321*
X02583Y00321*
X02583*
X02583Y00321*
X02583Y00321*
X02583Y00321*
X02583Y00321*
X02584Y00321*
X02584Y00322*
X02584Y00322*
X02584Y00322*
X02584Y00322*
X02584Y00322*
X02584Y00322*
X02584Y00322*
X02584Y00322*
X02584Y00322*
X02585Y00322*
X02585Y00323*
X02585Y00323*
X02585Y00323*
X02585Y00323*
X02585Y00323*
X02585Y00323*
X02585Y00323*
X00924Y01301D02*
D01*
X00924Y01301*
X00924Y01301*
X00924Y01301*
X00924Y01301*
X00924Y01302*
X00924Y01302*
X00924Y01302*
X00924Y01302*
X00924Y01302*
X00924Y01302*
X00923Y01302*
X00923Y01302*
X00923Y01302*
X00923Y01302*
X00923Y01303*
X00923Y01303*
X00923Y01303*
X00923Y01303*
X00923Y01303*
X00922Y01303*
X00922Y01303*
X00922Y01303*
X00922*
X00922Y01303*
X00922Y01303*
X00922Y01303*
X00921Y01303*
X00921Y01303*
X00921Y01303*
X00921Y01303*
X00921Y01302*
X00921Y01302*
X00921Y01302*
X00921Y01302*
X00921Y01302*
X0092Y01302*
X0092Y01302*
X0092Y01302*
X0092Y01302*
X0092Y01302*
X0092Y01301*
X0092Y01301*
X0092Y01301*
X0092Y01301*
X0092Y01301*
X0092Y01301*
X0092Y01301*
X0092Y013*
X0092Y013*
X0092Y013*
X0092Y013*
X0092Y013*
X0092Y013*
X0092Y013*
X00921Y013*
X00921Y01299*
X00921Y01299*
X00921Y01299*
X00921Y01299*
X00921Y01299*
X00921Y01299*
X00921Y01299*
X00921Y01299*
X00922Y01299*
X00922Y01299*
X00922Y01299*
X00922Y01299*
X00922*
X00922Y01299*
X00922Y01299*
X00923Y01299*
X00923Y01299*
X00923Y01299*
X00923Y01299*
X00923Y01299*
X00923Y01299*
X00923Y01299*
X00923Y01299*
X00923Y01299*
X00924Y013*
X00924Y013*
X00924Y013*
X00924Y013*
X00924Y013*
X00924Y013*
X00924Y013*
X00924Y013*
X00924Y01301*
X00924Y01301*
X00924Y01301*
G54D15*
X01007Y01756D02*
D01*
X01007Y01757*
X01007Y01758*
X01007Y01758*
X01007Y01759*
X01007Y01759*
X01007Y0176*
X01007Y0176*
X01006Y01761*
X01006Y01761*
X01006Y01761*
X01005Y01762*
X01005Y01762*
X01004Y01763*
X01004Y01763*
X01004Y01763*
X01003Y01764*
X01003Y01764*
X01002Y01764*
X01001Y01764*
X01001Y01764*
X01Y01764*
X01Y01764*
X00999*
X00999Y01764*
X00998Y01764*
X00998Y01764*
X00997Y01764*
X00997Y01764*
X00996Y01764*
X00996Y01763*
X00995Y01763*
X00995Y01763*
X00994Y01762*
X00994Y01762*
X00994Y01761*
X00993Y01761*
X00993Y01761*
X00993Y0176*
X00992Y0176*
X00992Y01759*
X00992Y01759*
X00992Y01758*
X00992Y01758*
X00992Y01757*
X00992Y01756*
X00992Y01756*
X00992Y01755*
X00992Y01755*
X00992Y01754*
X00992Y01754*
X00992Y01753*
X00993Y01753*
X00993Y01752*
X00993Y01752*
X00994Y01751*
X00994Y01751*
X00994Y01751*
X00995Y0175*
X00995Y0175*
X00996Y0175*
X00996Y01749*
X00997Y01749*
X00997Y01749*
X00998Y01749*
X00998Y01749*
X00999Y01749*
X00999Y01749*
X01*
X01Y01749*
X01001Y01749*
X01001Y01749*
X01002Y01749*
X01003Y01749*
X01003Y01749*
X01004Y0175*
X01004Y0175*
X01004Y0175*
X01005Y01751*
X01005Y01751*
X01006Y01751*
X01006Y01752*
X01006Y01752*
X01007Y01753*
X01007Y01753*
X01007Y01754*
X01007Y01754*
X01007Y01755*
X01007Y01755*
X01007Y01756*
X01007Y01756*
G54D16*
X00916Y01385D02*
Y01415D01*
X01146Y01325D02*
Y01355D01*
X00789Y01632D02*
X00819D01*
X01101Y0153D02*
Y0156D01*
G54D17*
X01025Y01377D02*
Y01423D01*
X00914Y01377D02*
X01025D01*
X00914Y01423D02*
X01025D01*
X01024Y01332D02*
Y01378D01*
X00923Y01332D02*
Y01378D01*
X01024*
X00923Y01332D02*
X01024D01*
X00371Y01324D02*
X00417D01*
X00371Y01425D02*
X00417D01*
Y01324D02*
Y01425D01*
X00371Y01324D02*
Y01425D01*
X0042Y01324D02*
X00466D01*
X0042Y01425D02*
X00466D01*
Y01324D02*
Y01425D01*
X0042Y01324D02*
Y01425D01*
X01941Y01244D02*
X01987D01*
X01941Y01345D02*
X01987D01*
Y01244D02*
Y01345D01*
X01941Y01244D02*
Y01345D01*
X01891Y01244D02*
X01937D01*
X01891Y01345D02*
X01937D01*
Y01244D02*
Y01345D01*
X01891Y01244D02*
Y01345D01*
X03425Y01211D02*
X03562D01*
Y01348*
X03425Y01211D02*
Y01348D01*
X03562*
X02748Y02177D02*
Y02223D01*
X02849Y02177D02*
Y02223D01*
X02748Y02177D02*
X02849D01*
X02748Y02223D02*
X02849D01*
X02508Y02177D02*
Y02223D01*
X02609Y02177D02*
Y02223D01*
X02508Y02177D02*
X02609D01*
X02508Y02223D02*
X02609D01*
X03425Y00986D02*
X03562D01*
Y01123*
X03425Y00986D02*
Y01123D01*
X03562*
X03425Y01416D02*
X03562D01*
Y01553*
X03425Y01416D02*
Y01553D01*
X03562*
X02493Y01582D02*
Y01628D01*
X02594Y01582D02*
Y01628D01*
X02493Y01582D02*
X02594D01*
X02493Y01628D02*
X02594D01*
X01791Y01244D02*
X01837D01*
X01791Y01345D02*
X01837D01*
Y01244D02*
Y01345D01*
X01791Y01244D02*
Y01345D01*
X01841Y01244D02*
X01887D01*
X01841Y01345D02*
X01887D01*
Y01244D02*
Y01345D01*
X01841Y01244D02*
Y01345D01*
X03161Y01234D02*
Y01335D01*
X03207Y01234D02*
Y01335D01*
X03161D02*
X03207D01*
X03161Y01234D02*
X03207D01*
X03161Y01014D02*
X03207D01*
X03161Y01115D02*
X03207D01*
Y01014D02*
Y01115D01*
X03161Y01014D02*
Y01115D01*
X03211D02*
X03257D01*
X03211Y01014D02*
X03257D01*
X03211D02*
Y01115D01*
X03257Y01014D02*
Y01115D01*
X01853Y00822D02*
Y00868D01*
X01954Y00822D02*
Y00868D01*
X01853Y00822D02*
X01954D01*
X01853Y00868D02*
X01954D01*
X02413Y00162D02*
X02514D01*
X02413Y00208D02*
X02514D01*
X02413Y00162D02*
Y00208D01*
X02514Y00162D02*
Y00208D01*
X02156Y00459D02*
Y0056D01*
X02202Y00459D02*
Y0056D01*
X02156D02*
X02202D01*
X02156Y00459D02*
X02202D01*
X02201D02*
Y0056D01*
X02247Y00459D02*
Y0056D01*
X02201D02*
X02247D01*
X02201Y00459D02*
X02247D01*
X01522Y00154D02*
Y00255D01*
X01476Y00154D02*
Y00255D01*
Y00154D02*
X01522D01*
X01476Y00255D02*
X01522D01*
X01353Y00297D02*
X01454D01*
X01353Y00343D02*
X01454D01*
X01353Y00297D02*
Y00343D01*
X01454Y00297D02*
Y00343D01*
X00948Y01013D02*
X01049D01*
X00948Y00967D02*
X01049D01*
Y01013*
X00948Y00967D02*
Y01013D01*
Y00968D02*
X01049D01*
X00948Y00922D02*
X01049D01*
Y00968*
X00948Y00922D02*
Y00968D01*
X01853Y00773D02*
X01954D01*
X01853Y00727D02*
X01954D01*
Y00773*
X01853Y00727D02*
Y00773D01*
Y00723D02*
X01954D01*
X01853Y00677D02*
X01954D01*
Y00723*
X01853Y00677D02*
Y00723D01*
X02172Y01079D02*
Y0118D01*
X02126Y01079D02*
Y0118D01*
Y01079D02*
X02172D01*
X02126Y0118D02*
X02172D01*
X01853Y00673D02*
X01954D01*
X01853Y00627D02*
X01954D01*
Y00673*
X01853Y00627D02*
Y00673D01*
Y01048D02*
X01954D01*
X01853Y01002D02*
X01954D01*
Y01048*
X01853Y01002D02*
Y01048D01*
Y01003D02*
X01954D01*
X01853Y00957D02*
X01954D01*
Y01003*
X01853Y00957D02*
Y01003D01*
Y00623D02*
X01954D01*
X01853Y00577D02*
X01954D01*
Y00623*
X01853Y00577D02*
Y00623D01*
X02217Y01079D02*
Y0118D01*
X02171Y01079D02*
Y0118D01*
Y01079D02*
X02217D01*
X02171Y0118D02*
X02217D01*
X01853Y00913D02*
X01954D01*
X01853Y00867D02*
X01954D01*
Y00913*
X01853Y00867D02*
Y00913D01*
X02403Y00827D02*
X02504D01*
X02403Y00873D02*
X02504D01*
X02403Y00827D02*
Y00873D01*
X02504Y00827D02*
Y00873D01*
X02403Y00997D02*
X02504D01*
X02403Y01043D02*
X02504D01*
X02403Y00997D02*
Y01043D01*
X02504Y00997D02*
Y01043D01*
X01853Y00823D02*
X01954D01*
X01853Y00777D02*
X01954D01*
Y00823*
X01853Y00777D02*
Y00823D01*
X02403Y00492D02*
X02504D01*
X02403Y00538D02*
X02504D01*
X02403Y00492D02*
Y00538D01*
X02504Y00492D02*
Y00538D01*
X02403Y00537D02*
X02504D01*
X02403Y00583D02*
X02504D01*
X02403Y00537D02*
Y00583D01*
X02504Y00537D02*
Y00583D01*
X02071Y00459D02*
Y0056D01*
X02117Y00459D02*
Y0056D01*
X02071D02*
X02117D01*
X02071Y00459D02*
X02117D01*
X02633Y00047D02*
X02734D01*
X02633Y00093D02*
X02734D01*
X02633Y00047D02*
Y00093D01*
X02734Y00047D02*
Y00093D01*
X02403Y00607D02*
X02504D01*
X02403Y00653D02*
X02504D01*
X02403Y00607D02*
Y00653D01*
X02504Y00607D02*
Y00653D01*
X02898Y00467D02*
X02999D01*
X02898Y00513D02*
X02999D01*
X02898Y00467D02*
Y00513D01*
X02999Y00467D02*
Y00513D01*
X02403Y00772D02*
X02504D01*
X02403Y00818D02*
X02504D01*
X02403Y00772D02*
Y00818D01*
X02504Y00772D02*
Y00818D01*
X02898Y00657D02*
X02999D01*
X02898Y00703D02*
X02999D01*
X02898Y00657D02*
Y00703D01*
X02999Y00657D02*
Y00703D01*
X01853Y00958D02*
X01954D01*
X01853Y00912D02*
X01954D01*
Y00958*
X01853Y00912D02*
Y00958D01*
X02127Y01079D02*
Y0118D01*
X02081Y01079D02*
Y0118D01*
Y01079D02*
X02127D01*
X02081Y0118D02*
X02127D01*
X01448Y01022D02*
X01549D01*
X01448Y01068D02*
X01549D01*
X01448Y01022D02*
Y01068D01*
X01549Y01022D02*
Y01068D01*
X02403Y00942D02*
X02504D01*
X02403Y00988D02*
X02504D01*
X02403Y00942D02*
Y00988D01*
X02504Y00942D02*
Y00988D01*
X02403Y00887D02*
X02504D01*
X02403Y00933D02*
X02504D01*
X02403Y00887D02*
Y00933D01*
X02504Y00887D02*
Y00933D01*
X02573Y00872D02*
X02674D01*
X02573Y00918D02*
X02674D01*
X02573Y00872D02*
Y00918D01*
X02674Y00872D02*
Y00918D01*
X02573Y00827D02*
X02674D01*
X02573Y00873D02*
X02674D01*
X02573Y00827D02*
Y00873D01*
X02674Y00827D02*
Y00873D01*
X02403Y00662D02*
X02504D01*
X02403Y00708D02*
X02504D01*
X02403Y00662D02*
Y00708D01*
X02504Y00662D02*
Y00708D01*
X02403Y00717D02*
X02504D01*
X02403Y00763D02*
X02504D01*
X02403Y00717D02*
Y00763D01*
X02504Y00717D02*
Y00763D01*
X01144Y01363D02*
X01255D01*
X01144Y01317D02*
X01255D01*
Y01363*
X00948Y01158D02*
X01049D01*
X00948Y01112D02*
X01049D01*
Y01158*
X00948Y01112D02*
Y01158D01*
X00781Y0163D02*
Y01741D01*
X00827Y0163D02*
Y01741D01*
X00781D02*
X00827D01*
X00993Y01522D02*
X01104D01*
X00993Y01568D02*
X01104D01*
X00993Y01522D02*
Y01568D01*
X00758Y00497D02*
X00859D01*
X00758Y00543D02*
X00859D01*
X00758Y00497D02*
Y00543D01*
X00859Y00497D02*
Y00543D01*
X01653Y00317D02*
X01754D01*
X01653Y00363D02*
X01754D01*
X01653Y00317D02*
Y00363D01*
X01754Y00317D02*
Y00363D01*
X02463D02*
X02564D01*
X02463Y00317D02*
X02564D01*
Y00363*
X02463Y00317D02*
Y00363D01*
X02688Y00452D02*
X02789D01*
X02688Y00498D02*
X02789D01*
X02688Y00452D02*
Y00498D01*
X02789Y00452D02*
Y00498D01*
X03048Y00788D02*
X03149D01*
X03048Y00742D02*
X03149D01*
Y00788*
X03048Y00742D02*
Y00788D01*
Y00833D02*
X03149D01*
X03048Y00787D02*
X03149D01*
Y00833*
X03048Y00787D02*
Y00833D01*
Y00878D02*
X03149D01*
X03048Y00832D02*
X03149D01*
Y00878*
X03048Y00832D02*
Y00878D01*
X02026Y00459D02*
Y0056D01*
X02072Y00459D02*
Y0056D01*
X02026D02*
X02072D01*
X02026Y00459D02*
X02072D01*
X02698Y00602D02*
X02799D01*
X02698Y00648D02*
X02799D01*
X02698Y00602D02*
Y00648D01*
X02799Y00602D02*
Y00648D01*
X02698Y01143D02*
X02799D01*
X02698Y01097D02*
X02799D01*
Y01143*
X02698Y01097D02*
Y01143D01*
Y01088D02*
X02799D01*
X02698Y01042D02*
X02799D01*
Y01088*
X02698Y01042D02*
Y01088D01*
Y01033D02*
X02799D01*
X02698Y00987D02*
X02799D01*
Y01033*
X02698Y00987D02*
Y01033D01*
X01168Y00967D02*
X01269D01*
X01168Y01013D02*
X01269D01*
X01168Y00967D02*
Y01013D01*
X01269Y00967D02*
Y01013D01*
X02586Y01244D02*
Y01345D01*
X02632Y01244D02*
Y01345D01*
X02586D02*
X02632D01*
X02586Y01244D02*
X02632D01*
X01168Y00922D02*
X01269D01*
X01168Y00968D02*
X01269D01*
X01168Y00922D02*
Y00968D01*
X01269Y00922D02*
Y00968D01*
X02541Y01244D02*
Y01345D01*
X02587Y01244D02*
Y01345D01*
X02541D02*
X02587D01*
X02541Y01244D02*
X02587D01*
X02496D02*
Y01345D01*
X02542Y01244D02*
Y01345D01*
X02496D02*
X02542D01*
X02496Y01244D02*
X02542D01*
X02676D02*
Y01345D01*
X02722Y01244D02*
Y01345D01*
X02676D02*
X02722D01*
X02676Y01244D02*
X02722D01*
X02631D02*
Y01345D01*
X02677Y01244D02*
Y01345D01*
X02631D02*
X02677D01*
X02631Y01244D02*
X02677D01*
X02391D02*
Y01345D01*
X02437Y01244D02*
Y01345D01*
X02391D02*
X02437D01*
X02391Y01244D02*
X02437D01*
X01991D02*
Y01345D01*
X02037Y01244D02*
Y01345D01*
X01991D02*
X02037D01*
X01991Y01244D02*
X02037D01*
X02041D02*
Y01345D01*
X02087Y01244D02*
Y01345D01*
X02041D02*
X02087D01*
X02041Y01244D02*
X02087D01*
X02091D02*
Y01345D01*
X02137Y01244D02*
Y01345D01*
X02091D02*
X02137D01*
X02091Y01244D02*
X02137D01*
X02141D02*
Y01345D01*
X02187Y01244D02*
Y01345D01*
X02141D02*
X02187D01*
X02141Y01244D02*
X02187D01*
X02191D02*
Y01345D01*
X02237Y01244D02*
Y01345D01*
X02191D02*
X02237D01*
X02191Y01244D02*
X02237D01*
X02241D02*
Y01345D01*
X02287Y01244D02*
Y01345D01*
X02241D02*
X02287D01*
X02241Y01244D02*
X02287D01*
X02291D02*
Y01345D01*
X02337Y01244D02*
Y01345D01*
X02291D02*
X02337D01*
X02291Y01244D02*
X02337D01*
X02698Y00923D02*
X02799D01*
X02698Y00877D02*
X02799D01*
Y00923*
X02698Y00877D02*
Y00923D01*
Y00813D02*
X02799D01*
X02698Y00767D02*
X02799D01*
Y00813*
X02698Y00767D02*
Y00813D01*
Y00703D02*
X02799D01*
X02698Y00657D02*
X02799D01*
Y00703*
X02698Y00657D02*
Y00703D01*
X02341Y01244D02*
Y01345D01*
X02387Y01244D02*
Y01345D01*
X02341D02*
X02387D01*
X02341Y01244D02*
X02387D01*
X02698Y00932D02*
X02799D01*
X02698Y00978D02*
X02799D01*
X02698Y00932D02*
Y00978D01*
X02799Y00932D02*
Y00978D01*
X02698Y00822D02*
X02799D01*
X02698Y00868D02*
X02799D01*
X02698Y00822D02*
Y00868D01*
X02799Y00822D02*
Y00868D01*
X02698Y00712D02*
X02799D01*
X02698Y00758D02*
X02799D01*
X02698Y00712D02*
Y00758D01*
X02799Y00712D02*
Y00758D01*
X01353Y00113D02*
X01454D01*
X01353Y00067D02*
X01454D01*
Y00113*
X01353Y00067D02*
Y00113D01*
X00758Y00622D02*
X00859D01*
X00758Y00668D02*
X00859D01*
X00758Y00622D02*
Y00668D01*
X00859Y00622D02*
Y00668D01*
X00758Y00677D02*
X00859D01*
X00758Y00723D02*
X00859D01*
X00758Y00677D02*
Y00723D01*
X00859Y00677D02*
Y00723D01*
X00758Y00732D02*
X00859D01*
X00758Y00778D02*
X00859D01*
X00758Y00732D02*
Y00778D01*
X00859Y00732D02*
Y00778D01*
X01153Y01272D02*
X01254D01*
X01153Y01318D02*
X01254D01*
X01153Y01272D02*
Y01318D01*
X01254Y01272D02*
Y01318D01*
X01153Y01227D02*
X01254D01*
X01153Y01273D02*
X01254D01*
X01153Y01227D02*
Y01273D01*
X01254Y01227D02*
Y01273D01*
X01153Y01208D02*
X01254D01*
X01153Y01162D02*
X01254D01*
Y01208*
X01153Y01162D02*
Y01208D01*
X01188Y01783D02*
X01289D01*
X01188Y01737D02*
X01289D01*
Y01783*
X01188Y01737D02*
Y01783D01*
Y01738D02*
X01289D01*
X01188Y01692D02*
X01289D01*
Y01738*
X01188Y01692D02*
Y01738D01*
Y01647D02*
X01289D01*
X01188Y01693D02*
X01289D01*
X01188Y01647D02*
Y01693D01*
X01289Y01647D02*
Y01693D01*
X00758Y00498D02*
X00859D01*
X00758Y00452D02*
X00859D01*
Y00498*
X00758Y00452D02*
Y00498D01*
X01721Y00549D02*
Y0065D01*
X01767Y00549D02*
Y0065D01*
X01721D02*
X01767D01*
X01721Y00549D02*
X01767D01*
X03257Y01234D02*
Y01335D01*
X03211Y01234D02*
Y01335D01*
Y01234D02*
X03257D01*
X03211Y01335D02*
X03257D01*
Y01439D02*
Y0154D01*
X03211Y01439D02*
Y0154D01*
Y01439D02*
X03257D01*
X03211Y0154D02*
X03257D01*
X03161Y01439D02*
Y0154D01*
X03207Y01439D02*
Y0154D01*
X03161D02*
X03207D01*
X03161Y01439D02*
X03207D01*
X01853Y01093D02*
X01954D01*
X01853Y01047D02*
X01954D01*
Y01093*
X01853Y01047D02*
Y01093D01*
X01549Y00652D02*
Y00698D01*
X01448Y00652D02*
Y00698D01*
X01549*
X01448Y00652D02*
X01549D01*
X02008Y01457D02*
X02109D01*
X02008Y01503D02*
X02109D01*
X02008Y01457D02*
Y01503D01*
X02109Y01457D02*
Y01503D01*
X02008Y01407D02*
X02109D01*
X02008Y01453D02*
X02109D01*
X02008Y01407D02*
Y01453D01*
X02109Y01407D02*
Y01453D01*
X01718Y01902D02*
X01819D01*
X01718Y01948D02*
X01819D01*
X01718Y01902D02*
Y01948D01*
X01819Y01902D02*
Y01948D01*
X01718Y01947D02*
X01819D01*
X01718Y01993D02*
X01819D01*
X01718Y01947D02*
Y01993D01*
X01819Y01947D02*
Y01993D01*
X01718Y01997D02*
X01819D01*
X01718Y02043D02*
X01819D01*
X01718Y01997D02*
Y02043D01*
X01819Y01997D02*
Y02043D01*
X02368Y01953D02*
X02469D01*
X02368Y01907D02*
X02469D01*
Y01953*
X02368Y01907D02*
Y01953D01*
Y01998D02*
X02469D01*
X02368Y01952D02*
X02469D01*
Y01998*
X02368Y01952D02*
Y01998D01*
Y02043D02*
X02469D01*
X02368Y01997D02*
X02469D01*
Y02043*
X02368Y01997D02*
Y02043D01*
Y01852D02*
X02469D01*
X02368Y01898D02*
X02469D01*
X02368Y01852D02*
Y01898D01*
X02469Y01852D02*
Y01898D01*
X02368Y01807D02*
X02469D01*
X02368Y01853D02*
X02469D01*
X02368Y01807D02*
Y01853D01*
X02469Y01807D02*
Y01853D01*
X02493Y01718D02*
X02594D01*
X02493Y01672D02*
X02594D01*
Y01718*
X02493Y01672D02*
Y01718D01*
Y01808D02*
X02594D01*
X02493Y01762D02*
X02594D01*
Y01808*
X02493Y01762D02*
Y01808D01*
Y01763D02*
X02594D01*
X02493Y01717D02*
X02594D01*
Y01763*
X02493Y01717D02*
Y01763D01*
X01918Y01817D02*
X02019D01*
X01918Y01863D02*
X02019D01*
X01918Y01817D02*
Y01863D01*
X02019Y01817D02*
Y01863D01*
X01918Y01772D02*
X02019D01*
X01918Y01818D02*
X02019D01*
X01918Y01772D02*
Y01818D01*
X02019Y01772D02*
Y01818D01*
X02006Y01589D02*
Y0169D01*
X02052Y01589D02*
Y0169D01*
X02006D02*
X02052D01*
X02006Y01589D02*
X02052D01*
X01961D02*
Y0169D01*
X02007Y01589D02*
Y0169D01*
X01961D02*
X02007D01*
X01961Y01589D02*
X02007D01*
X02493Y01583D02*
X02594D01*
X02493Y01537D02*
X02594D01*
Y01583*
X02493Y01537D02*
Y01583D01*
X01916Y01589D02*
Y0169D01*
X01962Y01589D02*
Y0169D01*
X01916D02*
X01962D01*
X01916Y01589D02*
X01962D01*
X02337Y01354D02*
Y01455D01*
X02291Y01354D02*
Y01455D01*
Y01354D02*
X02337D01*
X02291Y01455D02*
X02337D01*
X02493Y01673D02*
X02594D01*
X02493Y01627D02*
X02594D01*
Y01673*
X02493Y01627D02*
Y01673D01*
X01718Y02042D02*
Y02088D01*
X01819Y02042D02*
Y02088D01*
X01718Y02042D02*
X01819D01*
X01718Y02088D02*
X01819D01*
X02469Y02042D02*
Y02088D01*
X02368Y02042D02*
Y02088D01*
X02469*
X02368Y02042D02*
X02469D01*
X01692Y01504D02*
Y01605D01*
X01646Y01504D02*
Y01605D01*
Y01504D02*
X01692D01*
X01646Y01605D02*
X01692D01*
X01742Y01504D02*
Y01605D01*
X01696Y01504D02*
Y01605D01*
Y01504D02*
X01742D01*
X01696Y01605D02*
X01742D01*
X01792Y01504D02*
Y01605D01*
X01746Y01504D02*
Y01605D01*
Y01504D02*
X01792D01*
X01746Y01605D02*
X01792D01*
X01842Y01504D02*
Y01605D01*
X01796Y01504D02*
Y01605D01*
Y01504D02*
X01842D01*
X01796Y01605D02*
X01842D01*
X02493Y01998D02*
X02594D01*
X02493Y01952D02*
X02594D01*
Y01998*
X02493Y01952D02*
Y01998D01*
Y01898D02*
X02594D01*
X02493Y01852D02*
X02594D01*
Y01898*
X02493Y01852D02*
Y01898D01*
Y02043D02*
X02594D01*
X02493Y01997D02*
X02594D01*
Y02043*
X02493Y01997D02*
Y02043D01*
Y01907D02*
X02594D01*
X02493Y01953D02*
X02594D01*
X02493Y01907D02*
Y01953D01*
X02594Y01907D02*
Y01953D01*
X02493Y01807D02*
X02594D01*
X02493Y01853D02*
X02594D01*
X02493Y01807D02*
Y01853D01*
X02594Y01807D02*
Y01853D01*
X02493Y02042D02*
X02594D01*
X02493Y02088D02*
X02594D01*
X02493Y02042D02*
Y02088D01*
X02594Y02042D02*
Y02088D01*
X02822Y01924D02*
Y02025D01*
X02776Y01924D02*
Y02025D01*
Y01924D02*
X02822D01*
X02776Y02025D02*
X02822D01*
X02828Y01882D02*
X02929D01*
X02828Y01928D02*
X02929D01*
X02828Y01882D02*
Y01928D01*
X02929Y01882D02*
Y01928D01*
X02923Y02173D02*
X03024D01*
X02923Y02127D02*
X03024D01*
Y02173*
X02923Y02127D02*
Y02173D01*
Y02072D02*
Y02118D01*
X03024Y02072D02*
Y02118D01*
X02923Y02072D02*
X03024D01*
X02923Y02118D02*
X03024D01*
G54D18*
X03284Y01655D02*
Y01755D01*
X03384Y01655D02*
Y01755D01*
X03289Y01655D02*
X03583D01*
Y01755*
X03289D02*
X03583D01*
X03485Y01655D02*
Y01755D01*
X02909Y0186D02*
X03009D01*
X02909Y0176D02*
X03009D01*
X02909Y0146D02*
Y01855D01*
Y0146D02*
X03009D01*
Y01855*
Y0186D02*
X03109D01*
X03009Y0176D02*
X03109D01*
X03009Y0146D02*
Y01855D01*
Y0146D02*
X03109D01*
Y01855*
G54D19*
X03019Y0136D02*
X03039Y0138D01*
X03099*
Y013D02*
Y0138D01*
X03019Y013D02*
X03099D01*
X03019D02*
Y0136D01*
X02919D02*
X02939Y0138D01*
X02999*
Y013D02*
Y0138D01*
X02919Y013D02*
X02999D01*
X02919D02*
Y0136D01*
X02909Y0105D02*
X03084D01*
X02909Y0095D02*
Y0105D01*
Y0095D02*
X03109D01*
Y01025*
X03084Y0105D02*
X03109Y01025D01*
X02909Y0115D02*
X03084D01*
X02909Y0105D02*
Y0115D01*
Y0105D02*
X03109D01*
Y01125*
X03084Y0115D02*
X03109Y01125D01*
X02909Y0125D02*
X03084D01*
X02909Y0115D02*
Y0125D01*
Y0115D02*
X03109D01*
Y01225*
X03084Y0125D02*
X03109Y01225D01*
X00609Y01755D02*
Y01815D01*
Y01755D02*
X00689D01*
Y01835*
X00629D02*
X00689D01*
X00609Y01815D02*
X00629Y01835D01*
X01852Y01959D02*
Y02019D01*
Y01959D02*
X01932D01*
Y02039*
X01872D02*
X01932D01*
X01852Y02019D02*
X01872Y02039D01*
X00833Y01409D02*
X00828Y01414D01*
X00818*
X00813Y01409*
Y01389*
X00818Y01384*
X00828*
X00833Y01389*
X00863Y01414D02*
X00853Y01409D01*
X00843Y01399*
Y01389*
X00848Y01384*
X00858*
X00863Y01389*
Y01394*
X00858Y01399*
X00843*
X00873Y01414D02*
X00893D01*
Y01409*
X00873Y01389*
Y01384*
X00833Y01364D02*
X00828Y01369D01*
X00819*
X00814Y01364*
Y01345*
X00819Y0134*
X00828*
X00833Y01345*
X00843Y01369D02*
X00863D01*
Y01364*
X00843Y01345*
Y0134*
X00873Y01364D02*
X00878Y01369D01*
X00888*
X00893Y01364*
Y01345*
X00888Y0134*
X00878*
X00873Y01345*
Y01364*
X00588Y01699D02*
X00584Y01704D01*
X00574*
X00569Y01699*
Y0168*
X00574Y01675*
X00584*
X00588Y0168*
X00598Y01699D02*
X00603Y01704D01*
X00613*
X00618Y01699*
Y01694*
X00613Y0169*
X00608*
X00613*
X00618Y01685*
Y0168*
X00613Y01675*
X00603*
X00598Y0168*
X00648Y01704D02*
X00638Y01699D01*
X00628Y0169*
Y0168*
X00633Y01675*
X00643*
X00648Y0168*
Y01685*
X00643Y0169*
X00628*
X03408Y01594D02*
X03404Y01599D01*
X03394*
X03389Y01594*
Y01575*
X03394Y0157*
X03404*
X03408Y01575*
X03433Y01599D02*
X03423D01*
X03418Y01594*
Y01575*
X03423Y0157*
X03433*
X03438Y01575*
Y01594*
X03433Y01599*
X03448Y0157D02*
Y01589D01*
X03458Y01599*
X03468Y01589*
Y0157*
Y01585*
X03448*
X03478Y01599D02*
X03498Y0157D01*
Y01599D02*
X03478Y0157D01*
X03504Y01639D02*
Y01615D01*
X03509Y0161*
X03519*
X03523Y01615*
Y01639*
X03553Y01634D02*
X03548Y01639D01*
X03538*
X03533Y01634*
Y01629*
X03538Y01624*
X03548*
X03553Y0162*
Y01615*
X03548Y0161*
X03538*
X03533Y01615*
X03563Y01639D02*
Y0161D01*
X03578*
X03583Y01615*
Y0162*
X03578Y01624*
X03563*
X03578*
X03583Y01629*
Y01634*
X03578Y01639*
X03563*
X03293D02*
X03284D01*
X03289*
Y01615*
X03284Y0161*
X03279*
X03274Y01615*
X03303Y0161D02*
Y01629D01*
X03313Y01639*
X03323Y01629*
Y0161*
Y01624*
X03303*
X03353Y01634D02*
X03348Y01639D01*
X03338*
X03333Y01634*
Y01615*
X03338Y0161*
X03348*
X03353Y01615*
X03363Y01639D02*
Y0161D01*
Y0162*
X03383Y01639*
X03368Y01624*
X03383Y0161*
X01824Y01855D02*
X01834D01*
X01829*
Y01884*
X01824Y01879*
X01619D02*
X01624Y01884D01*
X01634*
X01638Y01879*
Y0186*
X01634Y01855*
X01624*
X01619Y0186*
Y01879*
X01354Y01139D02*
Y0112D01*
X01364Y0111*
X01373Y0112*
Y01139*
X01383Y01134D02*
X01388Y01139D01*
X01398*
X01403Y01134*
Y01129*
X01398Y01124*
X01393*
X01398*
X01403Y0112*
Y01115*
X01398Y0111*
X01388*
X01383Y01115*
X01413Y0111D02*
Y01139D01*
X01428*
X01433Y01134*
Y01124*
X01428Y0112*
X01413*
X01443Y01134D02*
X01448Y01139D01*
X01458*
X01463Y01134*
Y01129*
X01458Y01124*
X01453*
X01458*
X01463Y0112*
Y01115*
X01458Y0111*
X01448*
X01443Y01115*
X01294Y01529D02*
Y0151D01*
X01304Y015*
X01313Y0151*
Y01529*
X01323Y015D02*
X01333D01*
X01328*
Y01529*
X01323Y01524*
X01348Y015D02*
Y01529D01*
X01363*
X01368Y01524*
Y01514*
X01363Y0151*
X01348*
X01398Y015D02*
X01378D01*
X01398Y01519*
Y01524*
X01393Y01529*
X01383*
X01378Y01524*
X01209Y00309D02*
X01214Y00314D01*
X01223*
X01228Y00309*
Y0029*
X01223Y00285*
X01214*
X01209Y0029*
Y00309*
Y00135D02*
X01219D01*
X01214*
Y00164*
X01209Y00159*
X03284Y0066D02*
X03294D01*
X03289*
Y00689*
X03284Y00684*
X03504D02*
X03509Y00689D01*
X03519*
X03523Y00684*
Y00665*
X03519Y0066*
X03509*
X03504Y00665*
Y00684*
X03148Y01704D02*
X03144Y01709D01*
X03134*
X03129Y01704*
Y01699*
X03134Y01695*
X03144*
X03148Y0169*
Y01685*
X03144Y0168*
X03134*
X03129Y01685*
X03178Y01704D02*
X03173Y01709D01*
X03163*
X03158Y01704*
Y01699*
X03163Y01695*
X03173*
X03178Y0169*
Y01685*
X03173Y0168*
X03163*
X03158Y01685*
X03188Y0168D02*
Y01709D01*
X03208Y0168*
Y01709*
X03129Y0172D02*
Y01749D01*
X03139Y01739*
X03148Y01749*
Y0172*
X03158Y01749D02*
X03168D01*
X03163*
Y0172*
X03158*
X03168*
X03203Y01744D02*
X03198Y01749D01*
X03188*
X03183Y01744*
Y01739*
X03188Y01735*
X03198*
X03203Y0173*
Y01725*
X03198Y0172*
X03188*
X03183Y01725*
X03228Y01749D02*
X03218D01*
X03213Y01744*
Y01725*
X03218Y0172*
X03228*
X03233Y01725*
Y01744*
X03228Y01749*
X03148Y01784D02*
X03144Y01789D01*
X03134*
X03129Y01784*
Y01779*
X03134Y01774*
X03144*
X03148Y0177*
Y01765*
X03144Y0176*
X03134*
X03129Y01765*
X03178Y01784D02*
X03173Y01789D01*
X03163*
X03158Y01784*
Y01765*
X03163Y0176*
X03173*
X03178Y01765*
X03188Y01789D02*
Y0176D01*
Y0177*
X03208Y01789*
X03193Y01774*
X03208Y0176*
X03129Y018D02*
Y01829D01*
X03139Y01819*
X03148Y01829*
Y018*
X03173Y01829D02*
X03163D01*
X03158Y01824*
Y01805*
X03163Y018*
X03173*
X03178Y01805*
Y01824*
X03173Y01829*
X03208Y01824D02*
X03203Y01829D01*
X03193*
X03188Y01824*
Y01819*
X03193Y01815*
X03203*
X03208Y0181*
Y01805*
X03203Y018*
X03193*
X03188Y01805*
X03218Y01829D02*
X03228D01*
X03223*
Y018*
X03218*
X03228*
X02778Y01509D02*
X02773Y01514D01*
X02764*
X02759Y01509*
Y0149*
X02764Y01485*
X02773*
X02778Y0149*
Y01499*
X02769*
X02788Y01485D02*
Y01514D01*
X02803*
X02808Y01509*
Y01499*
X02803Y01495*
X02788*
X02818Y01514D02*
X02828D01*
X02823*
Y01485*
X02818*
X02828*
X02858Y01514D02*
X02848D01*
X02843Y01509*
Y0149*
X02848Y01485*
X02858*
X02863Y0149*
Y01509*
X02858Y01514*
X02873Y01509D02*
X02878Y01514D01*
X02888*
X02893Y01509*
Y01504*
X02888Y01499*
X02883*
X02888*
X02893Y01495*
Y0149*
X02888Y01485*
X02878*
X02873Y0149*
X02778Y01549D02*
X02773Y01554D01*
X02764*
X02759Y01549*
Y0153*
X02764Y01525*
X02773*
X02778Y0153*
Y01539*
X02769*
X02788Y01525D02*
Y01554D01*
X02803*
X02808Y01549*
Y01539*
X02803Y01535*
X02788*
X02818Y01554D02*
X02828D01*
X02823*
Y01525*
X02818*
X02828*
X02858Y01554D02*
X02848D01*
X02843Y01549*
Y0153*
X02848Y01525*
X02858*
X02863Y0153*
Y01549*
X02858Y01554*
X02893Y01525D02*
X02873D01*
X02893Y01544*
Y01549*
X02888Y01554*
X02878*
X02873Y01549*
X02778Y01594D02*
X02773Y01599D01*
X02764*
X02759Y01594*
Y01575*
X02764Y0157*
X02773*
X02778Y01575*
Y01585*
X02769*
X02788Y0157D02*
Y01599D01*
X02803*
X02808Y01594*
Y01585*
X02803Y0158*
X02788*
X02818Y01599D02*
X02828D01*
X02823*
Y0157*
X02818*
X02828*
X02858Y01599D02*
X02848D01*
X02843Y01594*
Y01575*
X02848Y0157*
X02858*
X02863Y01575*
Y01594*
X02858Y01599*
X02873Y0157D02*
X02883D01*
X02878*
Y01599*
X02873Y01594*
X02778Y01634D02*
X02773Y01639D01*
X02764*
X02759Y01634*
Y01615*
X02764Y0161*
X02773*
X02778Y01615*
Y01624*
X02769*
X02788Y0161D02*
Y01639D01*
X02803*
X02808Y01634*
Y01624*
X02803Y0162*
X02788*
X02818Y01639D02*
X02828D01*
X02823*
Y0161*
X02818*
X02828*
X02858Y01639D02*
X02848D01*
X02843Y01634*
Y01615*
X02848Y0161*
X02858*
X02863Y01615*
Y01634*
X02858Y01639*
X02873Y01634D02*
X02878Y01639D01*
X02888*
X02893Y01634*
Y01615*
X02888Y0161*
X02878*
X02873Y01615*
Y01634*
X01827Y02057D02*
Y02077D01*
X01837Y02087*
X01847Y02077*
Y02057*
Y02072*
X01827*
X03169Y0214D02*
Y02159D01*
X03179Y02169*
X03188Y02159*
Y0214*
Y02154*
X03169*
X03269Y02169D02*
Y0214D01*
X03283*
X03288Y02145*
Y0215*
X03283Y02154*
X03269*
X03283*
X03288Y02159*
Y02164*
X03283Y02169*
X03269*
X02374Y02129D02*
Y021D01*
X02388*
X02393Y02105*
Y0211*
X02388Y02115*
X02374*
X02388*
X02393Y02119*
Y02124*
X02388Y02129*
X02374*
X03338Y01864D02*
X03334Y01869D01*
X03324*
X03319Y01864*
Y01845*
X03324Y0184*
X03334*
X03338Y01845*
X02498Y01079D02*
X02493Y01084D01*
X02484*
X02479Y01079*
Y0106*
X02484Y01055*
X02493*
X02498Y0106*
X02774Y01184D02*
Y01155D01*
X02789*
X02793Y0116*
Y01179*
X02789Y01184*
X02774*
X03564Y02224D02*
Y02195D01*
X03578*
X03583Y022*
Y02219*
X03578Y02224*
X03564*
X01473Y02074D02*
X01468Y02079D01*
X01459*
X01454Y02074*
Y02069*
X01459Y02064*
X01468*
X01473Y0206*
Y02055*
X01468Y0205*
X01459*
X01454Y02055*
X01503Y02079D02*
X01483D01*
Y0205*
X01503*
X01483Y02064D02*
X01493D01*
X01513Y02079D02*
Y0205D01*
X01533*
X01468Y02034D02*
X01459D01*
X01454Y02029*
Y0201*
X01459Y02005*
X01468*
X01473Y0201*
Y02029*
X01468Y02034*
X01503Y02029D02*
X01498Y02034D01*
X01488*
X01483Y02029*
Y02024*
X01488Y02019*
X01498*
X01503Y02015*
Y0201*
X01498Y02005*
X01488*
X01483Y0201*
X01533Y02029D02*
X01528Y02034D01*
X01518*
X01513Y02029*
Y02024*
X01518Y02019*
X01528*
X01533Y02015*
Y0201*
X01528Y02005*
X01518*
X01513Y0201*
X01543Y02D02*
X01563D01*
X01593Y02029D02*
X01588Y02034D01*
X01578*
X01573Y02029*
Y02024*
X01578Y02019*
X01588*
X01593Y02015*
Y0201*
X01588Y02005*
X01578*
X01573Y0201*
X01623Y02034D02*
X01603D01*
Y02005*
X01623*
X01603Y02019D02*
X01613D01*
X01633Y02034D02*
Y02005D01*
X01653*
X01468Y01989D02*
X01459D01*
X01454Y01984*
Y01965*
X01459Y0196*
X01468*
X01473Y01965*
Y01984*
X01468Y01989*
X01503D02*
X01483D01*
Y0196*
X01503*
X01483Y01975D02*
X01493D01*
X01513Y0196D02*
Y01989D01*
X01533Y0196*
Y01989*
X01454Y01944D02*
Y01915D01*
X01468*
X01473Y0192*
Y01925*
X01468Y01929*
X01454*
X01468*
X01473Y01934*
Y01939*
X01468Y01944*
X01454*
X01483D02*
X01493D01*
X01488*
Y01915*
X01483*
X01493*
X01528Y01939D02*
X01523Y01944D01*
X01513*
X01508Y01939*
Y01934*
X01513Y01929*
X01523*
X01528Y01925*
Y0192*
X01523Y01915*
X01513*
X01508Y0192*
X01538Y01944D02*
X01558D01*
X01548*
Y01915*
X01588Y01944D02*
X01568D01*
Y01915*
X01588*
X01568Y01929D02*
X01578D01*
X01598Y01915D02*
Y01944D01*
X01618Y01915*
Y01944*
X00403Y0129D02*
X00408Y01295D01*
Y01305*
X00403Y0131*
X00384*
X00379Y01305*
Y01295*
X00384Y0129*
X00403Y0128D02*
X00408Y01275D01*
Y01265*
X00403Y0126*
X00398*
X00393Y01265*
X00389Y0126*
X00384*
X00379Y01265*
Y01275*
X00384Y0128*
X00389*
X00393Y01275*
X00398Y0128*
X00403*
X00393Y01275D02*
Y01265D01*
X00379Y01235D02*
X00408D01*
X00393Y0125*
Y0123*
X00452Y0129D02*
X00457Y01295D01*
Y01305*
X00452Y0131*
X00433*
X00428Y01305*
Y01295*
X00433Y0129*
X00452Y0128D02*
X00457Y01275D01*
Y01265*
X00452Y0126*
X00447*
X00443Y01265*
X00438Y0126*
X00433*
X00428Y01265*
Y01275*
X00433Y0128*
X00438*
X00443Y01275*
X00447Y0128*
X00452*
X00443Y01275D02*
Y01265D01*
X00452Y0125D02*
X00457Y01245D01*
Y01235*
X00452Y0123*
X00447*
X00443Y01235*
Y0124*
Y01235*
X00438Y0123*
X00433*
X00428Y01235*
Y01245*
X00433Y0125*
X01494Y01295D02*
X01469D01*
Y01307*
X01473Y01311*
X01481*
X01485Y01307*
Y01295*
Y01303D02*
X01494Y01311D01*
X01469Y01336D02*
X01473Y01328D01*
X01481Y01319*
X01489*
X01494Y01324*
Y01332*
X01489Y01336*
X01485*
X01481Y01332*
Y01319*
X01469Y01344D02*
Y01361D01*
X01473*
X01489Y01344*
X01494*
X01461Y01296D02*
X01436D01*
Y01308*
X0144Y01312*
X01448*
X01452Y01308*
Y01296*
Y01304D02*
X01461Y01312D01*
X01436Y01337D02*
X0144Y01329D01*
X01448Y0132*
X01456*
X01461Y01325*
Y01333*
X01456Y01337*
X01452*
X01448Y01333*
Y0132*
X01461Y01362D02*
Y01345D01*
X01444Y01362*
X0144*
X01436Y01358*
Y0135*
X0144Y01345*
X03434Y01194D02*
Y01175D01*
X03444Y01165*
X03453Y01175*
Y01194*
X03463Y01165D02*
X03473D01*
X03468*
Y01194*
X03463Y01189*
X03508Y01165D02*
X03488D01*
X03508Y01184*
Y01189*
X03503Y01194*
X03493*
X03488Y01189*
X03518Y01165D02*
Y01194D01*
X03533*
X03538Y01189*
Y01179*
X03533Y01175*
X03518*
X03548Y01189D02*
X03553Y01194D01*
X03563*
X03568Y01189*
Y0117*
X03563Y01165*
X03553*
X03548Y0117*
Y01189*
X03283Y01799D02*
X03274D01*
X03279*
Y01775*
X03274Y0177*
X03269*
X03264Y01775*
X03293D02*
X03298Y0177D01*
X03308*
X03313Y01775*
Y01794*
X03308Y01799*
X03298*
X03293Y01794*
Y01789*
X03298Y01784*
X03313*
X03444Y01409D02*
Y0138D01*
X03463*
X03488Y01409D02*
X03478D01*
X03473Y01404*
Y01385*
X03478Y0138*
X03488*
X03493Y01385*
Y01404*
X03488Y01409*
X03523Y01404D02*
X03518Y01409D01*
X03508*
X03503Y01404*
Y01385*
X03508Y0138*
X03518*
X03523Y01385*
X03533Y01409D02*
Y0138D01*
Y0139*
X03553Y01409*
X03538Y01394*
X03553Y0138*
X03444Y00974D02*
Y00955D01*
X03454Y00945*
X03463Y00955*
Y00974*
X03473Y00969D02*
X03478Y00974D01*
X03488*
X03493Y00969*
Y00964*
X03488Y00959*
X03483*
X03488*
X03493Y00955*
Y0095*
X03488Y00945*
X03478*
X03473Y0095*
X03503Y00945D02*
Y00974D01*
X03518*
X03523Y00969*
Y00959*
X03518Y00955*
X03503*
X03533Y00969D02*
X03538Y00974D01*
X03548*
X03553Y00969*
Y00964*
X03548Y00959*
X03543*
X03548*
X03553Y00955*
Y0095*
X03548Y00945*
X03538*
X03533Y0095*
X02639Y0159D02*
Y01619D01*
X02654*
X02658Y01614*
Y01605*
X02654Y016*
X02639*
X02649D02*
X02658Y0159D01*
X02668Y01614D02*
X02673Y01619D01*
X02683*
X02688Y01614*
Y01609*
X02683Y01605*
X02678*
X02683*
X02688Y016*
Y01595*
X02683Y0159*
X02673*
X02668Y01595*
X02718Y01619D02*
X02708Y01614D01*
X02698Y01605*
Y01595*
X02703Y0159*
X02713*
X02718Y01595*
Y016*
X02713Y01605*
X02698*
X02924Y01419D02*
X02943D01*
X02934*
Y0139*
X02953D02*
Y01419D01*
X02968*
X02973Y01414*
Y01404*
X02968Y014*
X02953*
X02998Y0139D02*
Y01419D01*
X02983Y01404*
X03003*
X03019Y01419D02*
X03038D01*
X03029*
Y0139*
X03048D02*
Y01419D01*
X03063*
X03068Y01414*
Y01404*
X03063Y014*
X03048*
X03078Y01414D02*
X03083Y01419D01*
X03093*
X03098Y01414*
Y01409*
X03093Y01404*
X03088*
X03093*
X03098Y014*
Y01395*
X03093Y0139*
X03083*
X03078Y01395*
X03171Y01639D02*
X03161D01*
X03166*
Y01615*
X03161Y0161*
X03156*
X03151Y01615*
X03181Y01634D02*
X03186Y01639D01*
X03196*
X03201Y01634*
Y01629*
X03196Y01624*
X03201Y0162*
Y01615*
X03196Y0161*
X03186*
X03181Y01615*
Y0162*
X03186Y01624*
X03181Y01629*
Y01634*
X03186Y01624D02*
X03196D01*
X02843Y01699D02*
X02834D01*
X02838*
Y01675*
X02834Y0167*
X02829*
X02824Y01675*
X02853Y01699D02*
X02873D01*
Y01694*
X02853Y01675*
Y0167*
X03289Y00979D02*
Y00955D01*
X03294Y0095*
X03303*
X03308Y00955*
Y00979*
X03318Y0095D02*
X03328D01*
X03323*
Y00979*
X03318Y00974*
X03343D02*
X03348Y00979D01*
X03358*
X03363Y00974*
Y00969*
X03358Y00965*
X03363Y0096*
Y00955*
X03358Y0095*
X03348*
X03343Y00955*
Y0096*
X03348Y00965*
X03343Y00969*
Y00974*
X03348Y00965D02*
X03358D01*
X03289Y01414D02*
Y0139D01*
X03294Y01385*
X03303*
X03308Y0139*
Y01414*
X03318Y01385D02*
X03328D01*
X03323*
Y01414*
X03318Y01409*
X03363Y01414D02*
X03353Y01409D01*
X03343Y01399*
Y0139*
X03348Y01385*
X03358*
X03363Y0139*
Y01395*
X03358Y01399*
X03343*
X03534Y0145D02*
X03559D01*
X03564Y01455*
Y01465*
X03559Y01469*
X03534*
X03564Y01479D02*
Y01489D01*
Y01484*
X03534*
X03539Y01479*
X03564Y01524D02*
Y01504D01*
X03544Y01524*
X03539*
X03534Y01519*
Y01509*
X03539Y01504*
Y0125D02*
X03564D01*
X03569Y01255*
Y01264*
X03564Y01269*
X03539*
X03569Y01279D02*
Y01289D01*
Y01284*
X03539*
X03544Y01279*
X03569Y01304D02*
Y01314D01*
Y01309*
X03539*
X03544Y01304*
X03154Y01445D02*
X03124D01*
Y0146*
X03129Y01464*
X03139*
X03144Y0146*
Y01445*
Y01455D02*
X03154Y01464D01*
X03124Y01494D02*
X03129Y01484D01*
X03139Y01474*
X03149*
X03154Y01479*
Y01489*
X03149Y01494*
X03144*
X03139Y01489*
Y01474*
X03124Y01524D02*
X03129Y01514D01*
X03139Y01504*
X03149*
X03154Y01509*
Y01519*
X03149Y01524*
X03144*
X03139Y01519*
Y01504*
X03249Y0136D02*
X03219D01*
Y01374*
X03224Y01379*
X03234*
X03239Y01374*
Y0136*
Y0137D02*
X03249Y01379D01*
X03219Y01409D02*
X03224Y01399D01*
X03234Y01389*
X03244*
X03249Y01394*
Y01404*
X03244Y01409*
X03239*
X03234Y01404*
Y01389*
X03249Y01419D02*
Y01429D01*
Y01424*
X03219*
X03224Y01419*
X03249Y01145D02*
X03219D01*
Y01159*
X03224Y01164*
X03234*
X03239Y01159*
Y01145*
Y01155D02*
X03249Y01164D01*
X03219Y01194D02*
X03224Y01184D01*
X03234Y01174*
X03244*
X03249Y01179*
Y01189*
X03244Y01194*
X03239*
X03234Y01189*
Y01174*
X03224Y01204D02*
X03219Y01209D01*
Y01219*
X03224Y01224*
X03244*
X03249Y01219*
Y01209*
X03244Y01204*
X03224*
X01974Y01099D02*
Y01075D01*
X01979Y0107*
X01989*
X01993Y01075*
Y01099*
X02023Y0107D02*
X02003D01*
X02023Y01089*
Y01094*
X02018Y01099*
X02008*
X02003Y01094*
X02754Y00419D02*
Y00395D01*
X02759Y0039*
X02769*
X02773Y00395*
Y00419*
X02783Y00395D02*
X02788Y0039D01*
X02798*
X02803Y00395*
Y00414*
X02798Y00419*
X02788*
X02783Y00414*
Y00409*
X02788Y00404*
X02803*
X00979Y01839D02*
Y01815D01*
X00984Y0181*
X00994*
X00998Y01815*
Y01839*
X01008D02*
X01028D01*
Y01834*
X01008Y01815*
Y0181*
X00864Y01179D02*
Y01155D01*
X00869Y0115*
X00879*
X00883Y01155*
Y01179*
X00913D02*
X00903Y01174D01*
X00893Y01164*
Y01155*
X00898Y0115*
X00908*
X00913Y01155*
Y0116*
X00908Y01164*
X00893*
X01184Y00499D02*
Y00475D01*
X01189Y0047*
X01198*
X01203Y00475*
Y00499*
X01233D02*
X01213D01*
Y00485*
X01223Y00489*
X01228*
X01233Y00485*
Y00475*
X01228Y0047*
X01218*
X01213Y00475*
X01264Y00314D02*
Y0029D01*
X01269Y00285*
X01279*
X01283Y0029*
Y00314*
X01293Y00309D02*
X01298Y00314D01*
X01308*
X01313Y00309*
Y00304*
X01308Y003*
X01303*
X01308*
X01313Y00295*
Y0029*
X01308Y00285*
X01298*
X01293Y0029*
X02254Y00274D02*
Y0025D01*
X02259Y00245*
X02269*
X02273Y0025*
Y00274*
X02283Y00245D02*
X02293D01*
X02288*
Y00274*
X02283Y00269*
X00553Y00449D02*
X00549Y00454D01*
X00539*
X00534Y00449*
Y00444*
X00539Y00439*
X00549*
X00553Y00435*
Y0043*
X00549Y00425*
X00539*
X00534Y0043*
X00563Y00454D02*
Y00425D01*
X00573Y00435*
X00583Y00425*
Y00454*
X00608Y00425D02*
Y00454D01*
X00593Y00439*
X00613*
X00949Y00199D02*
X00944Y00195D01*
Y00185*
X00949Y0018*
X00954*
X00959Y00185*
Y00195*
X00964Y00199*
X00969*
X00974Y00195*
Y00185*
X00969Y0018*
X00944Y00209D02*
X00974D01*
X00964Y00219*
X00974Y00229*
X00944*
X00949Y00239D02*
X00944Y00244D01*
Y00254*
X00949Y00259*
X00954*
X00959Y00254*
Y00249*
Y00254*
X00964Y00259*
X00969*
X00974Y00254*
Y00244*
X00969Y00239*
X03383Y00929D02*
X03378Y00934D01*
X03369*
X03364Y00929*
Y00924*
X03369Y0092*
X03378*
X03383Y00915*
Y0091*
X03378Y00905*
X03369*
X03364Y0091*
X03393Y00934D02*
Y00905D01*
X03403Y00915*
X03413Y00905*
Y00934*
X03423Y00905D02*
X03433D01*
X03428*
Y00934*
X03423Y00929*
X01704Y0055D02*
X01674D01*
Y00564*
X01679Y00569*
X01689*
X01694Y00564*
Y0055*
Y0056D02*
X01704Y00569D01*
X01674Y00599D02*
Y00579D01*
X01689*
X01684Y00589*
Y00594*
X01689Y00599*
X01699*
X01704Y00594*
Y00584*
X01699Y00579*
Y00609D02*
X01704Y00614D01*
Y00624*
X01699Y00629*
X01679*
X01674Y00624*
Y00614*
X01679Y00609*
X01684*
X01689Y00614*
Y00629*
X00669Y0046D02*
Y00489D01*
X00684*
X00688Y00484*
Y00474*
X00684Y0047*
X00669*
X00679D02*
X00688Y0046D01*
X00718Y00489D02*
X00698D01*
Y00474*
X00708Y00479*
X00713*
X00718Y00474*
Y00465*
X00713Y0046*
X00703*
X00698Y00465*
X00728Y00484D02*
X00733Y00489D01*
X00743*
X00748Y00484*
Y00479*
X00743Y00474*
X00748Y0047*
Y00465*
X00743Y0046*
X00733*
X00728Y00465*
Y0047*
X00733Y00474*
X00728Y00479*
Y00484*
X00733Y00474D02*
X00743D01*
X01414Y0164D02*
Y01669D01*
X01429*
X01433Y01664*
Y01654*
X01429Y0165*
X01414*
X01424D02*
X01433Y0164D01*
X01463Y01669D02*
X01443D01*
Y01654*
X01453Y01659*
X01458*
X01463Y01654*
Y01645*
X01458Y0164*
X01448*
X01443Y01645*
X01488Y0164D02*
Y01669D01*
X01473Y01654*
X01493*
X01414Y01695D02*
Y01724D01*
X01429*
X01433Y01719*
Y0171*
X01429Y01705*
X01414*
X01424D02*
X01433Y01695D01*
X01463Y01724D02*
X01443D01*
Y0171*
X01453Y01714*
X01458*
X01463Y0171*
Y017*
X01458Y01695*
X01448*
X01443Y017*
X01493Y01695D02*
X01473D01*
X01493Y01714*
Y01719*
X01488Y01724*
X01478*
X01473Y01719*
X01414Y0175D02*
Y01779D01*
X01429*
X01433Y01774*
Y01764*
X01429Y0176*
X01414*
X01424D02*
X01433Y0175D01*
X01463Y01779D02*
X01443D01*
Y01764*
X01453Y01769*
X01458*
X01463Y01764*
Y01755*
X01458Y0175*
X01448*
X01443Y01755*
X01473Y0175D02*
X01483D01*
X01478*
Y01779*
X01473Y01774*
X01269Y0117D02*
Y01199D01*
X01284*
X01288Y01194*
Y01185*
X01284Y0118*
X01269*
X01279D02*
X01288Y0117D01*
X01318Y01199D02*
X01298D01*
Y01185*
X01308Y01189*
X01313*
X01318Y01185*
Y01175*
X01313Y0117*
X01303*
X01298Y01175*
X01348Y01199D02*
X01328D01*
Y01185*
X01338Y01189*
X01343*
X01348Y01185*
Y01175*
X01343Y0117*
X01333*
X01328Y01175*
X01269Y01235D02*
Y01264D01*
X01284*
X01288Y01259*
Y01249*
X01284Y01245*
X01269*
X01279D02*
X01288Y01235D01*
X01318Y01264D02*
X01298D01*
Y01249*
X01308Y01254*
X01313*
X01318Y01249*
Y0124*
X01313Y01235*
X01303*
X01298Y0124*
X01328Y01259D02*
X01333Y01264D01*
X01343*
X01348Y01259*
Y01254*
X01343Y01249*
X01338*
X01343*
X01348Y01245*
Y0124*
X01343Y01235*
X01333*
X01328Y0124*
X01271Y01281D02*
Y0131D01*
X01286*
X0129Y01305*
Y01295*
X01286Y01291*
X01271*
X01281D02*
X0129Y01281D01*
X0132Y0131D02*
X013D01*
Y01295*
X0131Y013*
X01315*
X0132Y01295*
Y01286*
X01315Y01281*
X01305*
X013Y01286*
X0133Y01305D02*
X01335Y0131D01*
X01345*
X0135Y01305*
Y01286*
X01345Y01281*
X01335*
X0133Y01286*
Y01305*
X00814Y00875D02*
Y00904D01*
X00828*
X00833Y00899*
Y00889*
X00828Y00885*
X00814*
X00824D02*
X00833Y00875D01*
X00858D02*
Y00904D01*
X00843Y00889*
X00863*
X00873Y0088D02*
X00878Y00875D01*
X00888*
X00893Y0088*
Y00899*
X00888Y00904*
X00878*
X00873Y00899*
Y00894*
X00878Y00889*
X00893*
X00814Y00835D02*
Y00864D01*
X00828*
X00833Y00859*
Y0085*
X00828Y00845*
X00814*
X00824D02*
X00833Y00835D01*
X00858D02*
Y00864D01*
X00843Y0085*
X00863*
X00873Y00859D02*
X00878Y00864D01*
X00888*
X00893Y00859*
Y00854*
X00888Y0085*
X00893Y00845*
Y0084*
X00888Y00835*
X00878*
X00873Y0084*
Y00845*
X00878Y0085*
X00873Y00854*
Y00859*
X00878Y0085D02*
X00888D01*
X00814Y0079D02*
Y00819D01*
X00828*
X00833Y00814*
Y00805*
X00828Y008*
X00814*
X00824D02*
X00833Y0079D01*
X00858D02*
Y00819D01*
X00843Y00805*
X00863*
X00873Y00819D02*
X00893D01*
Y00814*
X00873Y00795*
Y0079*
X01259Y00075D02*
Y00104D01*
X01274*
X01278Y00099*
Y00089*
X01274Y00085*
X01259*
X01269D02*
X01278Y00075D01*
X01288Y00099D02*
X01293Y00104D01*
X01303*
X01308Y00099*
Y00094*
X01303Y00089*
X01298*
X01303*
X01308Y00085*
Y0008*
X01303Y00075*
X01293*
X01288Y0008*
X01318Y00099D02*
X01323Y00104D01*
X01333*
X01338Y00099*
Y00094*
X01333Y00089*
X01328*
X01333*
X01338Y00085*
Y0008*
X01333Y00075*
X01323*
X01318Y0008*
X03489Y0187D02*
Y01899D01*
X03503*
X03508Y01894*
Y01884*
X03503Y0188*
X03489*
X03499D02*
X03508Y0187D01*
X03518Y01894D02*
X03523Y01899D01*
X03533*
X03538Y01894*
Y01889*
X03533Y01884*
X03528*
X03533*
X03538Y0188*
Y01875*
X03533Y0187*
X03523*
X03518Y01875*
X03568Y0187D02*
X03548D01*
X03568Y01889*
Y01894*
X03563Y01899*
X03553*
X03548Y01894*
X03489Y0195D02*
Y01979D01*
X03503*
X03508Y01974*
Y01965*
X03503Y0196*
X03489*
X03499D02*
X03508Y0195D01*
X03518Y01974D02*
X03523Y01979D01*
X03533*
X03538Y01974*
Y01969*
X03533Y01965*
X03528*
X03533*
X03538Y0196*
Y01955*
X03533Y0195*
X03523*
X03518Y01955*
X03548Y0195D02*
X03558D01*
X03553*
Y01979*
X03548Y01974*
X03489Y0203D02*
Y02059D01*
X03503*
X03508Y02054*
Y02045*
X03503Y0204*
X03489*
X03499D02*
X03508Y0203D01*
X03518Y02054D02*
X03523Y02059D01*
X03533*
X03538Y02054*
Y02049*
X03533Y02045*
X03528*
X03533*
X03538Y0204*
Y02035*
X03533Y0203*
X03523*
X03518Y02035*
X03548Y02054D02*
X03553Y02059D01*
X03563*
X03568Y02054*
Y02035*
X03563Y0203*
X03553*
X03548Y02035*
Y02054*
X0175Y01296D02*
X01725D01*
Y01308*
X01729Y01312*
X01737*
X01741Y01308*
Y01296*
Y01304D02*
X0175Y01312D01*
Y01337D02*
Y0132D01*
X01733Y01337*
X01729*
X01725Y01333*
Y01325*
X01729Y0132*
X01745Y01345D02*
X0175Y0135D01*
Y01358*
X01745Y01362*
X01729*
X01725Y01358*
Y0135*
X01729Y01345*
X01733*
X01737Y0135*
Y01362*
X03489Y0183D02*
Y01859D01*
X03503*
X03508Y01854*
Y01845*
X03503Y0184*
X03489*
X03499D02*
X03508Y0183D01*
X03538D02*
X03518D01*
X03538Y01849*
Y01854*
X03533Y01859*
X03523*
X03518Y01854*
X03548D02*
X03553Y01859D01*
X03563*
X03568Y01854*
Y01849*
X03563Y01845*
X03568Y0184*
Y01835*
X03563Y0183*
X03553*
X03548Y01835*
Y0184*
X03553Y01845*
X03548Y01849*
Y01854*
X03553Y01845D02*
X03563D01*
X03489Y0191D02*
Y01939D01*
X03503*
X03508Y01934*
Y01924*
X03503Y0192*
X03489*
X03499D02*
X03508Y0191D01*
X03538D02*
X03518D01*
X03538Y01929*
Y01934*
X03533Y01939*
X03523*
X03518Y01934*
X03548Y01939D02*
X03568D01*
Y01934*
X03548Y01915*
Y0191*
X03489Y0199D02*
Y02019D01*
X03503*
X03508Y02014*
Y02005*
X03503Y02*
X03489*
X03499D02*
X03508Y0199D01*
X03538D02*
X03518D01*
X03538Y02009*
Y02014*
X03533Y02019*
X03523*
X03518Y02014*
X03568Y02019D02*
X03558Y02014D01*
X03548Y02005*
Y01995*
X03553Y0199*
X03563*
X03568Y01995*
Y02*
X03563Y02005*
X03548*
X01718Y01295D02*
X01693D01*
Y01307*
X01697Y01311*
X01705*
X01709Y01307*
Y01295*
Y01303D02*
X01718Y01311D01*
Y01336D02*
Y01319D01*
X01701Y01336*
X01697*
X01693Y01332*
Y01324*
X01697Y01319*
X01693Y01361D02*
Y01344D01*
X01705*
X01701Y01353*
Y01357*
X01705Y01361*
X01713*
X01718Y01357*
Y01349*
X01713Y01344*
X01687Y01295D02*
X01662D01*
Y01307*
X01666Y01311*
X01674*
X01678Y01307*
Y01295*
Y01303D02*
X01687Y01311D01*
Y01336D02*
Y0132D01*
X0167Y01336*
X01666*
X01662Y01332*
Y01324*
X01666Y0132*
X01687Y01357D02*
X01662D01*
X01674Y01345*
Y01361*
X01655Y01296D02*
X0163D01*
Y01308*
X01634Y01312*
X01642*
X01646Y01308*
Y01296*
Y01304D02*
X01655Y01312D01*
Y01337D02*
Y0132D01*
X01638Y01337*
X01634*
X0163Y01333*
Y01325*
X01634Y0132*
Y01345D02*
X0163Y0135D01*
Y01358*
X01634Y01362*
X01638*
X01642Y01358*
Y01354*
Y01358*
X01646Y01362*
X0165*
X01655Y01358*
Y0135*
X0165Y01345*
X01623Y01296D02*
X01598D01*
Y01308*
X01602Y01312*
X0161*
X01614Y01308*
Y01296*
Y01304D02*
X01623Y01312D01*
Y01337D02*
Y0132D01*
X01606Y01337*
X01602*
X01598Y01333*
Y01325*
X01602Y0132*
X01623Y01362D02*
Y01345D01*
X01606Y01362*
X01602*
X01598Y01358*
Y0135*
X01602Y01345*
X0159Y01297D02*
X01565D01*
Y01309*
X01569Y01313*
X01577*
X01581Y01309*
Y01297*
Y01305D02*
X0159Y01313D01*
Y01338D02*
Y01321D01*
X01573Y01338*
X01569*
X01565Y01334*
Y01326*
X01569Y01321*
X0159Y01346D02*
Y01355D01*
Y01351*
X01565*
X01569Y01346*
X01558Y01296D02*
X01533D01*
Y01308*
X01537Y01312*
X01545*
X01549Y01308*
Y01296*
Y01304D02*
X01558Y01312D01*
Y01337D02*
Y0132D01*
X01541Y01337*
X01537*
X01533Y01333*
Y01325*
X01537Y0132*
Y01345D02*
X01533Y0135D01*
Y01358*
X01537Y01362*
X01553*
X01558Y01358*
Y0135*
X01553Y01345*
X01537*
X01526Y01296D02*
X01501D01*
Y01308*
X01505Y01312*
X01513*
X01517Y01308*
Y01296*
Y01304D02*
X01526Y01312D01*
Y0132D02*
Y01329D01*
Y01325*
X01501*
X01505Y0132*
X01521Y01341D02*
X01526Y01345D01*
Y01354*
X01521Y01358*
X01505*
X01501Y01354*
Y01345*
X01505Y01341*
X01509*
X01513Y01345*
Y01358*
X01783Y01296D02*
X01758D01*
Y01308*
X01762Y01312*
X0177*
X01774Y01308*
Y01296*
Y01304D02*
X01783Y01312D01*
Y0132D02*
Y01329D01*
Y01325*
X01758*
X01762Y0132*
Y01341D02*
X01758Y01345D01*
Y01354*
X01762Y01358*
X01766*
X0177Y01354*
X01774Y01358*
X01778*
X01783Y01354*
Y01345*
X01778Y01341*
X01774*
X0177Y01345*
X01766Y01341*
X01762*
X0177Y01345D02*
Y01354D01*
X02679Y01355D02*
X02649D01*
Y01369*
X02654Y01374*
X02664*
X02669Y01369*
Y01355*
Y01365D02*
X02679Y01374D01*
Y01384D02*
Y01394D01*
Y01389*
X02649*
X02654Y01384*
X02649Y01409D02*
Y01429D01*
X02654*
X02674Y01409*
X02679*
X02719Y01355D02*
X02689D01*
Y01369*
X02694Y01374*
X02704*
X02709Y01369*
Y01355*
Y01365D02*
X02719Y01374D01*
Y01384D02*
Y01394D01*
Y01389*
X02689*
X02694Y01384*
X02689Y01429D02*
X02694Y01419D01*
X02704Y01409*
X02714*
X02719Y01414*
Y01424*
X02714Y01429*
X02709*
X02704Y01424*
Y01409*
X02539Y0116D02*
X02509D01*
Y01174*
X02514Y01179*
X02524*
X02529Y01174*
Y0116*
Y0117D02*
X02539Y01179D01*
Y01189D02*
Y01199D01*
Y01194*
X02509*
X02514Y01189*
X02539Y01214D02*
Y01224D01*
Y01219*
X02509*
X02514Y01214*
X02579Y0116D02*
X02549D01*
Y01174*
X02554Y01179*
X02564*
X02569Y01174*
Y0116*
Y0117D02*
X02579Y01179D01*
Y01189D02*
Y01199D01*
Y01194*
X02549*
X02554Y01189*
X02549Y01234D02*
Y01214D01*
X02564*
X02559Y01224*
Y01229*
X02564Y01234*
X02574*
X02579Y01229*
Y01219*
X02574Y01214*
X01289Y00925D02*
Y00954D01*
X01304*
X01308Y00949*
Y00939*
X01304Y00935*
X01289*
X01299D02*
X01308Y00925D01*
X01318D02*
X01328D01*
X01323*
Y00954*
X01318Y00949*
X01358Y00925D02*
Y00954D01*
X01343Y00939*
X01363*
X02619Y0116D02*
X02589D01*
Y01174*
X02594Y01179*
X02604*
X02609Y01174*
Y0116*
Y0117D02*
X02619Y01179D01*
Y01189D02*
Y01199D01*
Y01194*
X02589*
X02594Y01189*
Y01214D02*
X02589Y01219D01*
Y01229*
X02594Y01234*
X02599*
X02604Y01229*
Y01224*
Y01229*
X02609Y01234*
X02614*
X02619Y01229*
Y01219*
X02614Y01214*
X01289Y0097D02*
Y00999D01*
X01304*
X01308Y00994*
Y00985*
X01304Y0098*
X01289*
X01299D02*
X01308Y0097D01*
X01318D02*
X01328D01*
X01323*
Y00999*
X01318Y00994*
X01363Y0097D02*
X01343D01*
X01363Y00989*
Y00994*
X01358Y00999*
X01348*
X01343Y00994*
X03489Y0207D02*
Y02099D01*
X03503*
X03508Y02094*
Y02085*
X03503Y0208*
X03489*
X03499D02*
X03508Y0207D01*
X03518Y02094D02*
X03523Y02099D01*
X03533*
X03538Y02094*
Y02089*
X03533Y02085*
X03538Y0208*
Y02075*
X03533Y0207*
X03523*
X03518Y02075*
Y0208*
X03523Y02085*
X03518Y02089*
Y02094*
X03523Y02085D02*
X03533D01*
X03489Y0211D02*
Y02139D01*
X03503*
X03508Y02134*
Y02124*
X03503Y0212*
X03489*
X03499D02*
X03508Y0211D01*
X03518Y02139D02*
X03538D01*
Y02134*
X03518Y02115*
Y0211*
X03489Y0215D02*
Y02179D01*
X03504*
X03508Y02174*
Y02164*
X03504Y0216*
X03489*
X03499D02*
X03508Y0215D01*
X03538Y02179D02*
X03528Y02174D01*
X03518Y02164*
Y02155*
X03523Y0215*
X03533*
X03538Y02155*
Y0216*
X03533Y02164*
X03518*
X03489Y0179D02*
Y01819D01*
X03503*
X03508Y01814*
Y01804*
X03503Y018*
X03489*
X03499D02*
X03508Y0179D01*
X03538Y01819D02*
X03518D01*
Y01804*
X03528Y01809*
X03533*
X03538Y01804*
Y01795*
X03533Y0179*
X03523*
X03518Y01795*
X02069Y0033D02*
X02039D01*
Y00344*
X02044Y00349*
X02054*
X02059Y00344*
Y0033*
Y0034D02*
X02069Y00349D01*
Y00374D02*
X02039D01*
X02054Y00359*
Y00379*
X03164Y0084D02*
Y00869D01*
X03178*
X03183Y00864*
Y00855*
X03178Y0085*
X03164*
X03174D02*
X03183Y0084D01*
X03193Y00864D02*
X03198Y00869D01*
X03208*
X03213Y00864*
Y00859*
X03208Y00855*
X03203*
X03208*
X03213Y0085*
Y00845*
X03208Y0084*
X03198*
X03193Y00845*
X03164Y00795D02*
Y00824D01*
X03178*
X03183Y00819*
Y00809*
X03178Y00805*
X03164*
X03174D02*
X03183Y00795D01*
X03213D02*
X03193D01*
X03213Y00814*
Y00819*
X03208Y00824*
X03198*
X03193Y00819*
X03164Y0075D02*
Y00779D01*
X03178*
X03183Y00774*
Y00764*
X03178Y0076*
X03164*
X03174D02*
X03183Y0075D01*
X03193D02*
X03203D01*
X03198*
Y00779*
X03193Y00774*
X03059Y00629D02*
Y006D01*
X03078*
X03088D02*
X03098D01*
X03093*
Y00629*
X03088Y00624*
X03113D02*
X03118Y00629D01*
X03128*
X03133Y00624*
Y00605*
X03128Y006*
X03118*
X03113Y00605*
Y00624*
X03059Y00564D02*
Y00535D01*
X03078*
X03088Y0054D02*
X03093Y00535D01*
X03103*
X03108Y0054*
Y00559*
X03103Y00564*
X03093*
X03088Y00559*
Y00554*
X03093Y0055*
X03108*
X02759Y00149D02*
Y0012D01*
X02778*
X02788Y00149D02*
X02808D01*
Y00144*
X02788Y00125*
Y0012*
X01764Y01144D02*
Y01115D01*
X01783*
X01813Y01144D02*
X01803Y01139D01*
X01793Y01129*
Y0112*
X01798Y01115*
X01808*
X01813Y0112*
Y01125*
X01808Y01129*
X01793*
X02534Y00104D02*
Y00075D01*
X02553*
X02583D02*
X02563D01*
X02583Y00094*
Y00099*
X02578Y00104*
X02568*
X02563Y00099*
X01889Y00244D02*
Y00215D01*
X01908*
X01918D02*
X01928D01*
X01923*
Y00244*
X01918Y00239*
X02839Y01219D02*
Y0119D01*
Y012*
X02858Y01219*
X02844Y01204*
X02858Y0119*
X02868Y01214D02*
X02873Y01219D01*
X02883*
X02888Y01214*
Y01209*
X02883Y01204*
X02878*
X02883*
X02888Y012*
Y01195*
X02883Y0119*
X02873*
X02868Y01195*
X02839Y01119D02*
Y0109D01*
Y011*
X02858Y01119*
X02844Y01104*
X02858Y0109*
X02888D02*
X02868D01*
X02888Y01109*
Y01114*
X02883Y01119*
X02873*
X02868Y01114*
X02849Y01014D02*
Y00985D01*
Y00995*
X02868Y01014*
X02854Y00999*
X02868Y00985*
X02878D02*
X02888D01*
X02883*
Y01014*
X02878Y01009*
X02088Y00204D02*
X02079D01*
X02084*
Y0018*
X02079Y00175*
X02074*
X02069Y0018*
X02098Y00175D02*
X02108D01*
X02103*
Y00204*
X02098Y00199*
X02738Y00534D02*
X02734Y00539D01*
X02724*
X02719Y00534*
Y00515*
X02724Y0051*
X02734*
X02738Y00515*
X02748Y00534D02*
X02753Y00539D01*
X02763*
X02768Y00534*
Y00529*
X02763Y00525*
X02768Y0052*
Y00515*
X02763Y0051*
X02753*
X02748Y00515*
Y0052*
X02753Y00525*
X02748Y00529*
Y00534*
X02753Y00525D02*
X02763D01*
X02778Y0051D02*
X02788D01*
X02783*
Y00539*
X02778Y00534*
X02463Y00399D02*
X02459Y00404D01*
X02449*
X02444Y00399*
Y0038*
X02449Y00375*
X02459*
X02463Y0038*
X02473Y00399D02*
X02478Y00404D01*
X02488*
X02493Y00399*
Y00394*
X02488Y0039*
X02493Y00385*
Y0038*
X02488Y00375*
X02478*
X02473Y0038*
Y00385*
X02478Y0039*
X02473Y00394*
Y00399*
X02478Y0039D02*
X02488D01*
X02503Y00399D02*
X02508Y00404D01*
X02518*
X02523Y00399*
Y0038*
X02518Y00375*
X02508*
X02503Y0038*
Y00399*
X01688Y00299D02*
X01684Y00304D01*
X01674*
X01669Y00299*
Y0028*
X01674Y00275*
X01684*
X01688Y0028*
X01698Y00304D02*
X01718D01*
Y00299*
X01698Y0028*
Y00275*
X01728Y0028D02*
X01733Y00275D01*
X01743*
X01748Y0028*
Y00299*
X01743Y00304*
X01733*
X01728Y00299*
Y00294*
X01733Y0029*
X01748*
X00688Y00529D02*
X00684Y00534D01*
X00674*
X00669Y00529*
Y0051*
X00674Y00505*
X00684*
X00688Y0051*
X00698Y00534D02*
X00718D01*
Y00529*
X00698Y0051*
Y00505*
X00728Y00529D02*
X00733Y00534D01*
X00743*
X00748Y00529*
Y00524*
X00743Y00519*
X00748Y00515*
Y0051*
X00743Y00505*
X00733*
X00728Y0051*
Y00515*
X00733Y00519*
X00728Y00524*
Y00529*
X00733Y00519D02*
X00743D01*
X01143Y01554D02*
X01139Y01559D01*
X01129*
X01124Y01554*
Y01535*
X01129Y0153*
X01139*
X01143Y01535*
X01153Y01559D02*
X01173D01*
Y01554*
X01153Y01535*
Y0153*
X01203D02*
X01183D01*
X01203Y01549*
Y01554*
X01198Y01559*
X01188*
X01183Y01554*
X00744Y01679D02*
X00739Y01674D01*
Y01665*
X00744Y0166*
X00764*
X00769Y01665*
Y01674*
X00764Y01679*
X00739Y01709D02*
X00744Y01699D01*
X00754Y01689*
X00764*
X00769Y01694*
Y01704*
X00764Y01709*
X00759*
X00754Y01704*
Y01689*
X00744Y01719D02*
X00739Y01724D01*
Y01734*
X00744Y01739*
X00749*
X00754Y01734*
X00759Y01739*
X00764*
X00769Y01734*
Y01724*
X00764Y01719*
X00759*
X00754Y01724*
X00749Y01719*
X00744*
X00754Y01724D02*
Y01734D01*
X01083Y01139D02*
X01079Y01144D01*
X01069*
X01064Y01139*
Y0112*
X01069Y01115*
X01079*
X01083Y0112*
X01093Y01144D02*
X01113D01*
Y01139*
X01093Y0112*
Y01115*
X01123Y01139D02*
X01128Y01144D01*
X01138*
X01143Y01139*
Y01134*
X01138Y01129*
X01133*
X01138*
X01143Y01125*
Y0112*
X01138Y01115*
X01128*
X01123Y0112*
X01293Y01357D02*
X01289Y01362D01*
X01279*
X01274Y01357*
Y01338*
X01279Y01333*
X01289*
X01293Y01338*
X01303Y01362D02*
X01323D01*
Y01357*
X01303Y01338*
Y01333*
X01333D02*
X01343D01*
X01338*
Y01362*
X01333Y01357*
X03398Y01884D02*
X03394Y01889D01*
X03384*
X03379Y01884*
Y01865*
X03384Y0186*
X03394*
X03398Y01865*
X03428Y01889D02*
X03418Y01884D01*
X03408Y01874*
Y01865*
X03413Y0186*
X03423*
X03428Y01865*
Y0187*
X03423Y01874*
X03408*
X03458Y01889D02*
X03448Y01884D01*
X03438Y01874*
Y01865*
X03443Y0186*
X03453*
X03458Y01865*
Y0187*
X03453Y01874*
X03438*
X03398Y01844D02*
X03394Y01849D01*
X03384*
X03379Y01844*
Y01825*
X03384Y0182*
X03394*
X03398Y01825*
X03428Y01849D02*
X03418Y01844D01*
X03408Y01835*
Y01825*
X03413Y0182*
X03423*
X03428Y01825*
Y0183*
X03423Y01835*
X03408*
X03458Y01849D02*
X03438D01*
Y01835*
X03448Y01839*
X03453*
X03458Y01835*
Y01825*
X03453Y0182*
X03443*
X03438Y01825*
X02573Y00814D02*
X02568Y00819D01*
X02559*
X02554Y00814*
Y00795*
X02559Y0079*
X02568*
X02573Y00795*
X02603Y00819D02*
X02593Y00814D01*
X02583Y00805*
Y00795*
X02588Y0079*
X02598*
X02603Y00795*
Y008*
X02598Y00805*
X02583*
X02628Y0079D02*
Y00819D01*
X02613Y00805*
X02633*
X02593Y00954D02*
X02588Y00959D01*
X02579*
X02574Y00954*
Y00935*
X02579Y0093*
X02588*
X02593Y00935*
X02623Y00959D02*
X02613Y00954D01*
X02603Y00944*
Y00935*
X02608Y0093*
X02618*
X02623Y00935*
Y0094*
X02618Y00944*
X02603*
X02633Y00954D02*
X02638Y00959D01*
X02648*
X02653Y00954*
Y00949*
X02648Y00944*
X02643*
X02648*
X02653Y0094*
Y00935*
X02648Y0093*
X02638*
X02633Y00935*
X03398Y02004D02*
X03394Y02009D01*
X03384*
X03379Y02004*
Y01985*
X03384Y0198*
X03394*
X03398Y01985*
X03428Y02009D02*
X03418Y02004D01*
X03408Y01994*
Y01985*
X03413Y0198*
X03423*
X03428Y01985*
Y0199*
X03423Y01994*
X03408*
X03458Y0198D02*
X03438D01*
X03458Y01999*
Y02004*
X03453Y02009*
X03443*
X03438Y02004*
X03398Y02044D02*
X03394Y02049D01*
X03384*
X03379Y02044*
Y02025*
X03384Y0202*
X03394*
X03398Y02025*
X03428Y02049D02*
X03418Y02044D01*
X03408Y02035*
Y02025*
X03413Y0202*
X03423*
X03428Y02025*
Y0203*
X03423Y02035*
X03408*
X03438Y0202D02*
X03448D01*
X03443*
Y02049*
X03438Y02044*
X01483Y00999D02*
X01478Y01004D01*
X01469*
X01464Y00999*
Y0098*
X01469Y00975*
X01478*
X01483Y0098*
X01513Y01004D02*
X01503Y00999D01*
X01493Y0099*
Y0098*
X01498Y00975*
X01508*
X01513Y0098*
Y00985*
X01508Y0099*
X01493*
X01523Y00999D02*
X01528Y01004D01*
X01538*
X01543Y00999*
Y0098*
X01538Y00975*
X01528*
X01523Y0098*
Y00999*
X02239Y01109D02*
X02234Y01105D01*
Y01095*
X02239Y0109*
X02259*
X02264Y01095*
Y01105*
X02259Y01109*
X02234Y01139D02*
Y01119D01*
X02249*
X02244Y01129*
Y01134*
X02249Y01139*
X02259*
X02264Y01134*
Y01124*
X02259Y01119*
Y01149D02*
X02264Y01154D01*
Y01164*
X02259Y01169*
X02239*
X02234Y01164*
Y01154*
X02239Y01149*
X02244*
X02249Y01154*
Y01169*
X01733Y00939D02*
X01728Y00944D01*
X01719*
X01714Y00939*
Y0092*
X01719Y00915*
X01728*
X01733Y0092*
X01763Y00944D02*
X01743D01*
Y0093*
X01753Y00934*
X01758*
X01763Y0093*
Y0092*
X01758Y00915*
X01748*
X01743Y0092*
X01773Y00939D02*
X01778Y00944D01*
X01788*
X01793Y00939*
Y00934*
X01788Y0093*
X01793Y00925*
Y0092*
X01788Y00915*
X01778*
X01773Y0092*
Y00925*
X01778Y0093*
X01773Y00934*
Y00939*
X01778Y0093D02*
X01788D01*
X03043Y00684D02*
X03039Y00689D01*
X03029*
X03024Y00684*
Y00665*
X03029Y0066*
X03039*
X03043Y00665*
X03073Y00689D02*
X03053D01*
Y00675*
X03063Y00679*
X03068*
X03073Y00675*
Y00665*
X03068Y0066*
X03058*
X03053Y00665*
X03083Y00689D02*
X03103D01*
Y00684*
X03083Y00665*
Y0066*
X03398Y01924D02*
X03394Y01929D01*
X03384*
X03379Y01924*
Y01905*
X03384Y019*
X03394*
X03398Y01905*
X03428Y01929D02*
X03408D01*
Y01914*
X03418Y01919*
X03423*
X03428Y01914*
Y01905*
X03423Y019*
X03413*
X03408Y01905*
X03458Y01929D02*
X03448Y01924D01*
X03438Y01914*
Y01905*
X03443Y019*
X03453*
X03458Y01905*
Y0191*
X03453Y01914*
X03438*
X03033Y00499D02*
X03029Y00504D01*
X03019*
X03014Y00499*
Y0048*
X03019Y00475*
X03029*
X03033Y0048*
X03063Y00504D02*
X03043D01*
Y0049*
X03053Y00494*
X03058*
X03063Y0049*
Y0048*
X03058Y00475*
X03048*
X03043Y0048*
X03093Y00504D02*
X03073D01*
Y0049*
X03083Y00494*
X03088*
X03093Y0049*
Y0048*
X03088Y00475*
X03078*
X03073Y0048*
X03398Y01804D02*
X03394Y01809D01*
X03384*
X03379Y01804*
Y01785*
X03384Y0178*
X03394*
X03398Y01785*
X03428Y01809D02*
X03408D01*
Y01794*
X03418Y01799*
X03423*
X03428Y01794*
Y01785*
X03423Y0178*
X03413*
X03408Y01785*
X03453Y0178D02*
Y01809D01*
X03438Y01794*
X03458*
X02768Y00079D02*
X02763Y00084D01*
X02754*
X02749Y00079*
Y0006*
X02754Y00055*
X02763*
X02768Y0006*
X02798Y00084D02*
X02778D01*
Y0007*
X02788Y00074*
X02793*
X02798Y0007*
Y0006*
X02793Y00055*
X02783*
X02778Y0006*
X02808Y00079D02*
X02813Y00084D01*
X02823*
X02828Y00079*
Y00074*
X02823Y0007*
X02818*
X02823*
X02828Y00065*
Y0006*
X02823Y00055*
X02813*
X02808Y0006*
X02089Y00349D02*
X02084Y00344D01*
Y00335*
X02089Y0033*
X02109*
X02114Y00335*
Y00344*
X02109Y00349*
X02084Y00379D02*
Y00359D01*
X02099*
X02094Y00369*
Y00374*
X02099Y00379*
X02109*
X02114Y00374*
Y00364*
X02109Y00359*
X02114Y00409D02*
Y00389D01*
X02094Y00409*
X02089*
X02084Y00404*
Y00394*
X02089Y00389*
X02533Y00574D02*
X02529Y00579D01*
X02519*
X02514Y00574*
Y00555*
X02519Y0055*
X02529*
X02533Y00555*
X02563Y00579D02*
X02543D01*
Y00564*
X02553Y00569*
X02558*
X02563Y00564*
Y00555*
X02558Y0055*
X02548*
X02543Y00555*
X02573Y0055D02*
X02583D01*
X02578*
Y00579*
X02573Y00574*
X02533Y00524D02*
X02529Y00529D01*
X02519*
X02514Y00524*
Y00505*
X02519Y005*
X02529*
X02533Y00505*
X02563Y00529D02*
X02543D01*
Y00514*
X02553Y00519*
X02558*
X02563Y00514*
Y00505*
X02558Y005*
X02548*
X02543Y00505*
X02573Y00524D02*
X02578Y00529D01*
X02588*
X02593Y00524*
Y00505*
X02588Y005*
X02578*
X02573Y00505*
Y00524*
X01748Y00804D02*
X01743Y00809D01*
X01734*
X01729Y00804*
Y00785*
X01734Y0078*
X01743*
X01748Y00785*
X01773Y0078D02*
Y00809D01*
X01758Y00795*
X01778*
X01788Y00785D02*
X01793Y0078D01*
X01803*
X01808Y00785*
Y00804*
X01803Y00809*
X01793*
X01788Y00804*
Y00799*
X01793Y00795*
X01808*
X03398Y02084D02*
X03394Y02089D01*
X03384*
X03379Y02084*
Y02065*
X03384Y0206*
X03394*
X03398Y02065*
X03423Y0206D02*
Y02089D01*
X03408Y02075*
X03428*
X03438Y02084D02*
X03443Y02089D01*
X03453*
X03458Y02084*
Y02079*
X03453Y02075*
X03458Y0207*
Y02065*
X03453Y0206*
X03443*
X03438Y02065*
Y0207*
X03443Y02075*
X03438Y02079*
Y02084*
X03443Y02075D02*
X03453D01*
X03398Y01964D02*
X03394Y01969D01*
X03384*
X03379Y01964*
Y01945*
X03384Y0194*
X03394*
X03398Y01945*
X03423Y0194D02*
Y01969D01*
X03408Y01955*
X03428*
X03438Y01969D02*
X03458D01*
Y01964*
X03438Y01945*
Y0194*
X01733Y00894D02*
X01728Y00899D01*
X01719*
X01714Y00894*
Y00875*
X01719Y0087*
X01728*
X01733Y00875*
X01758Y0087D02*
Y00899D01*
X01743Y00884*
X01763*
X01793Y00899D02*
X01783Y00894D01*
X01773Y00884*
Y00875*
X01778Y0087*
X01788*
X01793Y00875*
Y0088*
X01788Y00884*
X01773*
X02324Y01109D02*
X02319Y01105D01*
Y01095*
X02324Y0109*
X02344*
X02349Y01095*
Y01105*
X02344Y01109*
X02349Y01134D02*
X02319D01*
X02334Y01119*
Y01139*
X02319Y01169D02*
Y01149D01*
X02334*
X02329Y01159*
Y01164*
X02334Y01169*
X02344*
X02349Y01164*
Y01154*
X02344Y01149*
X01988Y00609D02*
X01983Y00614D01*
X01974*
X01969Y00609*
Y0059*
X01974Y00585*
X01983*
X01988Y0059*
X02013Y00585D02*
Y00614D01*
X01998Y006*
X02018*
X02043Y00585D02*
Y00614D01*
X02028Y006*
X02048*
X01733Y00984D02*
X01728Y00989D01*
X01719*
X01714Y00984*
Y00965*
X01719Y0096*
X01728*
X01733Y00965*
X01758Y0096D02*
Y00989D01*
X01743Y00975*
X01763*
X01773Y00984D02*
X01778Y00989D01*
X01788*
X01793Y00984*
Y00979*
X01788Y00975*
X01783*
X01788*
X01793Y0097*
Y00965*
X01788Y0096*
X01778*
X01773Y00965*
X01733Y01029D02*
X01728Y01034D01*
X01719*
X01714Y01029*
Y0101*
X01719Y01005*
X01728*
X01733Y0101*
X01758Y01005D02*
Y01034D01*
X01743Y01019*
X01763*
X01793Y01005D02*
X01773D01*
X01793Y01024*
Y01029*
X01788Y01034*
X01778*
X01773Y01029*
X01793Y00659D02*
X01789Y00664D01*
X01779*
X01774Y00659*
Y0064*
X01779Y00635*
X01789*
X01793Y0064*
X01818Y00635D02*
Y00664D01*
X01803Y0065*
X01823*
X01833Y00635D02*
X01843D01*
X01838*
Y00664*
X01833Y00659*
X02284Y01109D02*
X02279Y01105D01*
Y01095*
X02284Y0109*
X02304*
X02309Y01095*
Y01105*
X02304Y01109*
X02309Y01134D02*
X02279D01*
X02294Y01119*
Y01139*
X02284Y01149D02*
X02279Y01154D01*
Y01164*
X02284Y01169*
X02304*
X02309Y01164*
Y01154*
X02304Y01149*
X02284*
X01743Y00714D02*
X01738Y00719D01*
X01729*
X01724Y00714*
Y00695*
X01729Y0069*
X01738*
X01743Y00695*
X01753Y00714D02*
X01758Y00719D01*
X01768*
X01773Y00714*
Y00709*
X01768Y00704*
X01763*
X01768*
X01773Y007*
Y00695*
X01768Y0069*
X01758*
X01753Y00695*
X01783Y00714D02*
X01788Y00719D01*
X01798*
X01803Y00714*
Y00709*
X01798Y00704*
X01803Y007*
Y00695*
X01798Y0069*
X01788*
X01783Y00695*
Y007*
X01788Y00704*
X01783Y00709*
Y00714*
X01788Y00704D02*
X01798D01*
X01748Y00754D02*
X01743Y00759D01*
X01734*
X01729Y00754*
Y00735*
X01734Y0073*
X01743*
X01748Y00735*
X01758Y00754D02*
X01763Y00759D01*
X01773*
X01778Y00754*
Y00749*
X01773Y00744*
X01768*
X01773*
X01778Y0074*
Y00735*
X01773Y0073*
X01763*
X01758Y00735*
X01788Y00759D02*
X01808D01*
Y00754*
X01788Y00735*
Y0073*
X00749Y00854D02*
X00744Y0085D01*
Y0084*
X00749Y00835*
X00769*
X00774Y0084*
Y0085*
X00769Y00854*
X00749Y00864D02*
X00744Y00869D01*
Y00879*
X00749Y00884*
X00754*
X00759Y00879*
Y00874*
Y00879*
X00764Y00884*
X00769*
X00774Y00879*
Y00869*
X00769Y00864*
X00744Y00914D02*
Y00894D01*
X00759*
X00754Y00904*
Y00909*
X00759Y00914*
X00769*
X00774Y00909*
Y00899*
X00769Y00894*
X01623Y00144D02*
X01618Y00149D01*
X01609*
X01604Y00144*
Y00125*
X01609Y0012*
X01618*
X01623Y00125*
X01633Y00144D02*
X01638Y00149D01*
X01648*
X01653Y00144*
Y00139*
X01648Y00134*
X01643*
X01648*
X01653Y0013*
Y00125*
X01648Y0012*
X01638*
X01633Y00125*
X01678Y0012D02*
Y00149D01*
X01663Y00134*
X01683*
X00693Y01184D02*
X00689Y01189D01*
X00679*
X00674Y01184*
Y01165*
X00679Y0116*
X00689*
X00693Y01165*
X00703Y01184D02*
X00708Y01189D01*
X00718*
X00723Y01184*
Y01179*
X00718Y01174*
X00713*
X00718*
X00723Y0117*
Y01165*
X00718Y0116*
X00708*
X00703Y01165*
X00733Y01184D02*
X00738Y01189D01*
X00748*
X00753Y01184*
Y01179*
X00748Y01174*
X00743*
X00748*
X00753Y0117*
Y01165*
X00748Y0116*
X00738*
X00733Y01165*
X00878Y00954D02*
X00874Y00959D01*
X00864*
X00859Y00954*
Y00935*
X00864Y0093*
X00874*
X00878Y00935*
X00888Y00954D02*
X00893Y00959D01*
X00903*
X00908Y00954*
Y00949*
X00903Y00944*
X00898*
X00903*
X00908Y0094*
Y00935*
X00903Y0093*
X00893*
X00888Y00935*
X00938Y0093D02*
X00918D01*
X00938Y00949*
Y00954*
X00933Y00959*
X00923*
X00918Y00954*
X00878Y01004D02*
X00874Y01009D01*
X00864*
X00859Y01004*
Y00985*
X00864Y0098*
X00874*
X00878Y00985*
X00888Y01004D02*
X00893Y01009D01*
X00903*
X00908Y01004*
Y00999*
X00903Y00994*
X00898*
X00903*
X00908Y0099*
Y00985*
X00903Y0098*
X00893*
X00888Y00985*
X00918Y0098D02*
X00928D01*
X00923*
Y01009*
X00918Y01004*
X01488Y00329D02*
X01483Y00334D01*
X01474*
X01469Y00329*
Y0031*
X01474Y00305*
X01483*
X01488Y0031*
X01518Y00334D02*
X01498D01*
Y00319*
X01508Y00324*
X01513*
X01518Y00319*
Y0031*
X01513Y00305*
X01503*
X01498Y0031*
X01539Y00219D02*
X01534Y00214D01*
Y00205*
X01539Y002*
X01559*
X01564Y00205*
Y00214*
X01559Y00219*
X01564Y00244D02*
X01534D01*
X01549Y00229*
Y00249*
X02219Y00594D02*
X02214Y0059D01*
Y0058*
X02219Y00575*
X02239*
X02244Y0058*
Y0059*
X02239Y00594*
X02219Y00604D02*
X02214Y00609D01*
Y00619*
X02219Y00624*
X02224*
X02229Y00619*
Y00614*
Y00619*
X02234Y00624*
X02239*
X02244Y00619*
Y00609*
X02239Y00604*
X0217Y00594D02*
X02165Y0059D01*
Y0058*
X0217Y00575*
X0219*
X02195Y0058*
Y0059*
X0219Y00594*
X02195Y00624D02*
Y00604D01*
X02175Y00624*
X0217*
X02165Y00619*
Y00609*
X0217Y00604*
X02548Y00194D02*
X02543Y00199D01*
X02534*
X02529Y00194*
Y00175*
X02534Y0017*
X02543*
X02548Y00175*
X02558Y0017D02*
X02568D01*
X02563*
Y00199*
X02558Y00194*
X01733Y00849D02*
X01729Y00854D01*
X01719*
X01714Y00849*
Y0083*
X01719Y00825*
X01729*
X01733Y0083*
X01763Y00854D02*
X01753Y00849D01*
X01743Y0084*
Y0083*
X01748Y00825*
X01758*
X01763Y0083*
Y00835*
X01758Y0084*
X01743*
X01773Y0083D02*
X01778Y00825D01*
X01788*
X01793Y0083*
Y00849*
X01788Y00854*
X01778*
X01773Y00849*
Y00844*
X01778Y0084*
X01793*
X02759Y00219D02*
Y0019D01*
X02778*
X02788Y00214D02*
X02793Y00219D01*
X02803*
X02808Y00214*
Y00209*
X02803Y00205*
X02808Y002*
Y00195*
X02803Y0019*
X02793*
X02788Y00195*
Y002*
X02793Y00205*
X02788Y00209*
Y00214*
X02793Y00205D02*
X02803D01*
X03249Y0092D02*
X03219D01*
Y00934*
X03224Y00939*
X03234*
X03239Y00934*
Y0092*
Y0093D02*
X03249Y00939D01*
X03219Y00969D02*
X03224Y00959D01*
X03234Y00949*
X03244*
X03249Y00954*
Y00964*
X03244Y00969*
X03239*
X03234Y00964*
Y00949*
X03224Y00979D02*
X03219Y00984D01*
Y00994*
X03224Y00999*
X03229*
X03234Y00994*
Y00989*
Y00994*
X03239Y00999*
X03244*
X03249Y00994*
Y00984*
X03244Y00979*
X03149Y0102D02*
X03119D01*
Y01034*
X03124Y01039*
X03134*
X03139Y01034*
Y0102*
Y0103D02*
X03149Y01039D01*
X03119Y01069D02*
X03124Y01059D01*
X03134Y01049*
X03144*
X03149Y01054*
Y01064*
X03144Y01069*
X03139*
X03134Y01064*
Y01049*
X03149Y01094D02*
X03119D01*
X03134Y01079*
Y01099*
X03149Y0124D02*
X03119D01*
Y01254*
X03124Y01259*
X03134*
X03139Y01254*
Y0124*
Y0125D02*
X03149Y01259D01*
X03119Y01289D02*
X03124Y01279D01*
X03134Y01269*
X03144*
X03149Y01274*
Y01284*
X03144Y01289*
X03139*
X03134Y01284*
Y01269*
X03119Y01319D02*
Y01299D01*
X03134*
X03129Y01309*
Y01314*
X03134Y01319*
X03144*
X03149Y01314*
Y01304*
X03144Y01299*
X03544Y01015D02*
X03569D01*
X03574Y0102*
Y01029*
X03569Y01034*
X03544*
X03574Y01044D02*
Y01054D01*
Y01049*
X03544*
X03549Y01044*
X03574Y01084D02*
X03544D01*
X03559Y01069*
Y01089*
X03294Y01204D02*
Y0118D01*
X03299Y01175*
X03309*
X03313Y0118*
Y01204*
X03323Y01175D02*
X03333D01*
X03328*
Y01204*
X03323Y01199*
X03368Y01204D02*
X03348D01*
Y0119*
X03358Y01194*
X03363*
X03368Y0119*
Y0118*
X03363Y01175*
X03353*
X03348Y0118*
X00893Y02215D02*
X00883D01*
X00888*
Y0219*
X00883Y02185*
X00878*
X00873Y0219*
X00903Y0221D02*
X00908Y02215D01*
X00918*
X00923Y0221*
Y02205*
X00918Y022*
X00913*
X00918*
X00923Y02195*
Y0219*
X00918Y02185*
X00908*
X00903Y0219*
X01956Y02215D02*
X01946D01*
X01951*
Y0219*
X01946Y02185*
X01941*
X01936Y0219*
X01981Y02185D02*
Y02215D01*
X01966Y022*
X01986*
X0103Y02215D02*
X0102D01*
X01025*
Y0219*
X0102Y02185*
X01015*
X0101Y0219*
X0106Y02215D02*
X0104D01*
Y022*
X0105Y02205*
X01055*
X0106Y022*
Y0219*
X01055Y02185*
X01045*
X0104Y0219*
X01397Y01297D02*
X01372D01*
Y01309*
X01376Y01313*
X01384*
X01388Y01309*
Y01297*
Y01305D02*
X01397Y01313D01*
X01392Y01321D02*
X01397Y01326D01*
Y01334*
X01392Y01338*
X01376*
X01372Y01334*
Y01326*
X01376Y01321*
X0138*
X01384Y01326*
Y01338*
X01429Y01296D02*
X01404D01*
Y01308*
X01408Y01312*
X01416*
X0142Y01308*
Y01296*
Y01304D02*
X01429Y01312D01*
Y0132D02*
Y01329D01*
Y01325*
X01404*
X01408Y0132*
Y01341D02*
X01404Y01345D01*
Y01354*
X01408Y01358*
X01424*
X01429Y01354*
Y01345*
X01424Y01341*
X01408*
X01404Y00889D02*
X01423Y0087D01*
X01404D02*
X01423Y00889D01*
X01404Y00879D02*
X01423D01*
X01414Y0087D02*
Y00889D01*
X01433Y00865D02*
X01443D01*
X01438*
Y00894*
X01433Y00889*
X01478Y00634D02*
X01473Y00639D01*
X01464*
X01459Y00634*
Y00615*
X01464Y0061*
X01473*
X01478Y00615*
X01488Y00634D02*
X01493Y00639D01*
X01503*
X01508Y00634*
Y00629*
X01503Y00624*
X01508Y0062*
Y00615*
X01503Y0061*
X01493*
X01488Y00615*
Y0062*
X01493Y00624*
X01488Y00629*
Y00634*
X01493Y00624D02*
X01503D01*
X01538Y0061D02*
X01518D01*
X01538Y00629*
Y00634*
X01533Y00639*
X01523*
X01518Y00634*
X02139Y01458D02*
X02134Y01463D01*
X02125*
X0212Y01458*
Y01439*
X02125Y01434*
X02134*
X02139Y01439*
X02169Y01463D02*
X02159Y01458D01*
X02149Y01448*
Y01439*
X02154Y01434*
X02164*
X02169Y01439*
Y01444*
X02164Y01448*
X02149*
X02139Y01418D02*
X02134Y01423D01*
X02125*
X0212Y01418*
Y01399*
X02125Y01394*
X02134*
X02139Y01399*
X02149Y01423D02*
X02169D01*
Y01418*
X02149Y01399*
Y01394*
X0314Y01986D02*
X03135Y01991D01*
X03126*
X03121Y01986*
Y01967*
X03126Y01962*
X03135*
X0314Y01967*
X0315Y01986D02*
X03155Y01991D01*
X03165*
X0317Y01986*
Y01981*
X03165Y01976*
X0317Y01972*
Y01967*
X03165Y01962*
X03155*
X0315Y01967*
Y01972*
X03155Y01976*
X0315Y01981*
Y01986*
X03155Y01976D02*
X03165D01*
X03141Y02026D02*
X03137Y02031D01*
X03127*
X03122Y02026*
Y02007*
X03127Y02002*
X03137*
X03141Y02007*
X03151D02*
X03156Y02002D01*
X03166*
X03171Y02007*
Y02026*
X03166Y02031*
X03156*
X03151Y02026*
Y02021*
X03156Y02016*
X03171*
X0314Y02065D02*
X03135Y0207D01*
X03126*
X03121Y02065*
Y02046*
X03126Y02041*
X03135*
X0314Y02046*
X0315Y02041D02*
X0316D01*
X03155*
Y0207*
X0315Y02065*
X03175D02*
X0318Y0207D01*
X0319*
X03195Y02065*
Y02046*
X0319Y02041*
X0318*
X03175Y02046*
Y02065*
X03238Y01984D02*
X03233Y01989D01*
X03224*
X03219Y01984*
Y01965*
X03224Y0196*
X03233*
X03238Y01965*
X03248Y0196D02*
X03258D01*
X03253*
Y01989*
X03248Y01984*
X03273Y0196D02*
X03283D01*
X03278*
Y01989*
X03273Y01984*
X03238Y02024D02*
X03233Y02029D01*
X03224*
X03219Y02024*
Y02005*
X03224Y02*
X03233*
X03238Y02005*
X03248Y02D02*
X03258D01*
X03253*
Y02029*
X03248Y02024*
X03293Y02D02*
X03273D01*
X03293Y02019*
Y02024*
X03288Y02029*
X03278*
X03273Y02024*
X03238Y02064D02*
X03233Y02069D01*
X03224*
X03219Y02064*
Y02045*
X03224Y0204*
X03233*
X03238Y02045*
X03248Y0204D02*
X03258D01*
X03253*
Y02069*
X03248Y02064*
X03273D02*
X03278Y02069D01*
X03288*
X03293Y02064*
Y02059*
X03288Y02055*
X03283*
X03288*
X03293Y0205*
Y02045*
X03288Y0204*
X03278*
X03273Y02045*
X03238Y01944D02*
X03233Y01949D01*
X03224*
X03219Y01944*
Y01925*
X03224Y0192*
X03233*
X03238Y01925*
X03248Y0192D02*
X03258D01*
X03253*
Y01949*
X03248Y01944*
X03288Y0192D02*
Y01949D01*
X03273Y01935*
X03293*
X03238Y01904D02*
X03233Y01909D01*
X03224*
X03219Y01904*
Y01885*
X03224Y0188*
X03233*
X03238Y01885*
X03248Y0188D02*
X03258D01*
X03253*
Y01909*
X03248Y01904*
X03293Y01909D02*
X03273D01*
Y01894*
X03283Y01899*
X03288*
X03293Y01894*
Y01885*
X03288Y0188*
X03278*
X03273Y01885*
X02658Y01704D02*
X02654Y01709D01*
X02644*
X02639Y01704*
Y01685*
X02644Y0168*
X02654*
X02658Y01685*
X02668Y0168D02*
X02678D01*
X02673*
Y01709*
X02668Y01704*
X02713Y01709D02*
X02703Y01704D01*
X02693Y01695*
Y01685*
X02698Y0168*
X02708*
X02713Y01685*
Y0169*
X02708Y01695*
X02693*
X02658Y01794D02*
X02654Y01799D01*
X02644*
X02639Y01794*
Y01775*
X02644Y0177*
X02654*
X02658Y01775*
X02668Y0177D02*
X02678D01*
X02673*
Y01799*
X02668Y01794*
X02693Y01799D02*
X02713D01*
Y01794*
X02693Y01775*
Y0177*
X02658Y01749D02*
X02654Y01754D01*
X02644*
X02639Y01749*
Y0173*
X02644Y01725*
X02654*
X02658Y0173*
X02668Y01725D02*
X02678D01*
X02673*
Y01754*
X02668Y01749*
X02693D02*
X02698Y01754D01*
X02708*
X02713Y01749*
Y01744*
X02708Y0174*
X02713Y01735*
Y0173*
X02708Y01725*
X02698*
X02693Y0173*
Y01735*
X02698Y0174*
X02693Y01744*
Y01749*
X02698Y0174D02*
X02708D01*
X02043Y01769D02*
X02039Y01774D01*
X02029*
X02024Y01769*
Y0175*
X02029Y01745*
X02039*
X02043Y0175*
X02053Y01745D02*
X02063D01*
X02058*
Y01774*
X02053Y01769*
X02078Y0175D02*
X02083Y01745D01*
X02093*
X02098Y0175*
Y01769*
X02093Y01774*
X02083*
X02078Y01769*
Y01764*
X02083Y01759*
X02098*
X02043Y01729D02*
X02039Y01734D01*
X02029*
X02024Y01729*
Y0171*
X02029Y01705*
X02039*
X02043Y0171*
X02073Y01705D02*
X02053D01*
X02073Y01724*
Y01729*
X02068Y01734*
X02058*
X02053Y01729*
X02083D02*
X02088Y01734D01*
X02098*
X02103Y01729*
Y0171*
X02098Y01705*
X02088*
X02083Y0171*
Y01729*
X02324Y01839D02*
X02319Y01835D01*
Y01825*
X02324Y0182*
X02344*
X02349Y01825*
Y01835*
X02344Y01839*
X02349Y01869D02*
Y01849D01*
X02329Y01869*
X02324*
X02319Y01864*
Y01854*
X02324Y01849*
X02349Y01879D02*
Y01889D01*
Y01884*
X02319*
X02324Y01879*
X02174Y01829D02*
X02169Y01825D01*
Y01815*
X02174Y0181*
X02194*
X02199Y01815*
Y01825*
X02194Y01829*
X02199Y01859D02*
Y01839D01*
X02179Y01859*
X02174*
X02169Y01854*
Y01844*
X02174Y01839*
X02199Y01889D02*
Y01869D01*
X02179Y01889*
X02174*
X02169Y01884*
Y01874*
X02174Y01869*
X01969Y01519D02*
X01964Y01514D01*
Y01505*
X01969Y015*
X01989*
X01994Y01505*
Y01514*
X01989Y01519*
X01994Y01549D02*
Y01529D01*
X01974Y01549*
X01969*
X01964Y01544*
Y01534*
X01969Y01529*
Y01559D02*
X01964Y01564D01*
Y01574*
X01969Y01579*
X01974*
X01979Y01574*
Y01569*
Y01574*
X01984Y01579*
X01989*
X01994Y01574*
Y01564*
X01989Y01559*
X01924Y01519D02*
X01919Y01514D01*
Y01505*
X01924Y015*
X01944*
X01949Y01505*
Y01514*
X01944Y01519*
X01949Y01549D02*
Y01529D01*
X01929Y01549*
X01924*
X01919Y01544*
Y01534*
X01924Y01529*
X01949Y01574D02*
X01919D01*
X01934Y01559*
Y01579*
X02658Y01569D02*
X02654Y01574D01*
X02644*
X02639Y01569*
Y0155*
X02644Y01545*
X02654*
X02658Y0155*
X02688Y01545D02*
X02668D01*
X02688Y01564*
Y01569*
X02683Y01574*
X02673*
X02668Y01569*
X02718Y01574D02*
X02698D01*
Y0156*
X02708Y01564*
X02713*
X02718Y0156*
Y0155*
X02713Y01545*
X02703*
X02698Y0155*
X01879Y01519D02*
X01874Y01514D01*
Y01505*
X01879Y015*
X01899*
X01904Y01505*
Y01514*
X01899Y01519*
X01904Y01549D02*
Y01529D01*
X01884Y01549*
X01879*
X01874Y01544*
Y01534*
X01879Y01529*
Y01559D02*
X01874Y01564D01*
Y01574*
X01879Y01579*
X01884*
X01889Y01574*
X01894Y01579*
X01899*
X01904Y01574*
Y01564*
X01899Y01559*
X01894*
X01889Y01564*
X01884Y01559*
X01879*
X01889Y01564D02*
Y01574D01*
X02354Y01384D02*
X02349Y01379D01*
Y0137*
X02354Y01365*
X02374*
X02379Y0137*
Y01379*
X02374Y01384*
X02379Y01414D02*
Y01394D01*
X02359Y01414*
X02354*
X02349Y01409*
Y01399*
X02354Y01394*
X02374Y01424D02*
X02379Y01429D01*
Y01439*
X02374Y01444*
X02354*
X02349Y01439*
Y01429*
X02354Y01424*
X02359*
X02364Y01429*
Y01444*
X02658Y01659D02*
X02654Y01664D01*
X02644*
X02639Y01659*
Y0164*
X02644Y01635*
X02654*
X02658Y0164*
X02668Y01659D02*
X02673Y01664D01*
X02683*
X02688Y01659*
Y01654*
X02683Y01649*
X02678*
X02683*
X02688Y01645*
Y0164*
X02683Y01635*
X02673*
X02668Y0164*
X02698Y01659D02*
X02703Y01664D01*
X02713*
X02718Y01659*
Y0164*
X02713Y01635*
X02703*
X02698Y0164*
Y01659*
X03123Y0211D02*
Y02081D01*
X03142*
X03152Y02105D02*
X03157Y0211D01*
X03167*
X03172Y02105*
Y021*
X03167Y02095*
X03162*
X03167*
X03172Y02091*
Y02086*
X03167Y02081*
X03157*
X03152Y02086*
X03219Y02109D02*
Y0208D01*
X03238*
X03263D02*
Y02109D01*
X03248Y02095*
X03268*
X02159Y0181D02*
X02129D01*
Y01825*
X02134Y01829*
X02144*
X02149Y01825*
Y0181*
Y0182D02*
X02159Y01829D01*
X02134Y01839D02*
X02129Y01844D01*
Y01854*
X02134Y01859*
X02139*
X02144Y01854*
Y01849*
Y01854*
X02149Y01859*
X02154*
X02159Y01854*
Y01844*
X02154Y01839*
X02159Y01884D02*
X02129D01*
X02144Y01869*
Y01889*
X01684Y0141D02*
X01654D01*
Y01424*
X01659Y01429*
X01669*
X01674Y01424*
Y0141*
Y0142D02*
X01684Y01429D01*
X01659Y01439D02*
X01654Y01444D01*
Y01454*
X01659Y01459*
X01664*
X01669Y01454*
Y01449*
Y01454*
X01674Y01459*
X01679*
X01684Y01454*
Y01444*
X01679Y01439*
X01654Y01469D02*
Y01489D01*
X01659*
X01679Y01469*
X01684*
X01734Y0141D02*
X01704D01*
Y01424*
X01709Y01429*
X01719*
X01724Y01424*
Y0141*
Y0142D02*
X01734Y01429D01*
X01709Y01439D02*
X01704Y01444D01*
Y01454*
X01709Y01459*
X01714*
X01719Y01454*
Y01449*
Y01454*
X01724Y01459*
X01729*
X01734Y01454*
Y01444*
X01729Y01439*
X01709Y01469D02*
X01704Y01474D01*
Y01484*
X01709Y01489*
X01714*
X01719Y01484*
X01724Y01489*
X01729*
X01734Y01484*
Y01474*
X01729Y01469*
X01724*
X01719Y01474*
X01714Y01469*
X01709*
X01719Y01474D02*
Y01484D01*
X01784Y0141D02*
X01754D01*
Y01424*
X01759Y01429*
X01769*
X01774Y01424*
Y0141*
Y0142D02*
X01784Y01429D01*
X01759Y01439D02*
X01754Y01444D01*
Y01454*
X01759Y01459*
X01764*
X01769Y01454*
Y01449*
Y01454*
X01774Y01459*
X01779*
X01784Y01454*
Y01444*
X01779Y01439*
Y01469D02*
X01784Y01474D01*
Y01484*
X01779Y01489*
X01759*
X01754Y01484*
Y01474*
X01759Y01469*
X01764*
X01769Y01474*
Y01489*
X01839Y0141D02*
X01809D01*
Y01424*
X01814Y01429*
X01824*
X01829Y01424*
Y0141*
Y0142D02*
X01839Y01429D01*
Y01454D02*
X01809D01*
X01824Y01439*
Y01459*
X01814Y01469D02*
X01809Y01474D01*
Y01484*
X01814Y01489*
X01834*
X01839Y01484*
Y01474*
X01834Y01469*
X01814*
X02639Y0196D02*
Y01989D01*
X02654*
X02658Y01984*
Y01975*
X02654Y0197*
X02639*
X02649D02*
X02658Y0196D01*
X02683D02*
Y01989D01*
X02668Y01975*
X02688*
X02698Y0196D02*
X02708D01*
X02703*
Y01989*
X02698Y01984*
X02639Y0186D02*
Y01889D01*
X02654*
X02658Y01884*
Y01874*
X02654Y0187*
X02639*
X02649D02*
X02658Y0186D01*
X02683D02*
Y01889D01*
X02668Y01874*
X02688*
X02718Y0186D02*
X02698D01*
X02718Y01879*
Y01884*
X02713Y01889*
X02703*
X02698Y01884*
X02639Y02005D02*
Y02034D01*
X02654*
X02658Y02029*
Y02019*
X02654Y02015*
X02639*
X02649D02*
X02658Y02005D01*
X02683D02*
Y02034D01*
X02668Y02019*
X02688*
X02698Y02029D02*
X02703Y02034D01*
X02713*
X02718Y02029*
Y02024*
X02713Y02019*
X02708*
X02713*
X02718Y02015*
Y0201*
X02713Y02005*
X02703*
X02698Y0201*
X02639Y01915D02*
Y01944D01*
X02654*
X02658Y01939*
Y01929*
X02654Y01925*
X02639*
X02649D02*
X02658Y01915D01*
X02683D02*
Y01944D01*
X02668Y01929*
X02688*
X02713Y01915D02*
Y01944D01*
X02698Y01929*
X02718*
X02639Y01815D02*
Y01844D01*
X02654*
X02658Y01839*
Y0183*
X02654Y01825*
X02639*
X02649D02*
X02658Y01815D01*
X02683D02*
Y01844D01*
X02668Y0183*
X02688*
X02718Y01844D02*
X02698D01*
Y0183*
X02708Y01834*
X02713*
X02718Y0183*
Y0182*
X02713Y01815*
X02703*
X02698Y0182*
X02639Y0205D02*
Y02079D01*
X02654*
X02658Y02074*
Y02065*
X02654Y0206*
X02639*
X02649D02*
X02658Y0205D01*
X02683D02*
Y02079D01*
X02668Y02065*
X02688*
X02718Y02079D02*
X02708Y02074D01*
X02698Y02065*
Y02055*
X02703Y0205*
X02713*
X02718Y02055*
Y0206*
X02713Y02065*
X02698*
X01703Y01879D02*
X01698Y01884D01*
X01689*
X01684Y01879*
Y01874*
X01689Y01869*
X01698*
X01703Y01865*
Y0186*
X01698Y01855*
X01689*
X01684Y0186*
X01713Y01884D02*
Y01855D01*
X01723Y01865*
X01733Y01855*
Y01884*
X01763Y01855D02*
X01743D01*
X01763Y01874*
Y01879*
X01758Y01884*
X01748*
X01743Y01879*
X00609D02*
X00628D01*
X00619*
Y0185*
X00638D02*
Y01879D01*
X00653*
X00658Y01874*
Y01865*
X00653Y0186*
X00638*
X00668Y0185D02*
X00678D01*
X00673*
Y01879*
X00668Y01874*
X01947Y01959D02*
Y01978D01*
Y01969*
X01977*
Y01988D02*
X01947D01*
Y02003*
X01952Y02008*
X01962*
X01967Y02003*
Y01988*
X01977Y02038D02*
Y02018D01*
X01957Y02038*
X01952*
X01947Y02033*
Y02023*
X01952Y02018*
X02444Y01479D02*
Y01455D01*
X02449Y0145*
X02459*
X02463Y01455*
Y01479*
X02488Y0145D02*
Y01479D01*
X02473Y01465*
X02493*
X02739Y01959D02*
X02734Y01955D01*
Y01945*
X02739Y0194*
X02759*
X02764Y01945*
Y01955*
X02759Y01959*
X02734Y01969D02*
Y01989D01*
X02739*
X02759Y01969*
X02764*
Y02014D02*
X02734D01*
X02749Y01999*
Y02019*
X02753Y01909D02*
X02749Y01914D01*
X02739*
X02734Y01909*
Y0189*
X02739Y01885*
X02749*
X02753Y0189*
X02763Y01914D02*
X02783D01*
Y01909*
X02763Y0189*
Y01885*
X02813Y01914D02*
X02793D01*
Y01899*
X02803Y01904*
X02808*
X02813Y01899*
Y0189*
X02808Y01885*
X02798*
X02793Y0189*
X03508Y00414D02*
X03499D01*
X03503*
Y0039*
X03499Y00385*
X03494*
X03489Y0039*
X03538Y00385D02*
X03518D01*
X03538Y00404*
Y00409*
X03533Y00414*
X03523*
X03518Y00409*
X03034Y0196D02*
X03064D01*
Y01979*
X03034Y02009D02*
Y01989D01*
X03049*
X03044Y01999*
Y02004*
X03049Y02009*
X03059*
X03064Y02004*
Y01994*
X03059Y01989*
X02864Y02034D02*
Y0201D01*
X02869Y02005*
X02878*
X02883Y0201*
Y02034*
X02893Y02029D02*
X02898Y02034D01*
X02908*
X02913Y02029*
Y02024*
X02908Y02019*
X02913Y02015*
Y0201*
X02908Y02005*
X02898*
X02893Y0201*
Y02015*
X02898Y02019*
X02893Y02024*
Y02029*
X02898Y02019D02*
X02908D01*
X03068Y02159D02*
X03063Y02164D01*
X03054*
X03049Y02159*
Y0214*
X03054Y02135*
X03063*
X03068Y0214*
X03078Y02164D02*
X03098D01*
Y02159*
X03078Y0214*
Y02135*
X03128Y02164D02*
X03118Y02159D01*
X03108Y0215*
Y0214*
X03113Y02135*
X03123*
X03128Y0214*
Y02145*
X03123Y0215*
X03108*
X03068Y02209D02*
X03063Y02214D01*
X03054*
X03049Y02209*
Y0219*
X03054Y02185*
X03063*
X03068Y0219*
X03078Y02214D02*
X03098D01*
Y02209*
X03078Y0219*
Y02185*
X03108Y02214D02*
X03128D01*
Y02209*
X03108Y0219*
Y02185*
X03039Y02109D02*
Y0208D01*
X03058*
X03068D02*
X03078D01*
X03073*
Y02109*
X03068Y02104*
X03093Y0208D02*
X03103D01*
X03098*
Y02109*
X03093Y02104*
X02414Y02154D02*
Y02125D01*
X02433*
X02443D02*
X02453D01*
X02448*
Y02154*
X02443Y02149*
X02488Y02125D02*
X02468D01*
X02488Y02144*
Y02149*
X02483Y02154*
X02473*
X02468Y02149*
X02639Y02144D02*
Y02115D01*
X02658*
X02668D02*
X02678D01*
X02673*
Y02144*
X02668Y02139*
X02693D02*
X02698Y02144D01*
X02708*
X02713Y02139*
Y02134*
X02708Y0213*
X02703*
X02708*
X02713Y02125*
Y0212*
X02708Y02115*
X02698*
X02693Y0212*
X02414Y02185D02*
Y02214D01*
X02428*
X02433Y02209*
Y022*
X02428Y02195*
X02414*
X02424D02*
X02433Y02185D01*
X02463Y02214D02*
X02443D01*
Y022*
X02453Y02204*
X02458*
X02463Y022*
Y0219*
X02458Y02185*
X02448*
X02443Y0219*
X02493Y02214D02*
X02483Y02209D01*
X02473Y022*
Y0219*
X02478Y02185*
X02488*
X02493Y0219*
Y02195*
X02488Y022*
X02473*
X02639Y0218D02*
Y02209D01*
X02654*
X02658Y02204*
Y02194*
X02654Y0219*
X02639*
X02649D02*
X02658Y0218D01*
X02688Y02209D02*
X02668D01*
Y02194*
X02678Y02199*
X02683*
X02688Y02194*
Y02185*
X02683Y0218*
X02673*
X02668Y02185*
X02698Y02209D02*
X02718D01*
Y02204*
X02698Y02185*
Y0218*
X01579Y0043D02*
X01594D01*
X01599Y00435*
Y00449*
X01579*
X01599Y00459D02*
Y00469D01*
Y00464*
X01569*
X01574Y00459*
Y00484D02*
X01569Y00489D01*
Y00499*
X01574Y00504*
X01594*
X01599Y00499*
Y00489*
X01594Y00484*
X01574*
X02818Y01769D02*
X02813Y01774D01*
X02804*
X02799Y01769*
Y0175*
X02804Y01745*
X02813*
X02818Y0175*
X02848Y01745D02*
X02828D01*
X02848Y01764*
Y01769*
X02843Y01774*
X02833*
X02828Y01769*
X02878Y01774D02*
X02868Y01769D01*
X02858Y01759*
Y0175*
X02863Y01745*
X02873*
X02878Y0175*
Y01755*
X02873Y01759*
X02858*
X02818Y01809D02*
X02813Y01814D01*
X02804*
X02799Y01809*
Y0179*
X02804Y01785*
X02813*
X02818Y0179*
X02848Y01785D02*
X02828D01*
X02848Y01804*
Y01809*
X02843Y01814*
X02833*
X02828Y01809*
X02858Y01814D02*
X02878D01*
Y01809*
X02858Y0179*
Y01785*
X02799Y01825D02*
Y01854D01*
X02813*
X02818Y01849*
Y0184*
X02813Y01835*
X02799*
X02809D02*
X02818Y01825D01*
X02828Y01849D02*
X02833Y01854D01*
X02843*
X02848Y01849*
Y01844*
X02843Y0184*
X02838*
X02843*
X02848Y01835*
Y0183*
X02843Y01825*
X02833*
X02828Y0183*
X02878Y01854D02*
X02858D01*
Y0184*
X02868Y01844*
X02873*
X02878Y0184*
Y0183*
X02873Y01825*
X02863*
X02858Y0183*
X00558Y00619D02*
X00539D01*
Y00605*
X00549*
X00539*
Y0059*
X00568Y00619D02*
Y0059D01*
X00583*
X00588Y00595*
Y00614*
X00583Y00619*
X00568*
X00598Y0059D02*
X00608D01*
X00603*
Y00619*
X00598Y00614*
X03228Y02214D02*
X03209D01*
Y022*
X03219*
X03209*
Y02185*
X03238Y02214D02*
Y02185D01*
X03253*
X03258Y0219*
Y02209*
X03253Y02214*
X03238*
X03288Y02185D02*
X03268D01*
X03288Y02204*
Y02209*
X03283Y02214*
X03273*
X03268Y02209*
X03333Y00259D02*
X03314D01*
Y00244*
X03324*
X03314*
Y0023*
X03343Y00259D02*
Y0023D01*
X03358*
X03363Y00235*
Y00254*
X03358Y00259*
X03343*
X03373Y00254D02*
X03378Y00259D01*
X03388*
X03393Y00254*
Y00249*
X03388Y00244*
X03383*
X03388*
X03393Y0024*
Y00235*
X03388Y0023*
X03378*
X03373Y00235*
M02*