%FSTAX23Y23*%
%MOIN*%
%SFA1B1*%

%IPPOS*%
%ADD12C,0.010000*%
%ADD16C,0.020000*%
%ADD17C,0.005000*%
%ADD19C,0.008000*%
%ADD102C,0.012000*%
%ADD106C,0.025000*%
%ADD108C,0.006000*%
%ADD109C,0.070870*%
%ADD110C,0.060000*%
%ADD111C,0.070000*%
%ADD112C,0.125000*%
%ADD113C,0.090000*%
%ADD114C,0.059060*%
%ADD115C,0.078740*%
%ADD116R,0.059060X0.059060*%
%ADD117C,0.014000*%
%ADD118C,0.031000*%
%ADD119C,0.019680*%
%LNusb_control-1*%
%LPD*%
G36*
X03309Y01615D02*
Y00595D01*
X03199Y00485*
X03044*
X03019Y0051*
Y00675*
X03114Y0077*
Y0134*
X03095Y01358*
X03094Y0136*
X03088Y01369*
X03079Y01375*
X03077Y01376*
X0299Y01463*
X03021Y01495*
X03026Y01494*
X03027Y01491*
X03033Y01484*
X0304Y01478*
X03049Y01474*
X03059Y01473*
X03068Y01474*
X03077Y01478*
X03084Y01484*
X0309Y01491*
X03094Y015*
X03095Y0151*
X03094Y01519*
X0309Y01528*
X03084Y01535*
X03077Y01541*
X03068Y01545*
X03059Y01546*
X03049Y01545*
X0304Y01541*
X03033Y01535*
X03027Y01528*
X03023Y01519*
X03023Y01518*
X0302Y01518*
X03017Y01516*
X02997Y01495*
X02993Y01498*
X02994Y015*
X02995Y0151*
X02994Y01519*
X0299Y01528*
X02984Y01535*
X02977Y01541*
X02968Y01545*
X02959Y01546*
X02949Y01545*
X0294Y01541*
X02933Y01535*
X02927Y01528*
X02923Y01519*
X02922Y0151*
X02923Y01505*
X02918Y015*
X02699*
X02699Y015*
X02692Y01505*
X02684Y01506*
X02675Y01505*
X02668Y015*
X02668Y015*
X02649*
X02649Y015*
X02642Y01505*
X02634Y01506*
X02625Y01505*
X02618Y015*
X02618Y015*
X02599*
X02599Y015*
X02592Y01505*
X02584Y01506*
X02575Y01505*
X02568Y015*
X02568Y015*
X02398*
X02396Y01502*
X02392Y01504*
X02389Y01505*
X02233*
X02136Y01601*
X02136Y01605*
X02133Y01609*
X02129Y01612*
X02124Y01613*
X02118Y01612*
X02114Y01609*
X02111Y01605*
X0211Y016*
X02111Y01594*
X02114Y0159*
X02118Y01587*
X02122Y01587*
X02204Y01504*
X02203Y015*
X02094*
X02035Y01558*
X02031Y01561*
X02027Y01562*
X01626*
X01624Y01565*
X01617Y0157*
X01609Y01571*
X016Y0157*
X01593Y01565*
X01588Y01558*
X01587Y0155*
X01588Y01541*
X01593Y01534*
X016Y01529*
X01609Y01528*
X01617Y01529*
X01624Y01534*
X01626Y01537*
X02022*
X02053Y01505*
X02052Y01501*
X01902*
X01897Y015*
X01897Y015*
X01882*
X01882Y015*
X01874Y01505*
X01866Y01506*
X01858Y01505*
X01851Y015*
X0185Y015*
X01541*
X01532Y01507*
X0152Y01513*
X01507Y01517*
X01494Y01518*
X0148Y01517*
X01467Y01513*
X01466Y01512*
X01346Y01632*
Y01782*
X01364Y018*
X02074*
X02078Y01794*
X02085Y01789*
X02094Y01788*
X02102Y01789*
X02109Y01794*
X02113Y018*
X02144*
X02146Y01795*
X02145Y0179*
X02146Y01784*
X02149Y0178*
X02153Y01777*
X02157Y01777*
X02186Y01747*
X0219Y01745*
X02194Y01744*
X02344*
X02394Y01694*
X02393Y01689*
X02392Y01689*
X02388Y01686*
X02385Y01681*
X02384Y01676*
X02385Y01671*
X02388Y01667*
X02392Y01664*
X02395Y01663*
X02414Y01645*
X02417Y01643*
X02421Y01642*
X02562*
X02565Y01643*
X02569Y01645*
X027Y01777*
X02704Y01777*
X02708Y0178*
X02711Y01784*
X02712Y0179*
X02711Y01795*
X02713Y018*
X02924*
X02927Y01791*
X02933Y01784*
X0294Y01778*
X02949Y01774*
X02959Y01773*
X02968Y01774*
X02977Y01778*
X02984Y01784*
X0299Y01791*
X02993Y018*
X03024*
X03027Y01791*
X03033Y01784*
X0304Y01778*
X03049Y01774*
X03059Y01773*
X03068Y01774*
X03077Y01778*
X03084Y01784*
X0309Y01791*
X03093Y018*
X03124*
X03309Y01615*
G37*
G36*
X03464Y01745D02*
Y01695D01*
X03456Y01687*
X03452Y01689*
Y01699*
X03451Y01703*
X03448Y01707*
X03442Y01713*
X03438Y01716*
X03434Y01717*
X03429Y01716*
X03425Y01713*
X03422Y01709*
X03421Y01705*
X03422Y017*
X03425Y01696*
X03427Y01693*
Y01677*
X03422Y01676*
X03104Y01995*
X03054*
X02994Y02055*
Y02065*
X03004Y02075*
X03134*
X03464Y01745*
G37*
G36*
X03344Y01735D02*
X03394Y01685D01*
Y01406*
X03393Y01405*
X03394Y01403*
Y01201*
X03393Y012*
X03394Y01198*
Y00976*
X03393Y00975*
X03394Y00973*
Y0049*
X03379Y00475*
X03284*
X03269Y0049*
Y00515*
X03324Y0057*
Y0163*
X03299Y01655*
Y01715*
X03319Y01735*
X03344*
G37*
G36*
X03564Y0172D02*
Y0166D01*
Y01582*
X03559Y01579*
X03555Y01572*
X03553Y01565*
X03555Y01557*
X03559Y0155*
X03564Y01547*
Y01377*
X03559Y01374*
X03555Y01367*
X03553Y0136*
X03555Y01352*
X03559Y01345*
X03564Y01342*
Y01152*
X03559Y01149*
X03555Y01142*
X03553Y01135*
X03555Y01127*
X03559Y0112*
X03564Y01117*
Y0046*
X03323Y00219*
X03313Y00213*
X03303Y00205*
X03295Y00195*
X03289Y00185*
X03134Y0003*
X02878*
X02874Y00035*
X02875Y0004*
X02874Y00048*
X02869Y00055*
X02862Y0006*
X02854Y00061*
X02845Y0006*
X02838Y00055*
X02833Y00048*
X02832Y0004*
X02833Y00035*
X02829Y0003*
X02614*
X02524*
X02354Y002*
X02075*
X02072Y00204*
X02074Y00206*
X02075Y00215*
X02074Y00223*
X02076Y00228*
X02082Y00229*
X02089Y00234*
X02094Y00241*
X02095Y0025*
X02094Y00258*
X02089Y00265*
X02082Y0027*
X02074Y00271*
X02065Y0027*
X02058Y00265*
X02053Y00258*
X02052Y0025*
X02053Y00241*
X02051Y00236*
X02046Y00235*
X02044Y00236*
X02042Y00239*
X02044Y00241*
X02045Y0025*
X02044Y00258*
X02039Y00265*
X02032Y0027*
X02024Y00271*
X02015Y0027*
X02008Y00265*
X02003Y00258*
X02002Y0025*
X02003Y00241*
X02008Y00234*
X02015Y00229*
X02024Y00228*
X02031Y00229*
X02033Y00228*
X02035Y00225*
X02033Y00223*
X02032Y00215*
X02033Y00206*
X02035Y00204*
X02032Y002*
X01874*
X01729Y00345*
X01647*
X01647Y00345*
X01639Y00346*
X0163Y00345*
X01623Y0034*
X01618Y00333*
X01617Y00325*
X01618Y00316*
X01619Y00316*
Y0022*
X01739*
X01764*
X01784Y002*
Y00165*
Y00155*
X01754Y00125*
X01164*
X00729Y0056*
Y01675*
X00745Y01695*
X00751Y017*
X00819*
X00849Y0167*
Y0059*
X00848Y0059*
X00843Y00583*
X00842Y00575*
X00843Y00566*
X00848Y00559*
X00855Y00554*
X00864Y00553*
X00872Y00554*
X00876Y00557*
X00918Y00515*
Y00509*
X00924*
X01214Y0022*
X01489*
Y00355*
X01569Y00435*
X01864*
X01984Y00315*
X01985*
X01988Y00312*
X01994Y00311*
X01999Y00312*
X02002Y00315*
X02369*
X02569Y00115*
X02585*
X02585Y00114*
X02594Y00113*
X02602Y00114*
X02602Y00115*
X03049*
X03093Y00159*
X031Y00154*
X03109Y00153*
X03117Y00154*
X03124Y00159*
X03129Y00166*
X0313Y00175*
X03129Y00183*
X03124Y0019*
X03469Y00535*
Y00749*
X03469Y00749*
X03474Y00756*
X03475Y00765*
X03474Y00773*
X03469Y0078*
X03469Y0078*
Y0163*
X03504Y01665*
Y0172*
X03519Y01735*
X03549*
X03564Y0172*
G37*
%LNusb_control-2*%
%LPC*%
G36*
X03059Y01746D02*
X03049Y01745D01*
X0304Y01741*
X03033Y01735*
X03027Y01728*
X03023Y01719*
X03022Y0171*
X03023Y017*
X03027Y01691*
X03033Y01684*
X0304Y01678*
X03049Y01674*
X03059Y01673*
X03068Y01674*
X03077Y01678*
X03084Y01684*
X0309Y01691*
X03094Y017*
X03095Y0171*
X03094Y01719*
X0309Y01728*
X03084Y01735*
X03077Y01741*
X03068Y01745*
X03059Y01746*
G37*
G36*
X02959D02*
X02949Y01745D01*
X0294Y01741*
X02933Y01735*
X02927Y01728*
X02923Y01719*
X02922Y0171*
X02923Y017*
X02927Y01691*
X02933Y01684*
X0294Y01678*
X02949Y01674*
X02959Y01673*
X02968Y01674*
X02977Y01678*
X02984Y01684*
X0299Y01691*
X02994Y017*
X02995Y0171*
X02994Y01719*
X0299Y01728*
X02984Y01735*
X02977Y01741*
X02968Y01745*
X02959Y01746*
G37*
G36*
X02335Y01697D02*
X02329Y01696D01*
X02323Y01692*
X0232Y01687*
X02319Y01681*
X0232Y01675*
X02323Y01669*
X02329Y01666*
X02335Y01665*
X02341Y01666*
X02346Y01669*
X0235Y01675*
X02351Y01681*
X0235Y01687*
X02346Y01692*
X02341Y01696*
X02335Y01697*
G37*
G36*
X02284D02*
X02277Y01696D01*
X02272Y01692*
X02269Y01687*
X02267Y01681*
X02269Y01675*
X02272Y01669*
X02277Y01666*
X02284Y01665*
X0229Y01666*
X02295Y01669*
X02298Y01675*
X023Y01681*
X02298Y01687*
X02295Y01692*
X0229Y01696*
X02284Y01697*
G37*
G36*
X02232D02*
X02226Y01696D01*
X02221Y01692*
X02217Y01687*
X02216Y01681*
X02217Y01675*
X02221Y01669*
X02226Y01666*
X02232Y01665*
X02239Y01666*
X02244Y01669*
X02247Y01675*
X02248Y01681*
X02247Y01687*
X02244Y01692*
X02239Y01696*
X02232Y01697*
G37*
G36*
X02059Y01673D02*
X02053Y01672D01*
X02049Y01669*
X02046Y01665*
X02045Y0166*
X02046Y01654*
X02049Y0165*
X02053Y01647*
X02059Y01646*
X02064Y01647*
X02068Y0165*
X02071Y01654*
X02072Y0166*
X02071Y01665*
X02068Y01669*
X02064Y01672*
X02059Y01673*
G37*
G36*
X02614Y01666D02*
X02605Y01665D01*
X02598Y0166*
X02593Y01653*
X02592Y01645*
X02593Y01636*
X02598Y01629*
X02605Y01624*
X02614Y01623*
X02622Y01624*
X02629Y01629*
X02634Y01636*
X02635Y01645*
X02634Y01653*
X02629Y0166*
X02622Y01665*
X02614Y01666*
G37*
G36*
X02335Y01646D02*
X02329Y01644D01*
X02323Y01641*
X0232Y01636*
X02319Y0163*
X0232Y01623*
X02323Y01618*
X02329Y01615*
X02335Y01613*
X02341Y01615*
X02346Y01618*
X0235Y01623*
X02351Y0163*
X0235Y01636*
X02346Y01641*
X02341Y01644*
X02335Y01646*
G37*
G36*
X02284D02*
X02277Y01644D01*
X02272Y01641*
X02269Y01636*
X02267Y0163*
X02269Y01623*
X02272Y01618*
X02277Y01615*
X02284Y01613*
X0229Y01615*
X02295Y01618*
X02298Y01623*
X023Y0163*
X02298Y01636*
X02295Y01641*
X0229Y01644*
X02284Y01646*
G37*
G36*
X02232D02*
X02226Y01644D01*
X02221Y01641*
X02217Y01636*
X02216Y0163*
X02217Y01623*
X02221Y01618*
X02226Y01615*
X02232Y01613*
X02239Y01615*
X02244Y01618*
X02247Y01623*
X02248Y0163*
X02247Y01636*
X02244Y01641*
X02239Y01644*
X02232Y01646*
G37*
G36*
X01896Y01634D02*
X01888Y01632D01*
X01881Y01628*
X01876Y0162*
X01874Y01612*
X01876Y01604*
X01881Y01597*
X01888Y01592*
X01896Y0159*
X01904Y01592*
X01912Y01597*
X01916Y01604*
X01918Y01612*
X01916Y0162*
X01912Y01628*
X01904Y01632*
X01896Y01634*
G37*
G36*
X03059Y01646D02*
X03049Y01645D01*
X0304Y01641*
X03033Y01635*
X03027Y01628*
X03023Y01619*
X03022Y0161*
X03023Y016*
X03027Y01591*
X03033Y01584*
X0304Y01578*
X03049Y01574*
X03059Y01573*
X03068Y01574*
X03077Y01578*
X03084Y01584*
X0309Y01591*
X03094Y016*
X03095Y0161*
X03094Y01619*
X0309Y01628*
X03084Y01635*
X03077Y01641*
X03068Y01645*
X03059Y01646*
G37*
G36*
X02959D02*
X02949Y01645D01*
X0294Y01641*
X02933Y01635*
X02927Y01628*
X02923Y01619*
X02922Y0161*
X02923Y016*
X02927Y01591*
X02933Y01584*
X0294Y01578*
X02949Y01574*
X02959Y01573*
X02968Y01574*
X02977Y01578*
X02984Y01584*
X0299Y01591*
X02994Y016*
X02995Y0161*
X02994Y01619*
X0299Y01628*
X02984Y01635*
X02977Y01641*
X02968Y01645*
X02959Y01646*
G37*
G36*
X02335Y01594D02*
X02329Y01593D01*
X02323Y0159*
X0232Y01585*
X02319Y01578*
X0232Y01572*
X02323Y01567*
X02329Y01563*
X02335Y01562*
X02341Y01563*
X02346Y01567*
X0235Y01572*
X02351Y01578*
X0235Y01585*
X02346Y0159*
X02341Y01593*
X02335Y01594*
G37*
G36*
X02284D02*
X02277Y01593D01*
X02272Y0159*
X02269Y01585*
X02267Y01578*
X02269Y01572*
X02272Y01567*
X02277Y01563*
X02284Y01562*
X0229Y01563*
X02295Y01567*
X02298Y01572*
X023Y01578*
X02298Y01585*
X02295Y0159*
X0229Y01593*
X02284Y01594*
G37*
G36*
X02232D02*
X02226Y01593D01*
X02221Y0159*
X02217Y01585*
X02216Y01578*
X02217Y01572*
X02221Y01567*
X02226Y01563*
X02232Y01562*
X02239Y01563*
X02244Y01567*
X02247Y01572*
X02248Y01578*
X02247Y01585*
X02244Y0159*
X02239Y01593*
X02232Y01594*
G37*
G36*
X03179Y01451D02*
X0317Y0145D01*
X03163Y01445*
X03158Y01438*
X03157Y0143*
X03158Y01421*
X03163Y01414*
X0317Y01409*
X03179Y01408*
X03187Y01409*
X03194Y01414*
X03199Y01421*
X032Y0143*
X03199Y01438*
X03194Y01445*
X03187Y0145*
X03179Y01451*
G37*
G36*
Y01236D02*
X0317Y01235D01*
X03163Y0123*
X03158Y01223*
X03157Y01215*
X03158Y01206*
X03163Y01199*
X0317Y01194*
X03179Y01193*
X03187Y01194*
X03194Y01199*
X03199Y01206*
X032Y01215*
X03199Y01223*
X03194Y0123*
X03187Y01235*
X03179Y01236*
G37*
G36*
X03184Y01011D02*
X03175Y0101D01*
X03168Y01005*
X03163Y00998*
X03162Y0099*
X03163Y00981*
X03168Y00974*
X03175Y00969*
X03184Y00968*
X03192Y00969*
X03199Y00974*
X03204Y00981*
X03205Y0099*
X03204Y00998*
X03199Y01005*
X03192Y0101*
X03184Y01011*
G37*
G36*
X03269Y00996D02*
X0326Y00995D01*
X03253Y0099*
X03248Y00983*
X03247Y00975*
X03248Y00966*
X03253Y00959*
X0326Y00954*
X03269Y00953*
X03277Y00954*
X03284Y00959*
X03289Y00966*
X0329Y00975*
X03289Y00983*
X03284Y0099*
X03277Y00995*
X03269Y00996*
G37*
G36*
X00781Y00824D02*
X00773Y00822D01*
X00766Y00818*
X00761Y0081*
X00759Y00802*
X00761Y00794*
X00766Y00787*
X00773Y00782*
X00781Y0078*
X00789Y00782*
X00797Y00787*
X00801Y00794*
X00803Y00802*
X00801Y0081*
X00797Y00818*
X00789Y00822*
X00781Y00824*
G37*
G36*
X02232Y00261D02*
X02227Y0026D01*
X02223Y00257*
X0222Y00253*
X02219Y00248*
X0222Y00243*
X02223Y00239*
X02227Y00236*
X02232Y00235*
X02237Y00236*
X02241Y00239*
X02244Y00243*
X02245Y00248*
X02244Y00253*
X02241Y00257*
X02237Y0026*
X02232Y00261*
G37*
G36*
X02498Y00161D02*
X0249Y0016D01*
X02483Y00155*
X02478Y00148*
X02476Y0014*
X02478Y00131*
X02483Y00124*
X0249Y00119*
X02498Y00118*
X02507Y00119*
X02514Y00124*
X02519Y00131*
X0252Y0014*
X02519Y00148*
X02514Y00155*
X02507Y0016*
X02498Y00161*
G37*
G36*
X03109Y00121D02*
X031Y0012D01*
X03093Y00115*
X03088Y00108*
X03087Y001*
X03088Y00091*
X03093Y00084*
X031Y00079*
X03109Y00078*
X03117Y00079*
X03124Y00084*
X03129Y00091*
X0313Y001*
X03129Y00108*
X03124Y00115*
X03117Y0012*
X03109Y00121*
G37*
%LNusb_control-3*%
%LPD*%
G54D12*
X01639Y00325D02*
X01644D01*
X01709Y0026*
X01774*
X01819Y00215*
Y00097D02*
Y00215D01*
G54D16*
X01999Y01885D02*
Y01983D01*
X01917Y02065D02*
X01999Y01983D01*
X01689Y02065D02*
X01917D01*
X02131Y00597D02*
X02594Y00135D01*
X02131Y00597D02*
Y00681D01*
X02589Y00806D02*
X02716Y0068D01*
X02495Y00806D02*
X02589D01*
X02716Y0068D02*
X02824D01*
X02849Y00655*
X02484Y00795D02*
X02495Y00806D01*
X02384Y00795D02*
X02484D01*
X02429Y021D02*
X02484Y02045D01*
G54D17*
X02149Y0076D02*
D01*
X0215Y0076*
X02151Y0076*
X02152Y0076*
X02153Y00761*
X02154Y00761*
X02155Y00761*
X02156Y00762*
X02157Y00762*
X02158Y00763*
X02159Y00764*
X02159Y00764*
X0216Y00765*
X02161Y00766*
X02162Y00767*
X02162Y00768*
X02163Y00769*
X02163Y0077*
X02163Y00771*
X02164Y00772*
X02164Y00773*
X02164Y00774*
X02164Y00775*
X02164Y00776*
X01821Y0076D02*
D01*
X01816Y0076*
X01812Y00759*
X01808Y00759*
X01804Y00758*
X018Y00756*
X01795Y00755*
X01792Y00753*
X01788Y00751*
X01784Y00748*
X01781Y00745*
X01778Y00743*
X01775Y00739*
X01772Y00736*
X01769Y00733*
X01767Y00729*
X01765Y00725*
X01763Y00721*
X01762Y00717*
X0176Y00713*
X01759Y00709*
X01759Y00704*
X01759Y007*
X01759Y00698*
X02194Y00728D02*
D01*
X02194Y00722*
X02195Y00717*
X02196Y00711*
X02197Y00705*
X02199Y007*
X02201Y00694*
X02204Y00689*
X02207Y00684*
X0221Y00679*
X02214Y00675*
X02218Y0067*
X02219Y00669*
X02366Y00522D02*
D01*
X02374Y00514*
X02383Y00507*
X02392Y00501*
X02402Y00495*
X02412Y0049*
X02423Y00485*
X02433Y00482*
X02444Y00479*
X02455Y00476*
X02467Y00475*
X02478Y00475*
X02481Y00475*
X02154Y00735D02*
D01*
X02152Y00736*
X0215Y00738*
X02148Y00739*
X02146Y0074*
X02144Y00741*
X02142Y00742*
X02139Y00743*
X02137Y00744*
X02135Y00744*
X02132Y00744*
X0213Y00744*
X02129Y00745*
X02164Y0071D02*
D01*
X02164Y00705*
X02164Y007*
X02165Y00695*
X02166Y0069*
X02168Y00685*
X0217Y0068*
X02172Y00675*
X02175Y00671*
X02178Y00667*
X02181Y00662*
X02184Y00659*
X02185Y00658*
X02164Y0071D02*
D01*
X02163Y00713*
X02163Y00715*
X02163Y00717*
X02162Y0072*
X02161Y00722*
X02161Y00724*
X0216Y00726*
X02158Y00728*
X02157Y0073*
X02156Y00732*
X02154Y00734*
X02154Y00735*
X02417Y00426D02*
D01*
X02422Y00422*
X02427Y00417*
X02433Y00413*
X02439Y0041*
X02445Y00406*
X02452Y00404*
X02458Y00401*
X02465Y004*
X02472Y00398*
X02479Y00397*
X02486Y00397*
X02487Y00397*
X01974Y0117D02*
X01999Y01195D01*
X01928Y0123D02*
Y01235D01*
Y0122D02*
Y0123D01*
X01928Y01062D02*
Y01205D01*
X01928Y0122D02*
X01934D01*
X01944Y01211*
Y01198D02*
Y01211D01*
X01939Y01194D02*
X01944Y01198D01*
X01939Y01069D02*
Y01194D01*
Y01069D02*
X01976Y01032D01*
X01991Y01064D02*
Y01152D01*
X02025Y00976D02*
Y01045D01*
Y00976D02*
X02037Y00964D01*
Y00902D02*
Y00964D01*
X02036Y0098D02*
Y0105D01*
Y0098D02*
X02048Y00969D01*
Y00922D02*
Y00969D01*
X02033Y01069D02*
Y01125D01*
Y01069D02*
X02047Y01055D01*
Y00985D02*
Y01055D01*
Y00985D02*
X02099Y00934D01*
X02019Y00898D02*
Y00961D01*
X01987Y00993D02*
X02019Y00961D01*
X01987Y01006D02*
X01998Y01017D01*
X02003*
X02014Y01028*
X01991Y01064D02*
X02014Y01041D01*
X01976Y00989D02*
Y01032D01*
Y00989D02*
X02008Y00957D01*
Y00894D02*
Y00957D01*
X01928Y01062D02*
X01964Y01026D01*
Y00984D02*
Y01026D01*
Y00984D02*
X01997Y00952D01*
Y00889D02*
Y00952D01*
X01987Y00993D02*
Y01006D01*
X02022Y01065D02*
Y01092D01*
Y01065D02*
X02036Y0105D01*
X02011Y0106D02*
X02025Y01045D01*
X02011Y0106D02*
Y01088D01*
X02014Y01028D02*
Y01041D01*
X02002Y01097D02*
X02011Y01088D01*
X02013Y01101D02*
X02022Y01092D01*
X02002Y01097D02*
Y01147D01*
X02013Y01101D02*
Y01141D01*
X02116Y00886D02*
Y01178D01*
X02118Y0118*
Y01199*
X02116Y00886D02*
X02131Y0087D01*
X02118Y01199D02*
X02149Y0123D01*
X02134Y00935D02*
D01*
X02179Y0098*
X02061Y0119D02*
X021Y0123D01*
X02061Y0119D02*
D01*
X02065Y01186D01*
Y01173D02*
Y01186D01*
X01974Y01135D02*
Y0117D01*
X02013Y01141D02*
X02035Y01164D01*
X01991Y01152D02*
X02034Y01195D01*
X02002Y01147D02*
X0203Y01176D01*
X02048Y00922D02*
X02068Y00902D01*
X01997Y00889D02*
X02024Y00862D01*
X02008Y00894D02*
X02029Y00873D01*
X02019Y00898D02*
X0203Y00886D01*
X02035Y01164D02*
X02056D01*
X02065Y01173*
X0203Y01176D02*
X02045D01*
X0203Y00886D02*
X02084D01*
X021Y0087*
X02029Y00873D02*
X02076D01*
X02093Y00855*
X02024Y00862D02*
X02071D01*
X02089Y00844*
X02068Y0084D02*
X02075D01*
X01781Y00792D02*
X02126D01*
X0176Y00776D02*
X02068D01*
X01821Y0076D02*
X02148D01*
X02054Y0073D02*
X02068Y00744D01*
X02194Y00965D02*
X02224Y00994D01*
X02189Y00931D02*
X02194Y00935D01*
X02214Y0092D02*
X02254Y0096D01*
X02054Y006D02*
Y0073D01*
X01994Y0054D02*
X02054Y006D01*
X01994Y00325D02*
Y0054D01*
X02303Y01185D02*
X02564D01*
X02569Y0118*
X02903Y01404D02*
X02904Y01405D01*
X02888Y0062D02*
Y01414D01*
X02877Y00624D02*
Y01428D01*
X02888Y01414D02*
X02899Y01425D01*
X02877Y01428D02*
X02909Y0146D01*
X02903Y00619D02*
Y01404D01*
X02915Y01381D02*
X02919Y01385D01*
X02915Y00616D02*
Y01381D01*
X02909Y0146D02*
X02974D01*
X02848Y00549D02*
X02915Y00616D01*
X02844Y0056D02*
X02903Y00619D01*
X03024Y0151D02*
X03059D01*
X02974Y0146D02*
X03024Y0151D01*
X02837Y00585D02*
X02877Y00624D01*
X02839Y00571D02*
X02888Y0062D01*
X02704Y00585D02*
X02837D01*
X02698Y00571D02*
X02839D01*
X02693Y0056D02*
X02844D01*
X02689Y00549D02*
X02848D01*
X02525Y00745D02*
X02698Y00571D01*
X02541Y00713D02*
X02693Y0056D01*
X02536Y00702D02*
X02689Y00549D01*
X02374Y00765D02*
X02524D01*
X02349Y00745D02*
X02525D01*
X02319Y00775D02*
X02349Y00745D01*
X02283Y0076D02*
X02324Y00719D01*
X02356*
X02362Y00713*
X02541*
X02257Y00776D02*
X02267D01*
X02273Y0077*
Y00769D02*
X02282Y0076D01*
X02283*
X02273Y00769D02*
Y0077D01*
X02336Y00703D02*
X02357D01*
X02319Y00708D02*
X02331D01*
X02336Y00703*
X02357D02*
X02358Y00702D01*
X02536*
X02226Y00776D02*
X02226D01*
X02242Y0076D02*
X02267D01*
X02278Y00749D02*
X02278D01*
X02319Y00708*
X02226Y00776D02*
X02242Y0076D01*
X02267D02*
X02278Y00749D01*
X02524Y00765D02*
X02704Y00585D01*
X02319Y00835D02*
X02384D01*
X02289Y00805D02*
X02319Y00835D01*
X02289Y00776D02*
Y00805D01*
X02164Y00997D02*
X02164Y00997D01*
Y0107*
X02481Y00475D02*
X02614D01*
X02315Y00697D02*
X02327D01*
X02331Y00692*
X02289Y00713D02*
X02299D01*
X02315Y00697*
X02241Y00707D02*
X02309Y0064D01*
X02257Y00713D02*
X02312Y00658D01*
X02313Y0066*
X02534*
X02331Y00692D02*
X02352D01*
X02353Y00691*
X0218Y00782D02*
Y00782D01*
X02165Y00797D02*
X0218Y00782D01*
X01689Y00745D02*
X01744Y008D01*
X01773*
X01781Y00792*
X02579Y00625D02*
Y00636D01*
X02353Y00691D02*
X02524D01*
X02579Y00636*
X02309Y0064D02*
X02544D01*
X02133Y00999D02*
X02134Y00998D01*
X02224Y00994D02*
Y01057D01*
X02133Y00999D02*
Y01079D01*
X01751Y00785D02*
X0176Y00776D01*
X02226Y00693D02*
Y00712D01*
X02241Y00707D02*
Y00721D01*
X02234Y00729D02*
X02241Y00721D01*
X02222Y00729D02*
X02234D01*
X02213Y00738D02*
X02222Y00729D01*
X02213Y00738D02*
Y00748D01*
X0218Y00782D02*
X02213Y00748D01*
X02179Y0098D02*
Y01061D01*
X02303Y01185*
X02369Y0055D02*
X02379D01*
X02226Y00693D02*
X02369Y0055D01*
X02224Y01057D02*
X02287Y0112D01*
X02149Y0123D02*
X02249D01*
X021D02*
X02104D01*
X02195Y0087D02*
X02274D01*
X02303Y00899*
X02314Y00894D02*
Y00968D01*
X02334Y00988*
Y0101*
X02334Y01011D02*
X02334Y0101D01*
X02334Y01011D02*
Y01105D01*
X02287Y0112D02*
X02327D01*
X02327Y0112*
X02373D02*
X02374Y0112D01*
X02327Y0112D02*
X02373D01*
X02303Y00899D02*
Y01074D01*
X02314Y01085*
X02254Y0096D02*
Y01065D01*
X02164Y00905D02*
X02179Y0092D01*
X02214*
X0217Y00931D02*
X02189D01*
X02147Y00908D02*
X0217Y00931D01*
X02147Y00864D02*
Y00908D01*
X02138Y00855D02*
X02147Y00864D01*
X02093Y00855D02*
X02138D01*
X02178Y00825D02*
X02194Y0081D01*
X02244Y00825D02*
X02314Y00894D01*
X022Y00825D02*
X02244D01*
X02189Y00836D02*
X022Y00825D01*
X02075Y0084D02*
X02089Y00825D01*
X02149Y00814D02*
Y00815D01*
X02126Y00792D02*
X02149Y00814D01*
Y00815D02*
X02159Y00825D01*
X02178*
X02155Y00836D02*
X02189D01*
X02089Y00825D02*
X02144D01*
X02155Y00836*
X02194Y00895D02*
Y009D01*
X02142Y00844D02*
X02194Y00895D01*
X02089Y00844D02*
X02142D01*
X01759Y00685D02*
Y00698D01*
X02165Y00797D02*
Y0081D01*
X02219Y00669D02*
X02366Y00522D01*
X02194Y00728D02*
Y00744D01*
X02129Y00745D02*
X02129D01*
X02189Y00655D02*
X02417Y00426D01*
X02487Y00397D02*
X02541D01*
G54D19*
X01548Y01217D02*
X01719D01*
X01935Y01433*
X01545Y01167D02*
X01712D01*
X01978Y01433*
X02229Y01495D02*
X02389D01*
X02124Y016D02*
X02229Y01495D01*
X02266Y01477D02*
X02362D01*
X02254Y01465D02*
X02266Y01477D01*
X02138Y01465D02*
X02254D01*
X02124Y0148D02*
X02138Y01465D01*
X02657Y01453D02*
X02689Y01485D01*
X01904Y01999D02*
X01955Y01947D01*
Y01894D02*
Y01947D01*
X01892Y01999D02*
X01904D01*
X02699Y0185D02*
X03154D01*
X02538Y01689D02*
X02699Y0185D01*
X02414Y01689D02*
X02538D01*
X02159Y0179D02*
X02194Y01755D01*
X02386Y01453D02*
X02657D01*
X02194Y01755D02*
X02349D01*
X02414Y01689*
X02449Y0167D02*
X02554D01*
X02644Y0176*
X02562Y01653D02*
X02699Y0179D01*
X02362Y01477D02*
X02386Y01453D01*
X02389Y01495D02*
X02414Y0147D01*
X02397Y01676D02*
X02421Y01653D01*
X02562*
X02684Y01485D02*
X02689D01*
G54D102*
X02466Y01145D02*
D01*
X02468Y01145*
X02469Y01145*
X0247Y01145*
X02471Y01145*
X02472Y01146*
X02473Y01146*
X02474Y01146*
X02475Y01147*
X02476Y01148*
X02477Y01148*
X02478Y01149*
X02479Y0115*
X02027Y0155D02*
X02144Y01433D01*
X01609Y0155D02*
X02027D01*
X02055Y01471D02*
X02161Y01365D01*
X0191Y01471D02*
X02055D01*
X02062Y01489D02*
X02141Y0141D01*
X01902Y01489D02*
X02062D01*
X02161Y01365D02*
X02519D01*
X02141Y0141D02*
X02534D01*
X01864Y01425D02*
X0191Y01471D01*
X02144Y01433D02*
X02551D01*
X019Y01486D02*
X01902Y01489D01*
X01867Y01486D02*
X019D01*
X01866Y01485D02*
X01867Y01486D01*
X02551Y01433D02*
X02609Y01375D01*
X01944Y0097D02*
X01948Y00974D01*
Y00984*
X01949Y00985*
X01346Y01852D02*
X02039D01*
X02046*
X01301Y00992D02*
Y01807D01*
X01346Y01852*
X01154Y00845D02*
X01301Y00992D01*
X01364Y0182D02*
X02084D01*
X02094Y0181*
X02044Y0185D02*
X02046Y01852D01*
X0344Y01161D02*
Y01699D01*
X03429Y0115D02*
X0344Y01161D01*
X03434Y01705D02*
X0344Y01699D01*
X02264Y00095D02*
X02344Y00175D01*
X01819Y00097D02*
X02264Y00095D01*
X02344Y00175D02*
D01*
X02634Y0119D02*
X02704D01*
X02624Y012D02*
X02634Y0119D01*
X02294Y012D02*
X02624D01*
X02274Y0122D02*
X02654D01*
X02564Y0137D02*
Y0138D01*
X02534Y0141D02*
X02564Y0138D01*
X01334Y0179D02*
X01364Y0182D01*
X02039Y0185D02*
X02044D01*
X01334Y00925D02*
Y0179D01*
X02416Y01715D02*
X02484D01*
X02343Y01787D02*
X02416Y01715D01*
X02343Y01787D02*
Y01797D01*
Y01789D02*
Y01797D01*
X01254Y00845D02*
X01334Y00925D01*
X02164Y0107D02*
X02294Y012D01*
X00904Y0124D02*
X00945Y01198D01*
X01028*
X01069Y0124*
X01224*
X01279Y01295*
X00919Y00235D02*
Y0032D01*
Y00235D02*
X01056Y00097D01*
X01819*
X02209Y01035D02*
Y0107D01*
X02384Y00835D02*
Y0102D01*
X02424Y0106*
Y01145*
X02209Y0107D02*
X02304Y01165D01*
X02404*
X02424Y01145*
X02133Y01079D02*
X02274Y0122D01*
X01359Y00595D02*
Y0061D01*
X01424Y00675*
X01944Y0089D02*
X01964Y0087D01*
X01944Y0089D02*
Y0097D01*
X02424Y01145D02*
X02466D01*
G54D106*
X01319Y00725D02*
X01781Y01187D01*
X01319Y00375D02*
Y00725D01*
X01784Y0119D02*
X01899D01*
Y01255*
X01929Y01285D02*
X02469D01*
X01899Y01255D02*
X01929Y01285D01*
X01999Y01885D02*
X02449D01*
X01539Y0046D02*
X01859D01*
X01419Y0034D02*
X01539Y0046D01*
X01354Y0034D02*
X01419D01*
X01319Y00375D02*
X01354Y0034D01*
X02449Y01785D02*
Y0201D01*
X02529Y02055D02*
X0262Y01964D01*
X02494Y02055D02*
X02529D01*
X0262Y01964D02*
X02783D01*
X03049Y0189D02*
Y0193D01*
X02783Y01964D02*
X02817Y0193D01*
X03049*
X01374Y0038D02*
Y0047D01*
X01729Y00825*
X01994*
X02449Y0201D02*
X02484Y02045D01*
X02494Y02055*
G54D108*
X01635Y00825D02*
D01*
X0164Y00825*
X01645Y00825*
X01649Y00826*
X01654Y00827*
X01659Y00829*
X01663Y0083*
X01667Y00832*
X01671Y00835*
X01675Y00838*
X01679Y0084*
X01683Y00844*
X01684Y00845*
X01789Y0093D02*
D01*
X01785Y00929*
X01782Y00929*
X01778Y00928*
X01775Y00928*
X01772Y00927*
X01769Y00925*
X01766Y00924*
X01763Y00922*
X0176Y0092*
X01757Y00918*
X01755Y00916*
X01754Y00915*
X01888Y00915D02*
D01*
X01886Y00917*
X01883Y00919*
X0188Y00921*
X01877Y00923*
X01874Y00925*
X01871Y00926*
X01867Y00927*
X01864Y00928*
X0186Y00929*
X01857Y00929*
X01853Y00929*
X01852Y0093*
X01889Y00915D02*
D01*
X01888Y00915*
X01888Y00915*
X01888Y00915*
X01888Y00915*
X01888Y00915*
X01944Y00859D02*
D01*
X01945Y00858*
X01946Y00857*
X01947Y00856*
X01948Y00856*
X01949Y00855*
X0195Y00855*
X01952Y00854*
X01953Y00854*
X01954Y00854*
X01955Y00854*
X01957Y00853*
X01957Y00854*
X02075Y00823D02*
X02089Y0081D01*
X02025Y00823D02*
X02075D01*
X02089Y0081D02*
X02099D01*
X01995Y00854D02*
X02025Y00823D01*
X01599Y00825D02*
X01635D01*
X01684Y00845D02*
X01754Y00915D01*
X01957Y00854D02*
X01995D01*
X01888Y00915D02*
X01889Y00915D01*
X01944Y00859*
X01789Y0093D02*
X01852D01*
G54D109*
X0008Y01243D03*
Y00625D03*
X00274Y01219D03*
Y00648D03*
G54D110*
X03534Y01705D03*
X03334D03*
X03434D03*
X02959Y0161D03*
Y0151D03*
Y0181D03*
Y0171D03*
X03059Y0161D03*
Y0151D03*
Y0181D03*
Y0171D03*
G54D111*
X03059Y0134D03*
X02959D03*
Y01D03*
X03059D03*
X02959Y011D03*
X03059D03*
X02959Y012D03*
X03059D03*
X00649Y01795D03*
X01892Y01999D03*
G54D112*
X01494Y0145D03*
G54D113*
X01259Y02085D03*
X01359Y02185D03*
X01159D03*
Y01985D03*
X01359D03*
X02179Y02085D03*
X02279Y02185D03*
X02079D03*
Y01985D03*
X02279D03*
X00674Y02075D03*
X00774Y02175D03*
X00574D03*
Y01975D03*
X00774D03*
G54D114*
X00802Y00102D03*
X00625D03*
Y00357D03*
X00802D03*
X01254Y00845D03*
X01154D03*
X01054D03*
X01254Y00545D03*
X01054D03*
X01154D03*
X00954Y00845D03*
G54D115*
X03259Y00063D03*
G54D116*
X00954Y00545D03*
G54D117*
X00438Y01634D03*
X0037Y00826D03*
X0037Y00766D03*
X00369Y00884D03*
X0037Y00943D03*
X00254Y01062D03*
X00481Y01348D03*
X00479Y01404D03*
X01548Y01217D03*
X01545Y01167D03*
X01935Y01433D03*
X01978D03*
X0203Y01452D03*
X01999Y01195D03*
X02084Y01035D03*
X01928Y0123D03*
X01928Y01205D03*
X02033Y01125D03*
X01949Y00985D03*
X02134Y00935D03*
X021Y00965D03*
X02099Y00995D03*
X0205Y0118D03*
X02052Y01084D03*
X01974Y01135D03*
X02099Y00934D03*
Y009D03*
X02002Y01D03*
X02254Y01465D03*
X01999Y01035D03*
X02068Y00902D03*
X02068Y0084D03*
X02068Y00807D03*
Y00776D03*
Y00744D03*
X02197Y00996D03*
X02194Y00965D03*
X02194Y00935D03*
X02569Y0118D03*
X02904Y01405D03*
X02919Y01385D03*
X02899Y01425D03*
X02374Y00765D03*
X02319Y00775D03*
X02257Y00776D03*
X02226D03*
X0232Y00809D03*
X02159Y0179D03*
X02381Y01797D03*
X02414Y0147D03*
X02059Y0166D03*
X02313Y0146D03*
X02284Y01385D03*
X02124Y0148D03*
Y016D03*
X0232Y00681D03*
X02005Y00744D03*
X02037Y00713D03*
X02131Y00681D03*
X02289Y00713D03*
X021Y00744D03*
X02257Y00933D03*
Y00902D03*
X021Y0087D03*
X02164Y00776D03*
X02131Y0087D03*
X02541Y00397D03*
X02614Y00475D03*
X02232Y00248D03*
X02234Y00405D03*
X01759Y00685D03*
X01994Y00325D03*
X00904Y0124D03*
X01279Y01295D03*
X01994Y00825D03*
X02037Y00902D03*
X02289Y00776D03*
X02209Y01035D03*
X02149D03*
X02257Y00713D03*
X02226Y00713D03*
X02364Y0094D03*
X02364Y00875D03*
X02534Y0066D03*
X02369Y00729D03*
X02289Y00839D03*
X02129Y00745D03*
X02194Y00744D03*
X02165Y00809D03*
X02194Y0081D03*
X01689Y00745D03*
X02579Y00625D03*
X02544Y0064D03*
X02164Y00997D03*
X02134Y00996D03*
X02254Y01065D03*
X02195Y0087D03*
X02314Y01085D03*
X02099Y00776D03*
X0207Y00711D03*
X02354Y00676D03*
X02319Y00995D03*
X01751Y00785D03*
X02133Y00713D03*
X02229Y00745D03*
X02322Y0087D03*
X02164Y00903D03*
X02374Y0112D03*
X02249Y0123D03*
X02104D03*
X02099Y0081D03*
X01964Y0087D03*
X01599Y00825D03*
X02334Y01105D03*
X02194Y009D03*
X01989Y0087D03*
X01974Y00925D03*
X02034Y01195D03*
X02449Y0167D03*
X02397Y01676D03*
X02644Y0176D03*
X02699Y0179D03*
X02714Y01825D03*
G54D118*
X01609Y0155D03*
X01899Y0119D03*
X01867Y02165D03*
X01955Y01894D03*
X02609Y01375D03*
X01999Y01885D03*
X01914Y0188D03*
X01689Y02065D03*
X01674Y01925D03*
X02094Y0181D03*
X03429Y0115D03*
X01859Y0046D03*
X02854Y0004D03*
X01799Y00505D03*
X03269Y00975D03*
X02024Y0025D03*
X02054Y00215D03*
X02344Y00175D03*
X01639Y00325D03*
X01854Y0056D03*
X02699Y0119D03*
X02564Y0137D03*
X02974Y0072D03*
X02839Y002D03*
X02594Y00135D03*
X01824Y0108D03*
X02498Y0014D03*
X03059Y0205D03*
X03019D03*
X02039Y0185D03*
X02614Y0193D03*
X02474Y02105D03*
X02429Y021D03*
X02449Y01785D03*
X03154Y0185D03*
X02824Y0062D03*
X02554Y00775D03*
X02594Y0075D03*
X03179Y0143D03*
X03029Y02195D03*
Y00855D03*
X03379Y00495D03*
Y00575D03*
Y00535D03*
X02484Y01715D03*
X02343Y01797D03*
X03049Y0189D03*
Y0193D03*
X02844Y02015D03*
X02749Y019D03*
X02799D03*
X02934Y01965D03*
X01896Y01612D03*
X02614Y02065D03*
Y01825D03*
Y01645D03*
X02582Y00445D03*
X02486Y00297D03*
X02664Y00295D03*
X02809Y00475D03*
X02686Y0052D03*
X01564Y00555D03*
X03454Y00765D03*
X01429Y0028D03*
X02074Y0025D03*
X02039Y00435D03*
X00781Y00802D03*
X00971Y01047D03*
X01069Y00165D03*
X01129Y01185D03*
X01064Y01345D03*
X01114D03*
X01002Y01453D03*
X01114Y01285D03*
X01266Y01617D03*
X00974Y01545D03*
X01379Y0177D03*
Y01715D03*
Y0166D03*
X03034Y0055D03*
Y0062D03*
X01719Y0015D03*
X00839Y01275D03*
Y01205D03*
X00799Y0161D03*
X01151Y00972D03*
X01574Y0014D03*
X01504Y0007D03*
X00754Y0102D03*
Y0096D03*
X00749Y01635D03*
X00754Y0157D03*
X00594Y0128D03*
X00619Y0124D03*
X00649Y0128D03*
X00629Y00625D03*
X00864Y00575D03*
X01829Y0086D03*
X02529Y0084D03*
X02599Y00585D03*
X02454Y0045D03*
X00919Y0032D03*
X02849Y00655D03*
X02094Y0119D03*
X01374Y0038D03*
X02424Y0106D03*
X03139Y005D03*
X02974Y00445D03*
X01429Y01045D03*
X01574D03*
X02204Y012D03*
X02469Y01285D03*
Y0115D03*
X03184Y0099D03*
X03179Y01215D03*
X01544Y00175D03*
X02384Y00795D03*
X00804Y0176D03*
X01864Y01425D03*
X02094Y00435D03*
X02654Y00795D03*
X00804Y0101D03*
X02654Y01225D03*
X02774Y0034D03*
X01274Y0135D03*
X02524Y00925D03*
Y00965D03*
X01824Y00905D03*
X02379Y0055D03*
X02524Y01025D03*
X02384Y00835D03*
X01834Y00735D03*
X00844Y01755D03*
X00853Y0164D03*
X02824Y00735D03*
Y0085D03*
Y0096D03*
X00604Y0066D03*
X00659Y00655D03*
X01779Y0017D03*
X01724Y002D03*
X02149Y0119D03*
X01429Y00615D03*
X01424Y00675D03*
X01359Y00595D03*
Y00865D03*
X01579Y0089D03*
X01834Y007D03*
X01824Y00955D03*
Y00995D03*
Y0104D03*
X02519Y01365D03*
X01866Y01485D03*
X03109Y0025D03*
Y00325D03*
Y00175D03*
Y001D03*
X02584Y01485D03*
X02634D03*
X02684D03*
G54D119*
X01019Y0126D03*
Y0122D03*
X00979Y0126D03*
Y0122D03*
X02335Y01681D03*
Y0163D03*
X02284Y01681D03*
Y0163D03*
X02335Y01578D03*
X02284D03*
X02232Y01681D03*
Y0163D03*
Y01578D03*
M02*