%FSTAX23Y23*%
%MOIN*%
%SFA1B1*%

%IPPOS*%
%ADD93C,0.073870*%
%ADD94C,0.003000*%
%ADD95C,0.063000*%
%ADD96C,0.073000*%
%ADD97C,0.128000*%
%ADD98C,0.093000*%
%ADD99C,0.062060*%
%ADD100R,0.062060X0.062060*%
%ADD101C,0.017000*%
%LNusb_control-1*%
%LPD*%
G54D93*
X0008Y01243D03*
Y00625D03*
X00274Y01219D03*
Y00648D03*
G54D94*
X03414Y012D03*
X03574Y0136D03*
X03414Y00975D03*
X03574Y01135D03*
X03414Y01405D03*
X03574Y01565D03*
G54D95*
X03534Y01705D03*
X03334D03*
X03434D03*
X02959Y0161D03*
Y0151D03*
Y0181D03*
Y0171D03*
X03059Y0161D03*
Y0151D03*
Y0181D03*
Y0171D03*
G54D96*
X03059Y0134D03*
X02959D03*
Y01D03*
X03059D03*
X02959Y011D03*
X03059D03*
X02959Y012D03*
X03059D03*
X00649Y01795D03*
X01892Y01999D03*
G54D97*
X01494Y0145D03*
G54D98*
X01259Y02085D03*
X01359Y02185D03*
X01159D03*
Y01985D03*
X01359D03*
X02179Y02085D03*
X02279Y02185D03*
X02079D03*
Y01985D03*
X02279D03*
X00674Y02075D03*
X00774Y02175D03*
X00574D03*
Y01975D03*
X00774D03*
G54D99*
X00802Y00102D03*
X00625D03*
Y00357D03*
X00802D03*
X01254Y00845D03*
X01154D03*
X01054D03*
X01254Y00545D03*
X01054D03*
X01154D03*
X00954Y00845D03*
G54D100*
X00954Y00545D03*
G54D101*
X00438Y01634D03*
X0037Y00826D03*
X0037Y00766D03*
X00369Y00884D03*
X0037Y00943D03*
X00254Y01062D03*
X00481Y01348D03*
X00479Y01404D03*
X01548Y01217D03*
X01545Y01167D03*
X01935Y01433D03*
X01978D03*
X02033Y01125D03*
X02099Y00934D03*
M02*