M48
;Layer_Color=9474304
;FILE_FORMAT=2:5
INCH,LZ
;TYPE=PLATED
T1F00S00C0.00300
%
T01
X-0007197Y-00057
X-00063Y-00034
X-000689Y-0001
Y0000984
X-0009Y00014
X-00068Y00039
X-0005
X-00029Y0006
X-00047Y00093
X-00055Y00101
X-0006618Y00103
X-0003951Y00163
X-00072Y00228
Y0025047
Y0027016
X-00078Y00282
X-0006702Y0030072
X-00068Y00312
X-00103Y00321
X-00107Y00361
X-00074Y00358
X-00054Y0038
X-00053Y00396
X000145Y00397
X00105Y0038478
X0009449Y00319
X00074Y0028984
X00072Y00268
Y0025
X00065Y00214
X0010986Y0022095
X00045Y00095
X0004953Y0005807
X00064Y00058
X0003258Y00042
X00027Y0002
X00015Y00014
X-00012Y-00011
M30
