G04*
G04 #@! TF.GenerationSoftware,Altium Limited,Altium Designer,21.0.8 (223)*
G04*
G04 Layer_Color=8388736*
%FSLAX44Y44*%
%MOMM*%
G71*
G04*
G04 #@! TF.SameCoordinates,A782584E-A635-4F2E-AF89-6DD87F871F26*
G04*
G04*
G04 #@! TF.FilePolarity,Negative*
G04*
G01*
G75*
%ADD20R,3.2000X3.2000*%
%ADD21R,0.7000X0.3500*%
%ADD22R,0.3500X0.7000*%
%ADD23R,0.4000X0.4600*%
%ADD24R,0.4600X0.4000*%
%ADD25C,0.3500*%
%ADD26C,0.2524*%
D20*
X666750Y515620D02*
D03*
D21*
X690750Y498120D02*
D03*
Y503120D02*
D03*
Y508120D02*
D03*
Y513120D02*
D03*
Y518120D02*
D03*
Y523120D02*
D03*
Y528120D02*
D03*
Y533120D02*
D03*
X642750Y498120D02*
D03*
Y503120D02*
D03*
Y508120D02*
D03*
Y513120D02*
D03*
Y518120D02*
D03*
Y523120D02*
D03*
Y528120D02*
D03*
Y533120D02*
D03*
D22*
X684250Y539620D02*
D03*
X679250D02*
D03*
X674250D02*
D03*
X669250D02*
D03*
X664250D02*
D03*
X659250D02*
D03*
X654250D02*
D03*
X649250D02*
D03*
Y491620D02*
D03*
X654250D02*
D03*
X659250D02*
D03*
X664250D02*
D03*
X669250D02*
D03*
X674250D02*
D03*
X679250D02*
D03*
X684250D02*
D03*
D23*
X667876Y545338D02*
D03*
X661776D02*
D03*
X659128Y485902D02*
D03*
X665228D02*
D03*
X654300D02*
D03*
X648200D02*
D03*
X690133Y545338D02*
D03*
X684033D02*
D03*
X695454Y485902D02*
D03*
X689354D02*
D03*
X679091Y545338D02*
D03*
X672991D02*
D03*
X642849Y485902D02*
D03*
X636749D02*
D03*
X671200D02*
D03*
X677300D02*
D03*
X656846Y545338D02*
D03*
X650746D02*
D03*
D24*
X696468Y528064D02*
D03*
Y534164D02*
D03*
Y494790D02*
D03*
Y500890D02*
D03*
Y505966D02*
D03*
Y512066D02*
D03*
Y539240D02*
D03*
Y545340D02*
D03*
X637032Y509776D02*
D03*
Y515876D02*
D03*
Y520952D02*
D03*
Y527052D02*
D03*
X696468Y522988D02*
D03*
Y516888D02*
D03*
D25*
X691750Y427000D02*
D03*
X686750D02*
D03*
X681750D02*
D03*
X676750D02*
D03*
X671750D02*
D03*
X666750D02*
D03*
X661750D02*
D03*
X656750D02*
D03*
X651750D02*
D03*
X646750D02*
D03*
X641750D02*
D03*
Y432000D02*
D03*
X646750D02*
D03*
X651750D02*
D03*
X656750D02*
D03*
X661750D02*
D03*
X666750D02*
D03*
X671750D02*
D03*
X676750D02*
D03*
X681750D02*
D03*
X686750D02*
D03*
X691750D02*
D03*
Y447000D02*
D03*
Y442000D02*
D03*
Y437000D02*
D03*
X686750D02*
D03*
Y442000D02*
D03*
Y447000D02*
D03*
X641750Y437000D02*
D03*
Y442000D02*
D03*
Y447000D02*
D03*
X646750Y437000D02*
D03*
Y442000D02*
D03*
Y447000D02*
D03*
X686750Y457000D02*
D03*
X681750D02*
D03*
X676750D02*
D03*
X671750D02*
D03*
Y452000D02*
D03*
X676750D02*
D03*
X681750D02*
D03*
X686750D02*
D03*
X691750D02*
D03*
Y457000D02*
D03*
Y462000D02*
D03*
X686750D02*
D03*
X681750D02*
D03*
X676750D02*
D03*
X671750D02*
D03*
X661750Y452000D02*
D03*
Y457000D02*
D03*
X656750D02*
D03*
Y452000D02*
D03*
X651750D02*
D03*
Y457000D02*
D03*
X646750D02*
D03*
Y452000D02*
D03*
X641750D02*
D03*
Y457000D02*
D03*
Y462000D02*
D03*
X646750D02*
D03*
X651750D02*
D03*
X656750D02*
D03*
X661750D02*
D03*
X666750D02*
D03*
Y457000D02*
D03*
Y452000D02*
D03*
D26*
X653034Y541020D02*
D03*
X640588Y526034D02*
D03*
X639572Y536194D02*
D03*
M02*
