G04*
G04 #@! TF.GenerationSoftware,Altium Limited,Altium Designer,21.0.8 (223)*
G04*
G04 Layer_Color=32896*
%FSLAX44Y44*%
%MOMM*%
G71*
G04*
G04 #@! TF.SameCoordinates,A782584E-A635-4F2E-AF89-6DD87F871F26*
G04*
G04*
G04 #@! TF.FilePolarity,Positive*
G04*
G01*
G75*
%ADD10C,0.1016*%
%ADD73C,0.1000*%
%ADD77C,0.0500*%
D10*
X634250Y469500D02*
X699250D01*
Y419500D02*
Y469500D01*
X634250Y419500D02*
X699250D01*
X634250D02*
Y469500D01*
D73*
X691750Y490620D02*
Y540620D01*
X641750Y490620D02*
Y540620D01*
X691750D01*
X641750Y490620D02*
X691750D01*
D77*
X661676Y546738D02*
X667976D01*
X661676Y543938D02*
X667976D01*
X661676D02*
Y546738D01*
X667976Y543938D02*
Y546738D01*
X697868Y527964D02*
Y534264D01*
X695068Y527964D02*
Y534264D01*
X697868D01*
X695068Y527964D02*
X697868D01*
X659028Y484502D02*
X665328D01*
X659028Y487302D02*
X665328D01*
Y484502D02*
Y487302D01*
X659028Y484502D02*
Y487302D01*
X648100D02*
X654400D01*
X648100Y484502D02*
X654400D01*
X648100D02*
Y487302D01*
X654400Y484502D02*
Y487302D01*
X683932Y546738D02*
X690232D01*
X683932Y543938D02*
X690232D01*
X683932D02*
Y546738D01*
X690232Y543938D02*
Y546738D01*
X689254Y484502D02*
Y487302D01*
X695554Y484502D02*
Y487302D01*
X689254D02*
X695554D01*
X689254Y484502D02*
X695554D01*
X695068Y500990D02*
X697868D01*
X695068Y494690D02*
X697868D01*
Y500990D01*
X695068Y494690D02*
Y500990D01*
Y512166D02*
X697868D01*
X695068Y505866D02*
X697868D01*
Y512166D01*
X695068Y505866D02*
Y512166D01*
X672891Y543938D02*
Y546738D01*
X679191Y543938D02*
Y546738D01*
X672891D02*
X679191D01*
X672891Y543938D02*
X679191D01*
X636649Y484502D02*
Y487302D01*
X642949Y484502D02*
Y487302D01*
X636649D02*
X642949D01*
X636649Y484502D02*
X642949D01*
X677400D02*
Y487302D01*
X671100Y484502D02*
Y487302D01*
Y484502D02*
X677400D01*
X671100Y487302D02*
X677400D01*
X695068Y545440D02*
X697868D01*
X695068Y539140D02*
X697868D01*
Y545440D01*
X695068Y539140D02*
Y545440D01*
X650646Y543938D02*
Y546738D01*
X656946Y543938D02*
Y546738D01*
X650646D02*
X656946D01*
X650646Y543938D02*
X656946D01*
X635632Y515976D02*
X638432D01*
X635632Y509676D02*
X638432D01*
Y515976D01*
X635632Y509676D02*
Y515976D01*
Y527152D02*
X638432D01*
X635632Y520852D02*
X638432D01*
Y527152D01*
X635632Y520852D02*
Y527152D01*
X695068Y516788D02*
X697868D01*
X695068Y523088D02*
X697868D01*
X695068Y516788D02*
Y523088D01*
X697868Y516788D02*
Y523088D01*
M02*
