G04*
G04 #@! TF.GenerationSoftware,Altium Limited,Altium Designer,21.0.8 (223)*
G04*
G04 Layer_Physical_Order=2*
G04 Layer_Color=36540*
%FSLAX44Y44*%
%MOMM*%
G71*
G04*
G04 #@! TF.SameCoordinates,A782584E-A635-4F2E-AF89-6DD87F871F26*
G04*
G04*
G04 #@! TF.FilePolarity,Positive*
G04*
G01*
G75*
%ADD33C,0.1524*%
%ADD34C,0.2540*%
G36*
X698500Y544683D02*
X697230Y543834D01*
X696976Y543940D01*
X695810Y543456D01*
X695329Y542297D01*
X695326Y542290D01*
X695810Y541124D01*
X696976Y540640D01*
X696982Y540643D01*
X697230Y540746D01*
X698500Y539897D01*
Y522124D01*
X697230Y521514D01*
X696440Y521842D01*
X695274Y521358D01*
X694790Y520192D01*
X695274Y519026D01*
X696440Y518542D01*
X697230Y518870D01*
X698500Y518260D01*
Y493196D01*
X697230Y492719D01*
X696214Y493140D01*
X695048Y492656D01*
X694564Y491490D01*
X695048Y490324D01*
X696214Y489840D01*
X697230Y490261D01*
X698500Y489784D01*
Y478389D01*
X697230Y477540D01*
X696983Y477643D01*
X696976Y477646D01*
X695810Y477162D01*
X695807Y477157D01*
X695329Y476003D01*
X695326Y475996D01*
X695810Y474830D01*
X696976Y474346D01*
X696983Y474349D01*
X697230Y474452D01*
X698500Y473603D01*
Y420370D01*
X635000D01*
Y476208D01*
X636016Y476886D01*
X637175Y477367D01*
X637182Y477370D01*
X637666Y478536D01*
X637663Y478542D01*
X637182Y479702D01*
X636016Y480186D01*
X635000Y480864D01*
Y497433D01*
X636270Y497686D01*
X636374Y497436D01*
X637540Y496952D01*
X638706Y497436D01*
X639190Y498602D01*
X638706Y499768D01*
X637547Y500249D01*
X637540Y500252D01*
X636374Y499768D01*
X636371Y499763D01*
X636270Y499518D01*
X635000Y499771D01*
Y504516D01*
X636270Y505142D01*
X637032Y504826D01*
X638198Y505310D01*
X638679Y506469D01*
X638682Y506476D01*
X638198Y507642D01*
X637032Y508126D01*
X637026Y508123D01*
X636270Y507810D01*
X635000Y508436D01*
Y547370D01*
X644949D01*
X645288Y546862D01*
X645772Y545696D01*
X645779Y545693D01*
X646938Y545212D01*
X648098Y545693D01*
X648104Y545696D01*
X648588Y546862D01*
X648927Y547370D01*
X698500D01*
Y544683D01*
D02*
G37*
%LPC*%
G36*
X687024Y543318D02*
X685858Y542835D01*
X685374Y541669D01*
X685858Y540502D01*
X687024Y540019D01*
X688190Y540502D01*
X688674Y541669D01*
X688190Y542835D01*
X687024Y543318D01*
D02*
G37*
G36*
X646476Y543318D02*
X645310Y542835D01*
X644826Y541669D01*
X645310Y540502D01*
X646476Y540019D01*
X647642Y540502D01*
X648126Y541669D01*
X647642Y542835D01*
X646476Y543318D01*
D02*
G37*
G36*
X653034Y542670D02*
X651868Y542186D01*
X651384Y541020D01*
X651868Y539854D01*
X653034Y539370D01*
X654200Y539854D01*
X654684Y541020D01*
X654200Y542186D01*
X653034Y542670D01*
D02*
G37*
G36*
X662178Y541400D02*
X661012Y540916D01*
X660528Y539750D01*
X661012Y538584D01*
X662178Y538100D01*
X663344Y538584D01*
X663828Y539750D01*
X663344Y540916D01*
X662178Y541400D01*
D02*
G37*
G36*
X672084Y543432D02*
X670918Y542948D01*
X670915Y542942D01*
X670437Y541789D01*
X670434Y541782D01*
X670547Y541510D01*
X670156Y540154D01*
X669675Y538994D01*
X669672Y538988D01*
X670156Y537822D01*
X670163Y537819D01*
X671315Y537341D01*
X671322Y537338D01*
X672488Y537822D01*
X672491Y537827D01*
X672969Y538981D01*
X672972Y538988D01*
X672876Y539219D01*
X672871Y539304D01*
X673250Y540616D01*
X673731Y541776D01*
X673734Y541782D01*
X673250Y542948D01*
X672084Y543432D01*
D02*
G37*
G36*
X684530Y537082D02*
X683364Y536598D01*
X683328Y536512D01*
X682648Y536090D01*
X681482Y536574D01*
X681475Y536571D01*
X680316Y536090D01*
X679832Y534924D01*
X680316Y533758D01*
X681482Y533274D01*
X682648Y533758D01*
X682684Y533843D01*
X683364Y534266D01*
X684530Y533782D01*
X684537Y533785D01*
X685696Y534266D01*
X686180Y535432D01*
X685696Y536598D01*
X684530Y537082D01*
D02*
G37*
G36*
X691642Y539114D02*
X690476Y538630D01*
X689992Y537464D01*
X690476Y536298D01*
X691642Y535814D01*
X692808Y536298D01*
X693292Y537464D01*
X692808Y538630D01*
X691642Y539114D01*
D02*
G37*
G36*
X639572Y537844D02*
X638406Y537360D01*
X637922Y536194D01*
X638406Y535028D01*
X639572Y534544D01*
X640738Y535028D01*
X641222Y536194D01*
X640738Y537360D01*
X639572Y537844D01*
D02*
G37*
G36*
X676656Y537082D02*
X675490Y536598D01*
X675006Y535432D01*
X675490Y534266D01*
X676656Y533782D01*
X677822Y534266D01*
X678306Y535432D01*
X677822Y536598D01*
X676656Y537082D01*
D02*
G37*
G36*
X647954Y537082D02*
X647948Y537079D01*
X646788Y536598D01*
X646307Y535439D01*
X646304Y535432D01*
X646554Y534828D01*
X646722Y533908D01*
X646554Y532988D01*
X646304Y532384D01*
X646307Y532377D01*
X646788Y531218D01*
X647947Y530737D01*
X647954Y530734D01*
X649120Y531217D01*
X649121Y531218D01*
X649279Y531554D01*
X650430Y532031D01*
X650487Y532007D01*
X650494Y532004D01*
X651660Y532488D01*
X651663Y532495D01*
X652141Y533647D01*
X652144Y533654D01*
X651661Y534821D01*
X651655Y534823D01*
X650494Y535304D01*
X649293Y536181D01*
X649123Y536591D01*
X649120Y536598D01*
X647954Y537082D01*
D02*
G37*
G36*
X640588Y527684D02*
X639422Y527200D01*
X638938Y526034D01*
X639422Y524868D01*
X640588Y524384D01*
X641754Y524868D01*
X642238Y526034D01*
X641754Y527200D01*
X640588Y527684D01*
D02*
G37*
G36*
X649478Y525398D02*
X648312Y524914D01*
X648309Y524907D01*
X647831Y523755D01*
X647828Y523748D01*
X648312Y522582D01*
X648297Y521648D01*
X648291Y521401D01*
X648076Y520883D01*
X648079Y520876D01*
X648560Y519717D01*
X649719Y519237D01*
X649726Y519234D01*
X650892Y519717D01*
X650895Y519724D01*
X651373Y520876D01*
X651376Y520883D01*
X650892Y522050D01*
X650908Y522983D01*
X650913Y523231D01*
X651128Y523748D01*
X651125Y523755D01*
X650644Y524914D01*
X649485Y525395D01*
X649478Y525398D01*
D02*
G37*
G36*
X685546Y519770D02*
X684380Y519286D01*
X683896Y518120D01*
X684380Y516954D01*
X685546Y516470D01*
X686712Y516954D01*
X687196Y518120D01*
X686712Y519286D01*
X685546Y519770D01*
D02*
G37*
G36*
X646938Y517778D02*
X645772Y517294D01*
X645769Y517287D01*
X645291Y516135D01*
X645288Y516128D01*
X645772Y514962D01*
X645777Y514959D01*
X646153Y514804D01*
X646937Y514449D01*
X646889Y513305D01*
X646812Y513120D01*
X647296Y511954D01*
X648462Y511470D01*
X649628Y511954D01*
X650112Y513120D01*
X649628Y514286D01*
X649247Y514445D01*
X648463Y514799D01*
X648511Y515943D01*
X648588Y516128D01*
X648104Y517294D01*
X646945Y517775D01*
X646938Y517778D01*
D02*
G37*
G36*
X685038Y514222D02*
X683872Y513738D01*
X683388Y512572D01*
X683872Y511406D01*
X685038Y510922D01*
X686204Y511406D01*
X686688Y512572D01*
X686204Y513738D01*
X685038Y514222D01*
D02*
G37*
G36*
Y509650D02*
X683872Y509166D01*
X683388Y508000D01*
X683872Y506834D01*
X685038Y506350D01*
X686204Y506834D01*
X686688Y508000D01*
X686204Y509166D01*
X685038Y509650D01*
D02*
G37*
G36*
X648462Y509770D02*
X647296Y509286D01*
X647293Y509280D01*
X646815Y508127D01*
X646812Y508120D01*
X647049Y507549D01*
X647042Y506372D01*
X646558Y505206D01*
X647042Y504040D01*
X647019Y503401D01*
X646993Y502847D01*
X646812Y502412D01*
X646815Y502405D01*
X647296Y501246D01*
X648455Y500765D01*
X648462Y500762D01*
X649628Y501246D01*
X649631Y501253D01*
X650109Y502405D01*
X650112Y502412D01*
X649628Y503578D01*
X649651Y504217D01*
X649677Y504771D01*
X649858Y505206D01*
X649621Y505777D01*
X649628Y506954D01*
X650112Y508120D01*
X650109Y508126D01*
X649628Y509286D01*
X648467Y509767D01*
X648462Y509770D01*
D02*
G37*
G36*
X683260Y500506D02*
X683254Y500503D01*
X682094Y500022D01*
X680667Y499896D01*
X680281Y500056D01*
X680274Y500059D01*
X679107Y499576D01*
X678624Y498410D01*
X679107Y497243D01*
X680274Y496760D01*
X680281Y496763D01*
X681440Y497243D01*
X682867Y497369D01*
X683260Y497206D01*
X684426Y497690D01*
X684910Y498856D01*
X684429Y500015D01*
X684426Y500022D01*
X683260Y500506D01*
D02*
G37*
G36*
X694655Y502270D02*
X693489Y501786D01*
X693006Y500620D01*
X693489Y499454D01*
X694655Y498970D01*
X695822Y499454D01*
X696305Y500620D01*
X695822Y501786D01*
X694655Y502270D01*
D02*
G37*
G36*
X668020Y499744D02*
X666854Y499260D01*
X666370Y498094D01*
X666854Y496928D01*
X668020Y496444D01*
X669186Y496928D01*
X669670Y498094D01*
X669186Y499260D01*
X668020Y499744D01*
D02*
G37*
G36*
X659638Y499490D02*
X658472Y499006D01*
X657988Y497840D01*
X658472Y496674D01*
X659638Y496190D01*
X660804Y496674D01*
X661288Y497840D01*
X660804Y499006D01*
X659638Y499490D01*
D02*
G37*
G36*
X654250Y497204D02*
X653084Y496720D01*
X652600Y495554D01*
X653084Y494388D01*
X654250Y493904D01*
X655416Y494388D01*
X655900Y495554D01*
X655416Y496720D01*
X654250Y497204D01*
D02*
G37*
G36*
X689610Y495934D02*
X688444Y495450D01*
X687960Y494284D01*
X688444Y493118D01*
X689610Y492634D01*
X690776Y493118D01*
X691260Y494284D01*
X690776Y495450D01*
X689610Y495934D01*
D02*
G37*
G36*
X639064Y494156D02*
X637898Y493672D01*
X637414Y492506D01*
X637898Y491340D01*
X639064Y490856D01*
X640230Y491340D01*
X640714Y492506D01*
X640230Y493672D01*
X639064Y494156D01*
D02*
G37*
G36*
X641604Y485012D02*
X640438Y484528D01*
X639954Y483362D01*
X640438Y482196D01*
X641604Y481712D01*
X642770Y482196D01*
X643254Y483362D01*
X642770Y484528D01*
X641604Y485012D01*
D02*
G37*
G36*
X667958Y483172D02*
X666792Y482689D01*
X666309Y481522D01*
X666792Y480356D01*
X667958Y479873D01*
X669125Y480356D01*
X669608Y481522D01*
X669125Y482689D01*
X667958Y483172D01*
D02*
G37*
G36*
X689356Y482726D02*
X688190Y482242D01*
X687706Y481076D01*
X688190Y479910D01*
X689356Y479426D01*
X690522Y479910D01*
X691006Y481076D01*
X690522Y482242D01*
X689356Y482726D01*
D02*
G37*
G36*
X641140Y480465D02*
X639973Y479982D01*
X639490Y478815D01*
X639973Y477649D01*
X641140Y477166D01*
X642306Y477649D01*
X642790Y478815D01*
X642306Y479982D01*
X641140Y480465D01*
D02*
G37*
G36*
X669603Y477646D02*
X668437Y477162D01*
X667953Y475996D01*
X668437Y474830D01*
X669603Y474346D01*
X670770Y474830D01*
X671253Y475996D01*
X670770Y477162D01*
X669603Y477646D01*
D02*
G37*
G36*
X684784Y476884D02*
X683618Y476400D01*
X683134Y475234D01*
X683618Y474068D01*
X684784Y473584D01*
X685950Y474068D01*
X686434Y475234D01*
X685950Y476400D01*
X684784Y476884D01*
D02*
G37*
G36*
X678180Y470280D02*
X677014Y469796D01*
X676530Y468630D01*
X677014Y467464D01*
X678180Y466980D01*
X679346Y467464D01*
X679830Y468630D01*
X679346Y469796D01*
X678180Y470280D01*
D02*
G37*
G36*
X673862Y467486D02*
X672696Y467002D01*
X672693Y466996D01*
X672674Y466952D01*
X671980Y465986D01*
X670814Y466470D01*
X669648Y465986D01*
X669167Y464827D01*
X669164Y464820D01*
X669648Y463654D01*
X669654Y463651D01*
X670807Y463173D01*
X670814Y463170D01*
X671980Y463654D01*
X671983Y463659D01*
X672001Y463704D01*
X672696Y464670D01*
X673862Y464186D01*
X675028Y464670D01*
X675512Y465836D01*
X675028Y467002D01*
X673867Y467483D01*
X673862Y467486D01*
D02*
G37*
G36*
X695452Y466978D02*
X694286Y466494D01*
X693802Y465328D01*
X694286Y464162D01*
X695452Y463678D01*
X696618Y464162D01*
X697102Y465328D01*
X696618Y466494D01*
X695452Y466978D01*
D02*
G37*
G36*
X642366Y466724D02*
X641200Y466240D01*
X640716Y465074D01*
X641200Y463908D01*
X642366Y463424D01*
X643532Y463908D01*
X644016Y465074D01*
X643532Y466240D01*
X642366Y466724D01*
D02*
G37*
G36*
X685038Y471804D02*
X683872Y471320D01*
X683391Y470161D01*
X683388Y470154D01*
X683872Y468988D01*
X685038Y468504D01*
X685044Y468507D01*
X685380Y468646D01*
X685380Y468645D01*
X685892Y467484D01*
X685771Y467190D01*
X685771D01*
X685756Y467153D01*
X685420Y466344D01*
X685901Y465185D01*
X685904Y465178D01*
X687070Y464694D01*
X687076Y464697D01*
X688057Y465103D01*
X688643Y464962D01*
X689321Y464602D01*
X689711Y463661D01*
X689714Y463654D01*
X690880Y463170D01*
X690886Y463173D01*
X692046Y463654D01*
X692530Y464820D01*
X692046Y465986D01*
X690880Y466470D01*
X689893Y466061D01*
X689307Y466202D01*
X688629Y466562D01*
X688239Y467504D01*
X688236Y467510D01*
X687070Y467994D01*
X687064Y467991D01*
X686728Y467852D01*
X686728Y467853D01*
X686216Y469014D01*
X686337Y469308D01*
X686337Y469308D01*
X686352Y469345D01*
X686688Y470154D01*
X686204Y471320D01*
X685038Y471804D01*
D02*
G37*
G36*
X679196Y465708D02*
X678030Y465224D01*
X677546Y464058D01*
X678030Y462892D01*
X679196Y462408D01*
X680362Y462892D01*
X680846Y464058D01*
X680362Y465224D01*
X679196Y465708D01*
D02*
G37*
G36*
X649940Y472312D02*
X648774Y471828D01*
X648293Y470669D01*
X648290Y470662D01*
X648774Y469496D01*
X649940Y469012D01*
X649946Y469015D01*
X650186Y469114D01*
X651614Y468988D01*
X652780Y468504D01*
X653457Y467410D01*
X653646Y466956D01*
X654786Y466483D01*
X654812Y466472D01*
X655747Y465485D01*
X655576Y465074D01*
X655926Y464229D01*
X655118Y463190D01*
X654565Y463419D01*
X654558Y463422D01*
X653392Y462938D01*
X653389Y462933D01*
X652911Y461779D01*
X652908Y461772D01*
X653021Y461500D01*
X652630Y460145D01*
X652149Y458984D01*
X652146Y458978D01*
X652630Y457812D01*
X652636Y457809D01*
X653789Y457331D01*
X653796Y457328D01*
X654962Y457812D01*
X654965Y457817D01*
X655443Y458971D01*
X655446Y458978D01*
X655333Y459250D01*
X655724Y460606D01*
X656208Y461772D01*
X656205Y461779D01*
X655858Y462617D01*
X656666Y463657D01*
X657226Y463424D01*
X657323Y463465D01*
X658496Y463550D01*
X658905Y462563D01*
X658979Y462382D01*
X658722Y461115D01*
X658224Y460909D01*
X658218Y460906D01*
X657734Y459740D01*
X657737Y459734D01*
X658218Y458574D01*
X659384Y458090D01*
X660550Y458574D01*
X661034Y459740D01*
X660625Y460727D01*
X660551Y460908D01*
X660808Y462174D01*
X661312Y462384D01*
X661796Y463550D01*
X661312Y464716D01*
X660146Y465200D01*
X660049Y465159D01*
X658876Y465074D01*
X658392Y466240D01*
X657253Y466713D01*
X657226Y466724D01*
X656291Y467711D01*
X656459Y468115D01*
X656462Y468122D01*
X655978Y469288D01*
X655973Y469291D01*
X654812Y469772D01*
X654135Y470866D01*
X653946Y471320D01*
X652787Y471801D01*
X652780Y471804D01*
X651614Y471320D01*
X651190Y471627D01*
X651106Y471828D01*
X649940Y472312D01*
D02*
G37*
G36*
X649250Y461390D02*
X648084Y460906D01*
X647600Y459740D01*
X648084Y458574D01*
X649250Y458090D01*
X650416Y458574D01*
X650900Y459740D01*
X650416Y460906D01*
X649250Y461390D01*
D02*
G37*
G36*
X675025Y456818D02*
X673858Y456334D01*
X673375Y455168D01*
X673858Y454002D01*
X675025Y453518D01*
X676191Y454002D01*
X676674Y455168D01*
X676191Y456334D01*
X675025Y456818D01*
D02*
G37*
G36*
X641832Y456426D02*
X640666Y455942D01*
X640182Y454776D01*
X640666Y453610D01*
X641832Y453126D01*
X642998Y453610D01*
X643482Y454776D01*
X642998Y455942D01*
X641832Y456426D01*
D02*
G37*
G36*
X664464Y456056D02*
X663298Y455572D01*
X662814Y454406D01*
X663298Y453240D01*
X664464Y452756D01*
X665630Y453240D01*
X666114Y454406D01*
X665630Y455572D01*
X664464Y456056D01*
D02*
G37*
G36*
X654050D02*
X652884Y455572D01*
X652400Y454406D01*
X652884Y453240D01*
X654050Y452756D01*
X655216Y453240D01*
X655700Y454406D01*
X655216Y455572D01*
X654050Y456056D01*
D02*
G37*
G36*
X659130Y455802D02*
X657964Y455318D01*
X657480Y454152D01*
X657964Y452986D01*
X659130Y452502D01*
X660296Y452986D01*
X660780Y454152D01*
X660296Y455318D01*
X659130Y455802D01*
D02*
G37*
G36*
X679330Y460899D02*
X678164Y460416D01*
X677680Y459250D01*
X678164Y458083D01*
X679330Y457600D01*
X680463Y458070D01*
X680496Y458083D01*
X681840Y458066D01*
X681860Y458057D01*
X682040Y457982D01*
X682880Y456692D01*
X683364Y455526D01*
X682914Y454337D01*
X682629Y453651D01*
X682626Y453644D01*
X683110Y452478D01*
X683115Y452475D01*
X684269Y451997D01*
X684276Y451994D01*
X685442Y452478D01*
X685445Y452483D01*
X685923Y453637D01*
X685926Y453644D01*
X685442Y454810D01*
X685892Y455999D01*
X686180Y456692D01*
X685696Y457858D01*
X685496Y457942D01*
X684656Y459232D01*
X684172Y460398D01*
X684165Y460401D01*
X683006Y460882D01*
X681873Y460412D01*
X681840Y460398D01*
X680496Y460416D01*
X680476Y460425D01*
X679330Y460899D01*
D02*
G37*
G36*
X673608Y451230D02*
X672442Y450746D01*
X672439Y450740D01*
X672272Y450336D01*
X671902Y449582D01*
X670785Y449612D01*
X670567Y449703D01*
X670560Y449706D01*
X669394Y449222D01*
X668910Y448056D01*
X668913Y448049D01*
X669394Y446890D01*
X670553Y446409D01*
X670560Y446406D01*
X671726Y446890D01*
X671729Y446895D01*
X671896Y447300D01*
X672266Y448054D01*
X673383Y448024D01*
X673608Y447930D01*
X674774Y448414D01*
X675258Y449580D01*
X674774Y450746D01*
X673613Y451227D01*
X673608Y451230D01*
D02*
G37*
G36*
X657352Y449960D02*
X656186Y449476D01*
X656183Y449470D01*
X655924Y448845D01*
X654787Y448485D01*
X654529Y448535D01*
X653549Y448941D01*
X653542Y448944D01*
X652376Y448460D01*
X651892Y447294D01*
X651895Y447287D01*
X652376Y446128D01*
X653542Y445644D01*
X654708Y446128D01*
X654970Y446759D01*
X656107Y447119D01*
X656365Y447069D01*
X657345Y446663D01*
X657352Y446660D01*
X658518Y447144D01*
X659002Y448310D01*
X658999Y448317D01*
X658518Y449476D01*
X657357Y449957D01*
X657352Y449960D01*
D02*
G37*
G36*
X681736Y450214D02*
X680570Y449730D01*
X680086Y448564D01*
X680570Y447398D01*
X681736Y446914D01*
X682902Y447398D01*
X683386Y448564D01*
X682902Y449730D01*
X681736Y450214D01*
D02*
G37*
G36*
X643890Y449706D02*
X642724Y449222D01*
X642240Y448056D01*
X642724Y446890D01*
X643890Y446406D01*
X645056Y446890D01*
X645540Y448056D01*
X645056Y449222D01*
X643890Y449706D01*
D02*
G37*
G36*
X676402Y447674D02*
X675236Y447190D01*
X674752Y446024D01*
X675236Y444858D01*
X676402Y444374D01*
X677568Y444858D01*
X678052Y446024D01*
X677568Y447190D01*
X676402Y447674D01*
D02*
G37*
G36*
X689250Y445073D02*
X688084Y444589D01*
X687600Y443423D01*
X688084Y442257D01*
X689250Y441773D01*
X690416Y442257D01*
X690900Y443423D01*
X690416Y444589D01*
X689250Y445073D01*
D02*
G37*
G36*
X639064Y443864D02*
X637898Y443380D01*
X637414Y442214D01*
X637898Y441048D01*
X639064Y440564D01*
X640230Y441048D01*
X640714Y442214D01*
X640230Y443380D01*
X639064Y443864D01*
D02*
G37*
G36*
X663702Y443356D02*
X662536Y442872D01*
X662052Y441706D01*
X662536Y440540D01*
X663702Y440056D01*
X664868Y440540D01*
X665352Y441706D01*
X664868Y442872D01*
X663702Y443356D01*
D02*
G37*
G36*
X694690Y439800D02*
X693524Y439316D01*
X693040Y438150D01*
X693524Y436984D01*
X694690Y436500D01*
X695856Y436984D01*
X696340Y438150D01*
X695856Y439316D01*
X694690Y439800D01*
D02*
G37*
G36*
X657352Y443610D02*
X656186Y443126D01*
X655702Y441960D01*
X656186Y440794D01*
X656309Y440742D01*
Y439368D01*
X656192Y439319D01*
X656186Y439316D01*
X655702Y438150D01*
X655705Y438143D01*
X656186Y436984D01*
X657345Y436503D01*
X657352Y436500D01*
X658518Y436984D01*
X658521Y436991D01*
X658999Y438143D01*
X659002Y438150D01*
X658518Y439316D01*
X658513Y439319D01*
X658395Y439368D01*
Y440742D01*
X658512Y440791D01*
X658518Y440794D01*
X659002Y441960D01*
X658999Y441967D01*
X658518Y443126D01*
X657352Y443610D01*
D02*
G37*
G36*
X676656Y441324D02*
X675490Y440840D01*
X675006Y439674D01*
X675454Y438593D01*
X674857Y437530D01*
X674843Y437495D01*
X674377Y436371D01*
X674374Y436364D01*
X674857Y435197D01*
X676024Y434714D01*
X676031Y434717D01*
X677190Y435197D01*
X677673Y436364D01*
X677226Y437445D01*
X677822Y438508D01*
X677837Y438543D01*
X678306Y439674D01*
X677822Y440840D01*
X676656Y441324D01*
D02*
G37*
G36*
X650748Y437514D02*
X649582Y437030D01*
X649098Y435864D01*
X649582Y434698D01*
X650748Y434214D01*
X651914Y434698D01*
X652398Y435864D01*
X651914Y437030D01*
X650748Y437514D01*
D02*
G37*
G36*
X671342Y436498D02*
X670176Y436014D01*
X669692Y434848D01*
X670176Y433682D01*
X671342Y433198D01*
X672508Y433682D01*
X672992Y434848D01*
X672508Y436014D01*
X671342Y436498D01*
D02*
G37*
G36*
X663702D02*
X662536Y436014D01*
X662052Y434848D01*
X662536Y433682D01*
X663702Y433198D01*
X664868Y433682D01*
X665352Y434848D01*
X664868Y436014D01*
X663702Y436498D01*
D02*
G37*
G36*
X659384Y435482D02*
X658218Y434998D01*
X657734Y433832D01*
X658218Y432666D01*
X659384Y432182D01*
X660550Y432666D01*
X661034Y433832D01*
X660550Y434998D01*
X659384Y435482D01*
D02*
G37*
G36*
X653288Y431164D02*
X652122Y430680D01*
X651638Y429514D01*
X652122Y428348D01*
X653288Y427864D01*
X654454Y428348D01*
X654938Y429514D01*
X654454Y430680D01*
X653288Y431164D01*
D02*
G37*
G36*
X679450D02*
X678284Y430680D01*
X677803Y429521D01*
X677800Y429514D01*
X678284Y428348D01*
X678290Y428345D01*
X679443Y427867D01*
X679450Y427864D01*
X680616Y428348D01*
X680619Y428353D01*
X680691Y428528D01*
X680691Y428528D01*
X682064Y428524D01*
X682348Y427840D01*
X683514Y427356D01*
X684680Y427840D01*
X685161Y428999D01*
X685164Y429006D01*
X684680Y430172D01*
X684673Y430175D01*
X683521Y430653D01*
X683514Y430656D01*
X682348Y430172D01*
X682345Y430167D01*
X682273Y429992D01*
X682273Y429992D01*
X680900Y429996D01*
X680616Y430680D01*
X679450Y431164D01*
D02*
G37*
G36*
X683768Y426084D02*
X682602Y425600D01*
X682118Y424434D01*
X682602Y423268D01*
X683768Y422784D01*
X684934Y423268D01*
X685418Y424434D01*
X684934Y425600D01*
X683768Y426084D01*
D02*
G37*
G36*
X653796Y425830D02*
X652630Y425346D01*
X652146Y424180D01*
X652630Y423014D01*
X653796Y422530D01*
X654962Y423014D01*
X655446Y424180D01*
X654962Y425346D01*
X653796Y425830D01*
D02*
G37*
G36*
X668020Y425322D02*
X666854Y424838D01*
X666370Y423672D01*
X666854Y422506D01*
X668020Y422022D01*
X669186Y422506D01*
X669670Y423672D01*
X669186Y424838D01*
X668020Y425322D01*
D02*
G37*
%LPD*%
D33*
X653288Y545084D02*
D03*
X649478Y454406D02*
D03*
X635762Y468178D02*
D03*
X660472Y481544D02*
D03*
X651764Y465328D02*
D03*
X637794Y444754D02*
D03*
X639286Y486432D02*
D03*
X644144Y482092D02*
D03*
X668274Y434848D02*
D03*
X644190Y434467D02*
D03*
X678942Y432816D02*
D03*
X672719Y438658D02*
D03*
X694436Y458978D02*
D03*
X667004Y464611D02*
D03*
X660400Y423418D02*
D03*
X636778Y530606D02*
D03*
X689299Y438472D02*
D03*
X649250Y441960D02*
D03*
Y447000D02*
D03*
X674750Y423418D02*
D03*
X691134Y540512D02*
D03*
X672592Y498602D02*
D03*
X681736Y495808D02*
D03*
X674878Y479806D02*
D03*
X663194Y498348D02*
D03*
X695706Y481584D02*
D03*
X656714Y485902D02*
D03*
X680466Y423418D02*
D03*
X645554Y423672D02*
D03*
X694182Y450342D02*
D03*
X690134Y430530D02*
D03*
X694436Y425704D02*
D03*
X648469Y430022D02*
D03*
X696646Y508508D02*
D03*
X690750Y525526D02*
D03*
X670433Y545338D02*
D03*
X693420Y542234D02*
D03*
D34*
X658114Y515620D02*
D03*
Y524256D02*
D03*
X666750D02*
D03*
Y444500D02*
D03*
X675386Y506984D02*
D03*
Y515620D02*
D03*
Y524256D02*
D03*
X666750Y506984D02*
D03*
X658114D02*
D03*
X666750Y515620D02*
D03*
M02*
