G04*
G04 #@! TF.GenerationSoftware,Altium Limited,Altium Designer,21.0.8 (223)*
G04*
G04 Layer_Physical_Order=1*
G04 Layer_Color=255*
%FSLAX44Y44*%
%MOMM*%
G71*
G04*
G04 #@! TF.SameCoordinates,A782584E-A635-4F2E-AF89-6DD87F871F26*
G04*
G04*
G04 #@! TF.FilePolarity,Positive*
G04*
G01*
G75*
%ADD17R,0.3000X0.3600*%
%ADD18R,0.3600X0.3000*%
%ADD19C,0.2500*%
%ADD27R,0.6000X0.2500*%
%ADD28R,0.2500X0.6000*%
%ADD29C,0.0762*%
%ADD30C,0.1524*%
%ADD31C,0.1270*%
%ADD32R,3.1000X3.1000*%
%ADD33C,0.1524*%
%ADD34C,0.2540*%
D17*
X667876Y545338D02*
D03*
X661776D02*
D03*
X659128Y485902D02*
D03*
X665228D02*
D03*
X654300D02*
D03*
X648200D02*
D03*
X690133Y545338D02*
D03*
X684033D02*
D03*
X695454Y485902D02*
D03*
X689354D02*
D03*
X679091Y545338D02*
D03*
X672991D02*
D03*
X642849Y485902D02*
D03*
X636749D02*
D03*
X671200D02*
D03*
X677300D02*
D03*
X656846Y545338D02*
D03*
X650746D02*
D03*
D18*
X696468Y528064D02*
D03*
Y534164D02*
D03*
Y494790D02*
D03*
Y500890D02*
D03*
Y505966D02*
D03*
Y512066D02*
D03*
Y539240D02*
D03*
Y545340D02*
D03*
X637032Y509776D02*
D03*
Y515876D02*
D03*
Y520952D02*
D03*
Y527052D02*
D03*
X696468Y522988D02*
D03*
Y516888D02*
D03*
D19*
X691750Y427000D02*
D03*
X686750D02*
D03*
X681750D02*
D03*
X676750D02*
D03*
X671750D02*
D03*
X666750D02*
D03*
X661750D02*
D03*
X656750D02*
D03*
X651750D02*
D03*
X646750D02*
D03*
X641750D02*
D03*
Y432000D02*
D03*
X646750D02*
D03*
X651750D02*
D03*
X656750D02*
D03*
X661750D02*
D03*
X666750D02*
D03*
X671750D02*
D03*
X676750D02*
D03*
X681750D02*
D03*
X686750D02*
D03*
X691750D02*
D03*
Y447000D02*
D03*
Y442000D02*
D03*
Y437000D02*
D03*
X686750D02*
D03*
Y442000D02*
D03*
Y447000D02*
D03*
X641750Y437000D02*
D03*
Y442000D02*
D03*
Y447000D02*
D03*
X646750Y437000D02*
D03*
Y442000D02*
D03*
Y447000D02*
D03*
X686750Y457000D02*
D03*
X681750D02*
D03*
X676750D02*
D03*
X671750D02*
D03*
Y452000D02*
D03*
X676750D02*
D03*
X681750D02*
D03*
X686750D02*
D03*
X691750D02*
D03*
Y457000D02*
D03*
Y462000D02*
D03*
X686750D02*
D03*
X681750D02*
D03*
X676750D02*
D03*
X671750D02*
D03*
X661750Y452000D02*
D03*
Y457000D02*
D03*
X656750D02*
D03*
Y452000D02*
D03*
X651750D02*
D03*
Y457000D02*
D03*
X646750D02*
D03*
Y452000D02*
D03*
X641750D02*
D03*
Y457000D02*
D03*
Y462000D02*
D03*
X646750D02*
D03*
X651750D02*
D03*
X656750D02*
D03*
X661750D02*
D03*
X666750D02*
D03*
Y457000D02*
D03*
Y452000D02*
D03*
D27*
X690750Y498120D02*
D03*
Y503120D02*
D03*
Y508120D02*
D03*
Y513120D02*
D03*
Y518120D02*
D03*
Y523120D02*
D03*
Y528120D02*
D03*
Y533120D02*
D03*
X642750Y498120D02*
D03*
Y503120D02*
D03*
Y508120D02*
D03*
Y513120D02*
D03*
Y518120D02*
D03*
Y523120D02*
D03*
Y528120D02*
D03*
Y533120D02*
D03*
D28*
X684250Y539620D02*
D03*
X679250D02*
D03*
X674250D02*
D03*
X669250D02*
D03*
X664250D02*
D03*
X659250D02*
D03*
X654250D02*
D03*
X649250D02*
D03*
Y491620D02*
D03*
X654250D02*
D03*
X659250D02*
D03*
X664250D02*
D03*
X669250D02*
D03*
X674250D02*
D03*
X679250D02*
D03*
X684250D02*
D03*
D29*
X653034Y541020D02*
X654050D01*
X640588Y526034D02*
Y527812D01*
X649520Y520883D02*
X649726D01*
X646792Y516274D02*
X646938Y516128D01*
X642750Y513120D02*
X648462D01*
X642750Y508120D02*
X648462D01*
X649363Y520727D02*
X649520Y520883D01*
X637257Y520727D02*
X649363D01*
X637032Y520952D02*
X637257Y520727D01*
X643538Y447910D02*
X643890Y448262D01*
X642750Y523120D02*
X643378Y523748D01*
X649478D01*
X646346Y516274D02*
X646792D01*
X644500Y518120D02*
X646346Y516274D01*
X642750Y518120D02*
X644500D01*
X642750Y508120D02*
X642750Y508120D01*
X642750Y513120D02*
X642750Y513120D01*
X654050Y454300D02*
Y454406D01*
X651750Y452000D02*
X654050Y454300D01*
X647954Y535686D02*
X648002D01*
X648381Y538751D02*
X649250Y539620D01*
X648002Y535686D02*
X648381Y536065D01*
Y538751D01*
X644357Y463763D02*
X647480Y466886D01*
X649512D02*
X652780Y470154D01*
X647480Y466886D02*
X649512D01*
X662377Y480755D02*
Y487626D01*
X655713Y474091D02*
X662377Y480755D01*
X646534Y474091D02*
X655713D01*
X661857Y488147D02*
X662377Y487626D01*
X661857Y488147D02*
Y495093D01*
X647165Y472567D02*
X667956D01*
X638810Y464212D02*
X647165Y472567D01*
X637286Y464843D02*
X646534Y474091D01*
X635635Y465348D02*
X651643Y481356D01*
X638810Y451104D02*
Y464212D01*
X637286Y448080D02*
Y464843D01*
X669884Y473583D02*
X672973Y476672D01*
X668972Y473583D02*
X669884D01*
X651643Y481356D02*
Y495093D01*
X635635Y442949D02*
Y465348D01*
X667956Y472567D02*
X668972Y473583D01*
X662526Y495763D02*
X666857D01*
X644357Y454607D02*
Y463763D01*
X641750Y452000D02*
X644357Y454607D01*
X638810Y451104D02*
X640521Y449393D01*
X635635Y442949D02*
X638977Y439607D01*
X637286Y448080D02*
X640759Y444607D01*
X640521Y449393D02*
X642458D01*
X642499Y449434D01*
X642574D01*
X643101Y449961D01*
X644679D01*
X645094Y449546D01*
X647588D01*
X643890Y448262D02*
Y448310D01*
X643130Y447910D02*
X643538D01*
X642220Y447000D02*
X643130Y447910D01*
X641750Y447000D02*
X642220D01*
X659357Y444607D02*
X666750Y452000D01*
X640759Y444607D02*
X659357D01*
X640131Y533989D02*
Y535429D01*
Y533989D02*
X640466Y533654D01*
X641350D01*
X641417Y447332D02*
X641750Y447000D01*
X647588Y449546D02*
X647935Y449199D01*
X640588Y527812D02*
X640842Y528066D01*
X654558Y461772D02*
X654672Y461886D01*
X643458Y502412D02*
X648462D01*
X642750Y503120D02*
X643458Y502412D01*
X649612Y437000D02*
X650748Y435864D01*
X646750Y437000D02*
X649612D01*
X656750Y434754D02*
X663702Y441706D01*
X656750Y432000D02*
Y434754D01*
X658141Y440055D02*
X664999Y446913D01*
X649380Y440055D02*
X658141D01*
Y446405D02*
X659779Y448043D01*
X656563Y446405D02*
X658141D01*
X655447Y447521D02*
X656563Y446405D01*
X657352Y448310D02*
Y448516D01*
X661750Y435590D02*
X668161Y442001D01*
X661750Y432000D02*
Y435590D01*
X638977Y439607D02*
X648932D01*
X675173Y442001D02*
X681736Y448564D01*
X668161Y442001D02*
X675173D01*
X674397Y447675D02*
X674651Y447929D01*
X671147Y447675D02*
X674397D01*
X674651Y447929D02*
X677679D01*
X673608Y449580D02*
X673754Y449726D01*
X648932Y439607D02*
X649380Y440055D01*
X659130Y454152D02*
Y454266D01*
X677679Y447929D02*
X681616Y451866D01*
X670560Y448056D02*
X670766D01*
X671147Y447675D01*
X682860Y459086D02*
X683006Y459232D01*
X682860Y458581D02*
Y459086D01*
X681750Y457470D02*
X682860Y458581D01*
X681750Y457000D02*
Y457470D01*
X681616Y451866D02*
X681736D01*
X673754Y449726D02*
X674476D01*
X676750Y452000D01*
X666663Y446913D02*
X671750Y452000D01*
X664999Y446913D02*
X666663D01*
X669357Y463363D02*
X670814Y464820D01*
X660146Y463550D02*
X660173D01*
X664357Y464658D02*
X670234Y470535D01*
X664357Y459607D02*
Y464658D01*
X662833Y465289D02*
X669603Y472059D01*
X662833Y463553D02*
Y465289D01*
X661750Y462470D02*
X662833Y463553D01*
X661750Y457000D02*
X664357Y459607D01*
X669357Y459393D02*
Y463363D01*
X661253Y462470D02*
X661750D01*
X686643Y488147D02*
Y495093D01*
X660173Y463550D02*
X661253Y462470D01*
X673716Y465690D02*
X673862Y465836D01*
X676750Y467200D02*
X678180Y468630D01*
X678969Y470535D02*
X685065Y464439D01*
X670234Y470535D02*
X678969D01*
X676750Y462000D02*
Y467200D01*
X685065Y464439D02*
X687859D01*
X688975Y465555D02*
Y478001D01*
X687859Y464439D02*
X688975Y465555D01*
X685038Y470154D02*
X686709Y471825D01*
X688975Y462915D02*
X690880Y464820D01*
X659384Y459687D02*
Y459740D01*
X656750Y457053D02*
X659384Y459687D01*
X656750Y457000D02*
Y457053D01*
X659779Y450029D02*
X661750Y452000D01*
X659779Y448043D02*
Y450029D01*
X655447Y447521D02*
Y448083D01*
X654331Y449199D02*
X655447Y448083D01*
X647935Y449199D02*
X654331D01*
X639064Y442214D02*
X639171Y442107D01*
X688975Y478001D02*
X691997Y481023D01*
Y497251D01*
X686709Y482957D02*
X689354Y485602D01*
X688135Y462915D02*
X688975D01*
X687220Y462000D02*
X688135Y462915D01*
X686750Y462000D02*
X687220D01*
X686709Y471825D02*
Y482957D01*
X654672Y461886D02*
X656636D01*
X684530Y535432D02*
Y539340D01*
X685038Y508000D02*
X690630D01*
X685038Y512572D02*
X690202D01*
X685546Y518120D02*
X690750D01*
X683641Y527761D02*
X689000Y533120D01*
X683260Y498650D02*
Y498856D01*
X679831Y492201D02*
Y497761D01*
X679250Y491620D02*
X679831Y492201D01*
X683641Y491519D02*
Y498269D01*
Y491519D02*
X683768Y491392D01*
X683260Y498650D02*
X683641Y498269D01*
X680274Y498203D02*
Y498410D01*
X679831Y497761D02*
X680274Y498203D01*
X670555Y472059D02*
X686643Y488147D01*
X669603Y472059D02*
X670555D01*
X689354Y485602D02*
Y485902D01*
X690750Y498120D02*
X691128D01*
X691997Y497251D01*
X673716Y463966D02*
Y465690D01*
X696198Y500620D02*
X696468Y500890D01*
X694655Y500620D02*
X696198D01*
X686607Y495129D02*
Y500727D01*
X689000Y503120D01*
X686607Y495129D02*
X686643Y495093D01*
X679330Y459250D02*
Y459415D01*
X675025Y455168D02*
Y455221D01*
X676750Y456946D01*
X679330Y459415D02*
X681750Y461835D01*
X689000Y503120D02*
X690750D01*
X639171Y442107D02*
X641643D01*
X641750Y442000D01*
X672973Y476672D02*
Y482402D01*
X673843Y483271D02*
Y491213D01*
X672973Y482402D02*
X673843Y483271D01*
X671750Y462000D02*
X673716Y463966D01*
X642750Y498120D02*
X643619Y497251D01*
X676750Y456946D02*
Y457000D01*
X681750Y461835D02*
Y462000D01*
X673843Y491213D02*
X674250Y491620D01*
X661857Y495093D02*
X662526Y495763D01*
X659638Y492008D02*
Y497840D01*
X690630Y508000D02*
X690750Y508120D01*
X659130Y454266D02*
X661750Y456886D01*
X649485Y497251D02*
X651643Y495093D01*
X643619Y497251D02*
X649485D01*
X656636Y461886D02*
X656750Y462000D01*
X666750D02*
X667004Y462254D01*
X669357Y459393D02*
X671750Y457000D01*
X661750Y456886D02*
Y457000D01*
X684250Y539620D02*
X684530Y539340D01*
X637032Y515876D02*
Y520952D01*
X661750Y462000D02*
Y462470D01*
X666857Y495763D02*
X669250Y493370D01*
Y491620D02*
Y493370D01*
X659250Y491620D02*
X659638Y492008D01*
X654250Y491620D02*
Y495554D01*
X696468Y512066D02*
Y516888D01*
X689000Y533120D02*
X690750D01*
X683641Y517331D02*
Y527761D01*
Y517331D02*
X685245Y515727D01*
X694223D01*
X694265Y515769D01*
X695349D01*
X696468Y516888D01*
X681750Y431907D02*
Y432000D01*
X656750Y449118D02*
Y452000D01*
Y449118D02*
X657352Y448516D01*
X690202Y512572D02*
X690750Y513120D01*
X642750Y503120D02*
X642750Y503120D01*
D30*
X650494Y533654D02*
X655034D01*
X650746Y545060D02*
X650770Y545084D01*
X653288D01*
X646990Y462000D02*
X649250Y459740D01*
X646750Y462000D02*
X646990D01*
X641937Y464645D02*
X642366Y465074D01*
X641832Y454776D02*
Y456918D01*
X641750Y457000D02*
X641832Y456918D01*
X641604Y483362D02*
X642111Y483869D01*
X637279Y486432D02*
X639286D01*
X642111Y483869D02*
Y485164D01*
X636749Y485902D02*
X637279Y486432D01*
X642111Y485164D02*
X642849Y485902D01*
X668274Y433788D02*
Y434848D01*
X673628Y433901D02*
Y437749D01*
X671750Y432023D02*
X673628Y433901D01*
X671750Y432000D02*
Y432023D01*
X672719Y438658D02*
X673628Y437749D01*
X646630Y457000D02*
X646750D01*
X674750Y423418D02*
Y423999D01*
X690750Y523120D02*
Y528120D01*
X679450Y429514D02*
X681750Y431814D01*
Y427242D02*
X683514Y429006D01*
X678313Y432187D02*
X678942Y432816D01*
X683768Y424434D02*
X684184D01*
X666937Y424755D02*
X668020Y423672D01*
X666750Y432264D02*
X668274Y433788D01*
X686683Y456813D02*
X686816Y456946D01*
X684530Y456692D02*
X684651Y456813D01*
X686683D01*
X694436Y458978D02*
Y459314D01*
X691750Y462000D02*
X694436Y459314D01*
X660400Y423418D02*
X661563Y424581D01*
X651750Y456932D02*
X651764Y456946D01*
X661563Y424581D02*
Y426867D01*
X661670Y426974D01*
X689299Y439450D02*
X691809Y441960D01*
X689299Y438472D02*
Y439450D01*
X688486Y438472D02*
X689299D01*
X686750Y437000D02*
X687014D01*
X688486Y438472D01*
X696468Y534164D02*
Y539240D01*
X672084Y541782D02*
X673762D01*
X674250Y537870D02*
Y541294D01*
X646790Y441960D02*
X649250D01*
X646750Y447000D02*
X649250D01*
X653288Y429514D02*
Y430198D01*
X671750Y426999D02*
X674750Y423999D01*
X666937Y424755D02*
Y426813D01*
X666750Y427000D02*
X666937Y426813D01*
X669738Y538988D02*
X671322D01*
X669250Y539476D02*
Y539620D01*
X673762Y541782D02*
X674250Y541294D01*
X662178Y539750D02*
X663448D01*
X669250Y539476D02*
X669738Y538988D01*
X692680Y538502D02*
X695730D01*
X691642Y537464D02*
X692680Y538502D01*
X681482Y534924D02*
Y535638D01*
X695730Y538502D02*
X696468Y539240D01*
X676656Y535432D02*
Y535464D01*
X679250Y537870D02*
X681482Y535638D01*
X674250Y537870D02*
X676656Y535464D01*
X679250Y537870D02*
Y539620D01*
X679171Y539700D02*
X679250Y539620D01*
X655034Y533654D02*
X659250Y537870D01*
Y539620D01*
X636778Y527306D02*
Y530606D01*
Y527306D02*
X637032Y527052D01*
X694690Y438150D02*
X695198Y437642D01*
Y430448D02*
Y437642D01*
X692069Y427319D02*
X695198Y430448D01*
X692069Y427309D02*
Y427319D01*
Y427309D02*
X692150Y427228D01*
X667958Y481522D02*
Y485646D01*
X668214Y485902D01*
X676888Y485490D02*
X677300Y485902D01*
X676888Y481816D02*
Y485490D01*
X674878Y479806D02*
X676888Y481816D01*
X654300Y485902D02*
X659128D01*
X671750Y426999D02*
Y427000D01*
X676937Y432187D02*
X678313D01*
X676750Y432000D02*
X676937Y432187D01*
X681750Y431814D02*
Y431907D01*
X676884Y427000D02*
X680466Y423418D01*
X695454Y490730D02*
X696214Y491490D01*
Y494536D01*
X695454Y485902D02*
Y490730D01*
X676750Y427000D02*
X676884D01*
X637032Y506476D02*
Y509776D01*
X666750Y432000D02*
Y432264D01*
X693727Y437187D02*
X694690Y438150D01*
X691937Y437187D02*
X693727D01*
X691750Y437000D02*
X691937Y437187D01*
X641937Y462187D02*
Y464645D01*
X641750Y462000D02*
X641937Y462187D01*
X667876Y545338D02*
X672991D01*
X664464Y454406D02*
Y454450D01*
X659250Y539620D02*
X659311Y539681D01*
X646750Y442000D02*
X646790Y441960D01*
X664464Y454450D02*
X666750Y456736D01*
X650746Y545060D02*
Y545338D01*
X668214Y485902D02*
X671200D01*
X665228D02*
X668214D01*
X696214Y494536D02*
X696468Y494790D01*
X696440Y520192D02*
Y522960D01*
X696468Y522988D01*
X690134Y430530D02*
X691603Y432000D01*
X691750D01*
X646750Y431741D02*
X648469Y430022D01*
X646750Y431741D02*
Y432000D01*
X696646Y506144D02*
Y508508D01*
X696468Y505966D02*
X696646Y506144D01*
X690750Y528120D02*
X690778Y528092D01*
X696440D01*
X696468Y528064D01*
X693300Y545339D02*
X696467D01*
X690134D02*
X693300D01*
Y542354D02*
Y545339D01*
Y542354D02*
X693420Y542234D01*
X696467Y545339D02*
X696468Y545340D01*
X690133Y545338D02*
X690134Y545339D01*
X664738Y486392D02*
X665228Y485902D01*
X664738Y486392D02*
Y491132D01*
X664250Y491620D02*
X664738Y491132D01*
X648762Y486464D02*
Y491132D01*
X648200Y485902D02*
X648762Y486464D01*
Y491132D02*
X649250Y491620D01*
X642849Y485902D02*
X648200D01*
X679091Y545338D02*
X684033D01*
X679171Y539700D02*
Y545258D01*
X679091Y545338D02*
X679171Y545258D01*
X659311Y545338D02*
X661776D01*
X656846D02*
X659311D01*
Y539681D02*
Y545338D01*
X681750Y427000D02*
Y427242D01*
X684184Y424434D02*
X686750Y427000D01*
X666750Y456736D02*
Y457000D01*
X686750Y427000D02*
X691750D01*
X651750Y431736D02*
X653288Y430198D01*
X651750Y431736D02*
Y432000D01*
D31*
X648023Y454406D02*
X649478D01*
X646985Y453691D02*
X647446Y454152D01*
X646985Y452235D02*
Y453691D01*
X646430Y455999D02*
Y456184D01*
X646750Y452000D02*
X646985Y452235D01*
X646750Y452000D02*
Y452119D01*
X646430Y455999D02*
X648023Y454406D01*
X667004Y462254D02*
Y464611D01*
X651637Y461645D02*
X651764Y461772D01*
X651637Y457113D02*
Y461645D01*
Y457113D02*
X651750Y457000D01*
D32*
X666750Y515620D02*
D03*
D33*
X669603Y475996D02*
D03*
X653034Y541020D02*
D03*
X653288Y545084D02*
D03*
X640588Y526034D02*
D03*
X649726Y520883D02*
D03*
X646938Y516128D02*
D03*
X648462Y513120D02*
D03*
Y508120D02*
D03*
X647954Y532384D02*
D03*
X650494Y533654D02*
D03*
X647954Y535432D02*
D03*
X649478Y523748D02*
D03*
Y454406D02*
D03*
X649250Y459740D02*
D03*
X654050Y454406D02*
D03*
X642366Y465074D02*
D03*
X635762Y468178D02*
D03*
X641832Y454776D02*
D03*
X652780Y470154D02*
D03*
X654812Y468122D02*
D03*
X660472Y481544D02*
D03*
X657226Y465074D02*
D03*
X651764Y465328D02*
D03*
X649940Y470662D02*
D03*
X643890Y448056D02*
D03*
X637794Y444754D02*
D03*
X639572Y536194D02*
D03*
X641604Y483362D02*
D03*
X639286Y486432D02*
D03*
X644144Y482092D02*
D03*
X636016Y478536D02*
D03*
X654558Y461772D02*
D03*
X641140Y478815D02*
D03*
X648208Y505206D02*
D03*
X648462Y502412D02*
D03*
X650748Y435864D02*
D03*
X657352Y438150D02*
D03*
Y441960D02*
D03*
Y448310D02*
D03*
X663702Y434848D02*
D03*
X668274D02*
D03*
X671342D02*
D03*
X659384Y433832D02*
D03*
X676024Y436364D02*
D03*
X644190Y434467D02*
D03*
X681736Y448564D02*
D03*
X676402Y446024D02*
D03*
X673608Y449580D02*
D03*
X663702Y441706D02*
D03*
X679450Y429514D02*
D03*
X683514Y429006D02*
D03*
X678942Y432816D02*
D03*
X683768Y424434D02*
D03*
X676656Y439674D02*
D03*
X668020Y423672D02*
D03*
X672719Y438658D02*
D03*
X659130Y454152D02*
D03*
X670560Y448056D02*
D03*
X683006Y459232D02*
D03*
X684530Y456692D02*
D03*
X694436Y458978D02*
D03*
X684276Y453644D02*
D03*
X670814Y464820D02*
D03*
X667004Y464611D02*
D03*
X660146Y463550D02*
D03*
X673862Y465836D02*
D03*
X678180Y468630D02*
D03*
X679196Y464058D02*
D03*
X695452Y465328D02*
D03*
X687070Y466344D02*
D03*
X685038Y470154D02*
D03*
X690880Y464820D02*
D03*
X659384Y459740D02*
D03*
X653542Y447294D02*
D03*
X653796Y458978D02*
D03*
X639064Y442214D02*
D03*
X660400Y423418D02*
D03*
X684784Y475234D02*
D03*
X636778Y530606D02*
D03*
X689299Y438472D02*
D03*
X689250Y443423D02*
D03*
X649250Y441960D02*
D03*
Y447000D02*
D03*
X653288Y429514D02*
D03*
X674750Y423418D02*
D03*
X671322Y538988D02*
D03*
X691134Y540512D02*
D03*
X681482Y534924D02*
D03*
X676656Y535432D02*
D03*
X662178Y539750D02*
D03*
X672084Y541782D02*
D03*
X684530Y535432D02*
D03*
X691642Y537464D02*
D03*
X687024Y541669D02*
D03*
X685038Y508000D02*
D03*
Y512572D02*
D03*
X685546Y518120D02*
D03*
X683260Y498856D02*
D03*
X646476Y541669D02*
D03*
X646938Y546862D02*
D03*
X672592Y498602D02*
D03*
X681736Y495808D02*
D03*
X674878Y479806D02*
D03*
X663194Y498348D02*
D03*
X668020Y498094D02*
D03*
X667958Y481522D02*
D03*
X680274Y498410D02*
D03*
X695706Y481584D02*
D03*
X689356Y481076D02*
D03*
X689610Y494284D02*
D03*
X656714Y485902D02*
D03*
X680466Y423418D02*
D03*
X694655Y500620D02*
D03*
X679330Y459250D02*
D03*
X675025Y455168D02*
D03*
X696214Y491490D02*
D03*
X696976Y475996D02*
D03*
X637540Y498602D02*
D03*
X637032Y506476D02*
D03*
X645554Y423672D02*
D03*
X653796Y424180D02*
D03*
X694182Y450342D02*
D03*
X694690Y438150D02*
D03*
X659638Y497840D02*
D03*
X664464Y454406D02*
D03*
X639064Y492506D02*
D03*
X696976Y542290D02*
D03*
X696440Y520192D02*
D03*
X690134Y430530D02*
D03*
X694436Y425704D02*
D03*
X648469Y430022D02*
D03*
X696646Y508508D02*
D03*
X690750Y525526D02*
D03*
X670433Y545338D02*
D03*
X693420Y542234D02*
D03*
X654250Y495554D02*
D03*
D34*
X658114Y515620D02*
D03*
Y524256D02*
D03*
X666750D02*
D03*
Y444500D02*
D03*
X675386Y506984D02*
D03*
Y515620D02*
D03*
Y524256D02*
D03*
X666750Y506984D02*
D03*
X658114D02*
D03*
X666750Y515620D02*
D03*
M02*
