G04*
G04 #@! TF.GenerationSoftware,Altium Limited,Altium Designer,21.0.8 (223)*
G04*
G04 Layer_Color=128*
%FSLAX44Y44*%
%MOMM*%
G71*
G04*
G04 #@! TF.SameCoordinates,A782584E-A635-4F2E-AF89-6DD87F871F26*
G04*
G04*
G04 #@! TF.FilePolarity,Positive*
G04*
G01*
G75*
%ADD17R,0.3000X0.3600*%
%ADD18R,0.3600X0.3000*%
%ADD35R,0.7000X0.6500*%
%ADD36R,0.9000X0.8000*%
%ADD37R,0.5000X0.5000*%
%ADD38C,0.7620*%
%ADD39R,0.5500X0.4500*%
%ADD40R,0.4500X0.5500*%
%ADD41O,1.0160X0.5080*%
%ADD42R,0.5000X0.5000*%
%ADD43R,0.4000X0.3500*%
%ADD46C,0.2000*%
%ADD47R,0.3500X0.4000*%
%ADD48R,1.5500X1.5500*%
%ADD49R,0.5500X0.2300*%
%ADD50R,0.6500X0.2300*%
%ADD51R,0.2300X0.5500*%
%ADD52R,0.2300X0.6500*%
%ADD63P,0.2828X4X360.0*%
%ADD64R,0.1000X0.1000*%
G36*
X658676Y478042D02*
X654976D01*
X654776Y478092D01*
X654626Y478192D01*
X654526Y478342D01*
X654476Y478542D01*
Y479742D01*
X654526Y479942D01*
X654626Y480092D01*
X654776Y480192D01*
X654976Y480242D01*
X657276D01*
X658676Y478842D01*
Y478042D01*
D02*
G37*
G36*
X658672Y484244D02*
X657272Y482844D01*
X654972D01*
X654772Y482894D01*
X654622Y482994D01*
X654522Y483144D01*
X654472Y483344D01*
Y484544D01*
X654522Y484744D01*
X654622Y484894D01*
X654772Y484994D01*
X654972Y485044D01*
X658672D01*
Y484244D01*
D02*
G37*
G36*
X666172Y480194D02*
X666322Y480094D01*
X666422Y479944D01*
X666472Y479744D01*
Y478544D01*
X666422Y478344D01*
X666322Y478194D01*
X666172Y478094D01*
X665972Y478044D01*
X662272D01*
Y478844D01*
X663672Y480244D01*
X665972D01*
X666172Y480194D01*
D02*
G37*
G36*
X662268Y485046D02*
X665968D01*
X666168Y484996D01*
X666318Y484896D01*
X666418Y484746D01*
X666468Y484546D01*
Y483346D01*
X666418Y483146D01*
X666318Y482996D01*
X666168Y482896D01*
X665968Y482846D01*
X663668D01*
X662268Y484246D01*
Y485046D01*
D02*
G37*
D17*
X671574Y423418D02*
D03*
X677674D02*
D03*
X654556Y538734D02*
D03*
X660656D02*
D03*
X677420Y479298D02*
D03*
X671320D02*
D03*
X638808Y466598D02*
D03*
X644908D02*
D03*
X648714D02*
D03*
X654814D02*
D03*
X694438Y461772D02*
D03*
X688338D02*
D03*
X638808Y460756D02*
D03*
X644908D02*
D03*
X638808Y454660D02*
D03*
X644908D02*
D03*
X693168Y422688D02*
D03*
X687068D02*
D03*
X693168Y428726D02*
D03*
X687068D02*
D03*
X657350Y423418D02*
D03*
X663450D02*
D03*
X693422Y434594D02*
D03*
X687322D02*
D03*
X677420Y485140D02*
D03*
X671320D02*
D03*
X644654Y482854D02*
D03*
X638554D02*
D03*
X694438Y455930D02*
D03*
X688338D02*
D03*
D18*
X671576Y495810D02*
D03*
Y489710D02*
D03*
X694790Y447042D02*
D03*
Y440942D02*
D03*
X646176Y437517D02*
D03*
Y431417D02*
D03*
X665988Y538736D02*
D03*
Y532636D02*
D03*
X672592Y538736D02*
D03*
Y532636D02*
D03*
X637325Y495556D02*
D03*
Y489456D02*
D03*
X683260Y492762D02*
D03*
Y486662D02*
D03*
X677418Y495810D02*
D03*
Y489710D02*
D03*
X646176Y448820D02*
D03*
Y442720D02*
D03*
D35*
X638556Y538126D02*
D03*
Y525626D02*
D03*
D36*
X662800Y504844D02*
D03*
Y491344D02*
D03*
X645300D02*
D03*
Y504844D02*
D03*
D37*
X689538Y471932D02*
D03*
X680538D02*
D03*
D38*
X657352Y531114D02*
D03*
D39*
X650240Y482928D02*
D03*
Y473128D02*
D03*
X639092Y438330D02*
D03*
Y448130D02*
D03*
D40*
X694256Y480314D02*
D03*
X684456D02*
D03*
X650546Y424434D02*
D03*
X640746D02*
D03*
X659310Y469138D02*
D03*
X669110D02*
D03*
D41*
X692150Y544830D02*
D03*
X679450D02*
D03*
X666750D02*
D03*
X654050D02*
D03*
X641350D02*
D03*
D42*
X647954Y537392D02*
D03*
Y528392D02*
D03*
X695960Y529154D02*
D03*
Y538154D02*
D03*
D43*
X687768Y538226D02*
D03*
X679768D02*
D03*
X686752Y529590D02*
D03*
X678752D02*
D03*
D46*
X689638Y487708D02*
D03*
Y491208D02*
D03*
X693138D02*
D03*
Y487708D02*
D03*
X642592Y472976D02*
D03*
X639092D02*
D03*
Y476476D02*
D03*
X642592D02*
D03*
D47*
X687578Y450024D02*
D03*
Y442024D02*
D03*
D48*
X666750Y444500D02*
D03*
D49*
X681500Y435500D02*
D03*
Y453500D02*
D03*
X652000D02*
D03*
Y435500D02*
D03*
D50*
X681000Y440000D02*
D03*
Y444500D02*
D03*
Y449000D02*
D03*
X652500D02*
D03*
Y444500D02*
D03*
Y440000D02*
D03*
D51*
X675750Y459250D02*
D03*
X657750D02*
D03*
Y429750D02*
D03*
X675750D02*
D03*
D52*
X671250Y458750D02*
D03*
X666750D02*
D03*
X662250D02*
D03*
Y430250D02*
D03*
X666750D02*
D03*
X671250D02*
D03*
D63*
X660472Y481544D02*
D03*
D64*
X655972Y479044D02*
D03*
Y484044D02*
D03*
X664972Y479044D02*
D03*
Y484044D02*
D03*
M02*
