G04*
G04 #@! TF.GenerationSoftware,Altium Limited,Altium Designer,21.0.8 (223)*
G04*
G04 Layer_Color=16711935*
%FSLAX44Y44*%
%MOMM*%
G71*
G04*
G04 #@! TF.SameCoordinates,A782584E-A635-4F2E-AF89-6DD87F871F26*
G04*
G04*
G04 #@! TF.FilePolarity,Positive*
G04*
G01*
G75*
%ADD10C,0.1016*%
%ADD73C,0.1000*%
%ADD77C,0.0500*%
D10*
X642806Y523876D02*
Y539876D01*
X634306Y523876D02*
X642806D01*
X634306D02*
Y539876D01*
X642806D01*
X678268Y535226D02*
Y541226D01*
X689268D01*
Y535226D02*
Y541226D01*
X678268Y535226D02*
X689268D01*
X677252Y526590D02*
Y532590D01*
X688252D01*
Y526590D02*
Y532590D01*
X677252Y526590D02*
X688252D01*
X684578Y440524D02*
X690578D01*
X684578D02*
Y451524D01*
X690578D01*
Y440524D02*
Y451524D01*
D73*
X679958Y469432D02*
X689958D01*
X679958D02*
Y474432D01*
X689958D01*
Y469432D02*
Y474432D01*
X647490Y472778D02*
X652990D01*
X647490Y483278D02*
X652990D01*
Y472778D02*
Y483278D01*
X647490Y472778D02*
Y483278D01*
X684106Y477564D02*
Y483064D01*
X694606Y477564D02*
Y483064D01*
X684106Y477564D02*
X694606D01*
X684106Y483064D02*
X694606D01*
X645454Y527972D02*
X650454D01*
Y537972D01*
X645454D02*
X650454D01*
X645454Y527972D02*
Y537972D01*
X693460Y538574D02*
X698460D01*
X693460Y528574D02*
Y538574D01*
Y528574D02*
X698460D01*
Y538574D01*
X640396Y421684D02*
X650896D01*
X640396Y427184D02*
X650896D01*
X640396Y421684D02*
Y427184D01*
X650896Y421684D02*
Y427184D01*
X636342Y437980D02*
Y448480D01*
X641842Y437980D02*
Y448480D01*
X636342D02*
X641842D01*
X636342Y437980D02*
X641842D01*
X658960Y471888D02*
X669460D01*
X658960Y466388D02*
X669460D01*
Y471888D01*
X658960Y466388D02*
Y471888D01*
X651750Y429500D02*
X681750D01*
X651750Y459500D02*
X681750D01*
Y429500D02*
Y459500D01*
X651750Y429500D02*
Y459500D01*
D77*
X671474Y424818D02*
X677774D01*
X671474Y422018D02*
X677774D01*
Y424818D01*
X671474Y422018D02*
Y424818D01*
X654456Y540134D02*
X660756D01*
X654456Y537334D02*
X660756D01*
Y540134D01*
X654456Y537334D02*
Y540134D01*
X672976Y489610D02*
Y495910D01*
X670176Y489610D02*
Y495910D01*
Y489610D02*
X672976D01*
X670176Y495910D02*
X672976D01*
X671220Y477898D02*
X677520D01*
X671220Y480698D02*
X677520D01*
X671220Y477898D02*
Y480698D01*
X677520Y477898D02*
Y480698D01*
X638708Y467998D02*
X645008D01*
X638708Y465198D02*
X645008D01*
Y467998D01*
X638708Y465198D02*
Y467998D01*
X648614D02*
X654914D01*
X648614Y465198D02*
X654914D01*
Y467998D01*
X648614Y465198D02*
Y467998D01*
X688238Y460372D02*
X694538D01*
X688238Y463172D02*
X694538D01*
X688238Y460372D02*
Y463172D01*
X694538Y460372D02*
Y463172D01*
X638708Y462156D02*
X645008D01*
X638708Y459356D02*
X645008D01*
Y462156D01*
X638708Y459356D02*
Y462156D01*
Y456060D02*
X645008D01*
X638708Y453260D02*
X645008D01*
Y456060D01*
X638708Y453260D02*
Y456060D01*
X686968Y421288D02*
X693268D01*
X686968Y424089D02*
X693268D01*
X686968Y421288D02*
Y424089D01*
X693268Y421288D02*
Y424089D01*
X696190Y440842D02*
Y447142D01*
X693390Y440842D02*
Y447142D01*
Y440842D02*
X696190D01*
X693390Y447142D02*
X696190D01*
X686968Y427326D02*
X693268D01*
X686968Y430126D02*
X693268D01*
X686968Y427326D02*
Y430126D01*
X693268Y427326D02*
Y430126D01*
X647576Y431317D02*
Y437617D01*
X644776Y431317D02*
Y437617D01*
Y431317D02*
X647576D01*
X644776Y437617D02*
X647576D01*
X657250Y424818D02*
X663550D01*
X657250Y422018D02*
X663550D01*
Y424818D01*
X657250Y422018D02*
Y424818D01*
X667388Y532536D02*
Y538836D01*
X664588Y532536D02*
Y538836D01*
Y532536D02*
X667388D01*
X664588Y538836D02*
X667388D01*
X673992Y532536D02*
Y538836D01*
X671192Y532536D02*
Y538836D01*
Y532536D02*
X673992D01*
X671192Y538836D02*
X673992D01*
X638725Y489356D02*
Y495656D01*
X635925Y489356D02*
Y495656D01*
Y489356D02*
X638725D01*
X635925Y495656D02*
X638725D01*
X687222Y433194D02*
X693522D01*
X687222Y435994D02*
X693522D01*
X687222Y433194D02*
Y435994D01*
X693522Y433194D02*
Y435994D01*
X684660Y486562D02*
Y492862D01*
X681860Y486562D02*
Y492862D01*
Y486562D02*
X684660D01*
X681860Y492862D02*
X684660D01*
X671220Y483740D02*
X677520D01*
X671220Y486540D02*
X677520D01*
X671220Y483740D02*
Y486540D01*
X677520Y483740D02*
Y486540D01*
X678818Y489610D02*
Y495910D01*
X676018Y489610D02*
Y495910D01*
Y489610D02*
X678818D01*
X676018Y495910D02*
X678818D01*
X647576Y442620D02*
Y448920D01*
X644776Y442620D02*
Y448920D01*
Y442620D02*
X647576D01*
X644776Y448920D02*
X647576D01*
X638454Y481454D02*
X644754D01*
X638454Y484254D02*
X644754D01*
X638454Y481454D02*
Y484254D01*
X644754Y481454D02*
Y484254D01*
X688238Y454530D02*
X694538D01*
X688238Y457330D02*
X694538D01*
X688238Y454530D02*
Y457330D01*
X694538Y454530D02*
Y457330D01*
M02*
