G04*
G04 #@! TF.GenerationSoftware,Altium Limited,Altium Designer,21.0.8 (223)*
G04*
G04 Layer_Color=32768*
%FSLAX44Y44*%
%MOMM*%
G71*
G04*
G04 #@! TF.SameCoordinates,A782584E-A635-4F2E-AF89-6DD87F871F26*
G04*
G04*
G04 #@! TF.FilePolarity,Positive*
G04*
G01*
G75*
%ADD10C,0.1016*%
%ADD29C,0.0762*%
%ADD73C,0.1000*%
%ADD74C,0.0508*%
%ADD76C,0.1778*%
D10*
X636864Y534840D02*
X636018Y535687D01*
Y537380D01*
X636864Y538226D01*
X640250D01*
X641096Y537380D01*
Y535687D01*
X640250Y534840D01*
X636864Y533148D02*
X636018Y532301D01*
Y530608D01*
X636864Y529762D01*
X637710D01*
X638557Y530608D01*
Y531455D01*
Y530608D01*
X639403Y529762D01*
X640250D01*
X641096Y530608D01*
Y532301D01*
X640250Y533148D01*
X636018Y524684D02*
Y528069D01*
X638557D01*
X637710Y526376D01*
Y525530D01*
X638557Y524684D01*
X640250D01*
X641096Y525530D01*
Y527223D01*
X640250Y528069D01*
D29*
X651296Y475741D02*
X651719Y475318D01*
Y474471D01*
X651296Y474048D01*
X649603D01*
X649180Y474471D01*
Y475318D01*
X649603Y475741D01*
X649180Y478280D02*
Y476587D01*
X650873Y478280D01*
X651296D01*
X651719Y477857D01*
Y477010D01*
X651296Y476587D01*
X649180Y479126D02*
Y479973D01*
Y479550D01*
X651719D01*
X651296Y479126D01*
X687069Y479258D02*
X686646Y478835D01*
X685799D01*
X685376Y479258D01*
Y480951D01*
X685799Y481374D01*
X686646D01*
X687069Y480951D01*
X689608Y481374D02*
X687915D01*
X689608Y479681D01*
Y479258D01*
X689185Y478835D01*
X688338D01*
X687915Y479258D01*
X690454D02*
X690878Y478835D01*
X691724D01*
X692147Y479258D01*
Y480951D01*
X691724Y481374D01*
X690878D01*
X690454Y480951D01*
Y479258D01*
X681315Y537259D02*
X680808Y536751D01*
X679792D01*
X679284Y537259D01*
Y539290D01*
X679792Y539798D01*
X680808D01*
X681315Y539290D01*
X684362Y539798D02*
X682331D01*
X684362Y537767D01*
Y537259D01*
X683855Y536751D01*
X682839D01*
X682331Y537259D01*
X687409Y536751D02*
X686394Y537259D01*
X685378Y538274D01*
Y539290D01*
X685886Y539798D01*
X686902D01*
X687409Y539290D01*
Y538782D01*
X686902Y538274D01*
X685378D01*
X680299Y528623D02*
X679792Y528115D01*
X678776D01*
X678268Y528623D01*
Y530654D01*
X678776Y531162D01*
X679792D01*
X680299Y530654D01*
X681315Y528623D02*
X681823Y528115D01*
X682839D01*
X683346Y528623D01*
Y529131D01*
X682839Y529638D01*
X682331D01*
X682839D01*
X683346Y530146D01*
Y530654D01*
X682839Y531162D01*
X681823D01*
X681315Y530654D01*
X684362Y531162D02*
X685378D01*
X684870D01*
Y528115D01*
X684362Y528623D01*
X647933Y425490D02*
X648356Y425913D01*
X649203D01*
X649626Y425490D01*
Y423797D01*
X649203Y423374D01*
X648356D01*
X647933Y423797D01*
X647087Y423374D02*
X646240D01*
X646664D01*
Y425913D01*
X647087Y425490D01*
X644971Y423374D02*
X644125D01*
X644548D01*
Y425913D01*
X644971Y425490D01*
X640148Y440943D02*
X640571Y440520D01*
Y439673D01*
X640148Y439250D01*
X638455D01*
X638032Y439673D01*
Y440520D01*
X638455Y440943D01*
X640571Y441789D02*
Y443482D01*
X640148D01*
X638455Y441789D01*
X638032D01*
X661923Y468082D02*
X661500Y467659D01*
X660653D01*
X660230Y468082D01*
Y469775D01*
X660653Y470198D01*
X661500D01*
X661923Y469775D01*
X662769Y470198D02*
X663616D01*
X663192D01*
Y467659D01*
X662769Y468082D01*
X666155Y470198D02*
Y467659D01*
X664885Y468928D01*
X666578D01*
X688545Y443571D02*
X689053Y443064D01*
Y442048D01*
X688545Y441540D01*
X686514D01*
X686006Y442048D01*
Y443064D01*
X686514Y443571D01*
X686006Y444587D02*
Y445603D01*
Y445095D01*
X689053D01*
X688545Y444587D01*
X689053Y447126D02*
Y449158D01*
X688545D01*
X686514Y447126D01*
X686006D01*
D73*
X688890Y493458D02*
X693055D01*
X693888Y492625D01*
Y490959D01*
X693055Y490126D01*
X688890D01*
X693888Y485960D02*
X688890D01*
X691389Y488460D01*
Y485127D01*
X636842Y472228D02*
Y476393D01*
X637675Y477226D01*
X639341D01*
X640174Y476393D01*
Y472228D01*
X645173D02*
X641840D01*
Y474727D01*
X643506Y473894D01*
X644340D01*
X645173Y474727D01*
Y476393D01*
X644340Y477226D01*
X642673D01*
X641840Y476393D01*
D74*
X682921Y470663D02*
X681228D01*
Y471932D01*
X682074D01*
X681228D01*
Y473202D01*
X683767Y470663D02*
Y473202D01*
X685037D01*
X685460Y472779D01*
Y472356D01*
X685037Y471932D01*
X683767D01*
X685037D01*
X685460Y471509D01*
Y471086D01*
X685037Y470663D01*
X683767D01*
X686306Y473202D02*
X687153D01*
X686730D01*
Y470663D01*
X686306Y471086D01*
X673336Y422611D02*
X672998Y422273D01*
X672321D01*
X671982Y422611D01*
Y423965D01*
X672321Y424304D01*
X672998D01*
X673336Y423965D01*
X675029Y424304D02*
Y422273D01*
X674013Y423288D01*
X675368D01*
X676045Y422611D02*
X676383Y422273D01*
X677060D01*
X677399Y422611D01*
Y423965D01*
X677060Y424304D01*
X676383D01*
X676045Y423965D01*
Y422611D01*
X656318Y537927D02*
X655980Y537589D01*
X655303D01*
X654964Y537927D01*
Y539281D01*
X655303Y539620D01*
X655980D01*
X656318Y539281D01*
X656995Y537927D02*
X657334Y537589D01*
X658011D01*
X658350Y537927D01*
Y538266D01*
X658011Y538604D01*
X657673D01*
X658011D01*
X658350Y538943D01*
Y539281D01*
X658011Y539620D01*
X657334D01*
X656995Y539281D01*
X659027Y537589D02*
X660381D01*
Y537927D01*
X659027Y539281D01*
Y539620D01*
X670769Y494048D02*
X670431Y494386D01*
Y495063D01*
X670769Y495402D01*
X672123D01*
X672462Y495063D01*
Y494386D01*
X672123Y494048D01*
X672462Y493371D02*
Y492693D01*
Y493032D01*
X670431D01*
X670769Y493371D01*
Y491678D02*
X670431Y491339D01*
Y490662D01*
X670769Y490324D01*
X671108D01*
X671446Y490662D01*
X671785Y490324D01*
X672123D01*
X672462Y490662D01*
Y491339D01*
X672123Y491678D01*
X671785D01*
X671446Y491339D01*
X671108Y491678D01*
X670769D01*
X671446Y491339D02*
Y490662D01*
X675658Y480105D02*
X675996Y480443D01*
X676673D01*
X677012Y480105D01*
Y478751D01*
X676673Y478412D01*
X675996D01*
X675658Y478751D01*
X674981Y478412D02*
X674304D01*
X674642D01*
Y480443D01*
X674981Y480105D01*
X671934Y480443D02*
X672611Y480105D01*
X673288Y479428D01*
Y478751D01*
X672949Y478412D01*
X672272D01*
X671934Y478751D01*
Y479089D01*
X672272Y479428D01*
X673288D01*
X640570Y465791D02*
X640232Y465453D01*
X639555D01*
X639216Y465791D01*
Y467145D01*
X639555Y467484D01*
X640232D01*
X640570Y467145D01*
X641247Y467484D02*
X641925D01*
X641586D01*
Y465453D01*
X641247Y465791D01*
X642940D02*
X643279Y465453D01*
X643956D01*
X644294Y465791D01*
Y466130D01*
X643956Y466468D01*
X643617D01*
X643956D01*
X644294Y466807D01*
Y467145D01*
X643956Y467484D01*
X643279D01*
X642940Y467145D01*
X650476Y465791D02*
X650138Y465453D01*
X649461D01*
X649122Y465791D01*
Y467145D01*
X649461Y467484D01*
X650138D01*
X650476Y467145D01*
X651153Y467484D02*
X651831D01*
X651492D01*
Y465453D01*
X651153Y465791D01*
X654200Y467484D02*
X652846D01*
X654200Y466130D01*
Y465791D01*
X653862Y465453D01*
X653185D01*
X652846Y465791D01*
X692676Y462579D02*
X693014Y462917D01*
X693691D01*
X694030Y462579D01*
Y461225D01*
X693691Y460886D01*
X693014D01*
X692676Y461225D01*
X691999Y460886D02*
X691321D01*
X691660D01*
Y462917D01*
X691999Y462579D01*
X690306D02*
X689967Y462917D01*
X689290D01*
X688952Y462579D01*
Y461225D01*
X689290Y460886D01*
X689967D01*
X690306Y461225D01*
Y462579D01*
X640570Y459949D02*
X640232Y459611D01*
X639555D01*
X639216Y459949D01*
Y461303D01*
X639555Y461642D01*
X640232D01*
X640570Y461303D01*
X641247D02*
X641586Y461642D01*
X642263D01*
X642602Y461303D01*
Y459949D01*
X642263Y459611D01*
X641586D01*
X641247Y459949D01*
Y460288D01*
X641586Y460626D01*
X642602D01*
X640570Y453853D02*
X640232Y453515D01*
X639555D01*
X639216Y453853D01*
Y455207D01*
X639555Y455546D01*
X640232D01*
X640570Y455207D01*
X642602Y453515D02*
X641925Y453853D01*
X641247Y454530D01*
Y455207D01*
X641586Y455546D01*
X642263D01*
X642602Y455207D01*
Y454869D01*
X642263Y454530D01*
X641247D01*
X691406Y423495D02*
X691744Y423834D01*
X692421D01*
X692760Y423495D01*
Y422141D01*
X692421Y421802D01*
X691744D01*
X691406Y422141D01*
X689374Y423834D02*
X690729D01*
Y422818D01*
X690051Y423157D01*
X689713D01*
X689374Y422818D01*
Y422141D01*
X689713Y421802D01*
X690390D01*
X690729Y422141D01*
X693984Y445280D02*
X693645Y445618D01*
Y446295D01*
X693984Y446634D01*
X695338D01*
X695676Y446295D01*
Y445618D01*
X695338Y445280D01*
X695676Y443587D02*
X693645D01*
X694661Y444603D01*
Y443248D01*
X691406Y429533D02*
X691744Y429872D01*
X692421D01*
X692760Y429533D01*
Y428179D01*
X692421Y427840D01*
X691744D01*
X691406Y428179D01*
X690729Y429533D02*
X690390Y429872D01*
X689713D01*
X689374Y429533D01*
Y429194D01*
X689713Y428856D01*
X690051D01*
X689713D01*
X689374Y428517D01*
Y428179D01*
X689713Y427840D01*
X690390D01*
X690729Y428179D01*
X645369Y435755D02*
X645031Y436093D01*
Y436770D01*
X645369Y437109D01*
X646723D01*
X647062Y436770D01*
Y436093D01*
X646723Y435755D01*
X647062Y433723D02*
Y435078D01*
X645708Y433723D01*
X645369D01*
X645031Y434062D01*
Y434739D01*
X645369Y435078D01*
X659112Y422611D02*
X658774Y422273D01*
X658097D01*
X657758Y422611D01*
Y423965D01*
X658097Y424304D01*
X658774D01*
X659112Y423965D01*
X659789Y424304D02*
X660467D01*
X660128D01*
Y422273D01*
X659789Y422611D01*
X667004Y538226D02*
X665227D01*
Y537337D01*
X665523Y537041D01*
X666115D01*
X666412Y537337D01*
Y538226D01*
Y537634D02*
X667004Y537041D01*
Y535560D02*
X665227D01*
X666115Y536449D01*
Y535264D01*
X671785Y536974D02*
X671447Y537312D01*
Y537989D01*
X671785Y538328D01*
X673139D01*
X673478Y537989D01*
Y537312D01*
X673139Y536974D01*
X671785Y536297D02*
X671447Y535958D01*
Y535281D01*
X671785Y534942D01*
X672124D01*
X672462Y535281D01*
Y535620D01*
Y535281D01*
X672801Y534942D01*
X673139D01*
X673478Y535281D01*
Y535958D01*
X673139Y536297D01*
X671785Y534265D02*
X671447Y533927D01*
Y533250D01*
X671785Y532911D01*
X672124D01*
X672462Y533250D01*
X672801Y532911D01*
X673139D01*
X673478Y533250D01*
Y533927D01*
X673139Y534265D01*
X672801D01*
X672462Y533927D01*
X672124Y534265D01*
X671785D01*
X672462Y533927D02*
Y533250D01*
X646685Y535009D02*
Y536702D01*
X647954D01*
Y535856D01*
Y536702D01*
X649224D01*
X646685Y534163D02*
X649224D01*
Y532893D01*
X648801Y532470D01*
X648378D01*
X647954Y532893D01*
Y534163D01*
Y532893D01*
X647531Y532470D01*
X647108D01*
X646685Y532893D01*
Y534163D01*
X647108Y531624D02*
X646685Y531200D01*
Y530354D01*
X647108Y529931D01*
X647531D01*
X647954Y530354D01*
Y530777D01*
Y530354D01*
X648378Y529931D01*
X648801D01*
X649224Y530354D01*
Y531200D01*
X648801Y531624D01*
X697229Y531537D02*
Y529844D01*
X695960D01*
Y530690D01*
Y529844D01*
X694690D01*
X697229Y532383D02*
X694690D01*
Y533653D01*
X695113Y534076D01*
X695536D01*
X695960Y533653D01*
Y532383D01*
Y533653D01*
X696383Y534076D01*
X696806D01*
X697229Y533653D01*
Y532383D01*
X694690Y536615D02*
Y534922D01*
X696383Y536615D01*
X696806D01*
X697229Y536192D01*
Y535346D01*
X696806Y534922D01*
X636518Y493794D02*
X636180Y494132D01*
Y494809D01*
X636518Y495148D01*
X637873D01*
X638211Y494809D01*
Y494132D01*
X637873Y493794D01*
X638211Y493117D02*
Y492439D01*
Y492778D01*
X636180D01*
X636518Y493117D01*
X637873Y491424D02*
X638211Y491085D01*
Y490408D01*
X637873Y490070D01*
X636518D01*
X636180Y490408D01*
Y491085D01*
X636518Y491424D01*
X636857D01*
X637195Y491085D01*
Y490070D01*
X691660Y435401D02*
X691998Y435739D01*
X692675D01*
X693014Y435401D01*
Y434047D01*
X692675Y433708D01*
X691998D01*
X691660Y434047D01*
X690983Y435401D02*
X690644Y435739D01*
X689967D01*
X689628Y435401D01*
Y435062D01*
X689967Y434724D01*
X689628Y434385D01*
Y434047D01*
X689967Y433708D01*
X690644D01*
X690983Y434047D01*
Y434385D01*
X690644Y434724D01*
X690983Y435062D01*
Y435401D01*
X690644Y434724D02*
X689967D01*
X682453Y491000D02*
X682115Y491338D01*
Y492015D01*
X682453Y492354D01*
X683807D01*
X684146Y492015D01*
Y491338D01*
X683807Y491000D01*
X684146Y488968D02*
Y490323D01*
X682792Y488968D01*
X682453D01*
X682115Y489307D01*
Y489984D01*
X682453Y490323D01*
X684146Y486937D02*
Y488291D01*
X682792Y486937D01*
X682453D01*
X682115Y487276D01*
Y487953D01*
X682453Y488291D01*
X676910Y484124D02*
Y485901D01*
X676021D01*
X675725Y485605D01*
Y485013D01*
X676021Y484716D01*
X676910D01*
X676318D02*
X675725Y484124D01*
X673948D02*
X675133D01*
X673948Y485309D01*
Y485605D01*
X674244Y485901D01*
X674836D01*
X675133Y485605D01*
X678434Y495300D02*
X676657D01*
Y494411D01*
X676953Y494115D01*
X677545D01*
X677841Y494411D01*
Y495300D01*
Y494707D02*
X678434Y494115D01*
X676953Y493523D02*
X676657Y493226D01*
Y492634D01*
X676953Y492338D01*
X677249D01*
X677545Y492634D01*
Y492930D01*
Y492634D01*
X677841Y492338D01*
X678138D01*
X678434Y492634D01*
Y493226D01*
X678138Y493523D01*
X647192Y448310D02*
X645415D01*
Y447421D01*
X645711Y447125D01*
X646303D01*
X646600Y447421D01*
Y448310D01*
Y447718D02*
X647192Y447125D01*
Y446533D02*
Y445940D01*
Y446236D01*
X645415D01*
X645711Y446533D01*
X642892Y483661D02*
X643230Y483999D01*
X643907D01*
X644246Y483661D01*
Y482307D01*
X643907Y481968D01*
X643230D01*
X642892Y482307D01*
X640860Y481968D02*
X642215D01*
X640860Y483322D01*
Y483661D01*
X641199Y483999D01*
X641876D01*
X642215Y483661D01*
X640183D02*
X639845Y483999D01*
X639168D01*
X638829Y483661D01*
Y483322D01*
X639168Y482984D01*
X639506D01*
X639168D01*
X638829Y482645D01*
Y482307D01*
X639168Y481968D01*
X639845D01*
X640183Y482307D01*
X692676Y456737D02*
X693014Y457075D01*
X693691D01*
X694030Y456737D01*
Y455383D01*
X693691Y455044D01*
X693014D01*
X692676Y455383D01*
X691999Y455044D02*
X691321D01*
X691660D01*
Y457075D01*
X691999Y456737D01*
X688952Y457075D02*
X690306D01*
Y456060D01*
X689629Y456398D01*
X689290D01*
X688952Y456060D01*
Y455383D01*
X689290Y455044D01*
X689967D01*
X690306Y455383D01*
D76*
X671587Y434580D02*
X663123D01*
X661430Y436273D01*
Y439658D01*
X663123Y441351D01*
X671587D01*
X661430Y444737D02*
Y448122D01*
Y446429D01*
X671587D01*
X669894Y444737D01*
M02*
